<?xml version="1.0" encoding="utf-8" standalone="no"?>
<!DOCTYPE svg PUBLIC "-//W3C//DTD SVG 1.1//EN"
  "http://www.w3.org/Graphics/SVG/1.1/DTD/svg11.dtd">
<!-- Created with matplotlib (https://matplotlib.org/) -->
<svg height="340.15748pt" version="1.1" viewBox="0 0 340.15748 340.15748" width="340.15748pt" xmlns="http://www.w3.org/2000/svg" xmlns:xlink="http://www.w3.org/1999/xlink">
 <metadata>
  <rdf:RDF xmlns:cc="http://creativecommons.org/ns#" xmlns:dc="http://purl.org/dc/elements/1.1/" xmlns:rdf="http://www.w3.org/1999/02/22-rdf-syntax-ns#">
   <cc:Work>
    <dc:type rdf:resource="http://purl.org/dc/dcmitype/StillImage"/>
    <dc:date>2022-02-08T16:42:09.788219</dc:date>
    <dc:format>image/svg+xml</dc:format>
    <dc:creator>
     <cc:Agent>
      <dc:title>Matplotlib v3.3.2, https://matplotlib.org/</dc:title>
     </cc:Agent>
    </dc:creator>
   </cc:Work>
  </rdf:RDF>
 </metadata>
 <defs>
  <style type="text/css">*{stroke-linecap:butt;stroke-linejoin:round;}</style>
 </defs>
 <g id="figure_1">
  <g id="patch_1">
   <path d="M 0 340.15748 
L 340.15748 340.15748 
L 340.15748 0 
L 0 0 
z
" style="fill:#ffffff;"/>
  </g>
  <g id="axes_1">
   <g id="patch_2">
    <path d="M 47.72 298.19748 
L 329.35748 298.19748 
L 329.35748 41.856 
L 47.72 41.856 
z
" style="fill:#ffffff;"/>
   </g>
   <g id="matplotlib.axis_1">
    <g id="xtick_1">
     <g id="line2d_1">
      <defs>
       <path d="M 0 0 
L 0 3.5 
" id="m530492d933" style="stroke:#000000;stroke-width:0.8;"/>
      </defs>
      <g>
       <use style="stroke:#000000;stroke-width:0.8;" x="77.903443" xlink:href="#m530492d933" y="298.19748"/>
      </g>
     </g>
     <g id="text_1">
      <!-- −0.2 -->
      <g transform="translate(65.762036 312.795918)scale(0.1 -0.1)">
       <defs>
        <path d="M 10.59375 35.5 
L 73.1875 35.5 
L 73.1875 27.203125 
L 10.59375 27.203125 
z
" id="DejaVuSans-8722"/>
        <path d="M 31.78125 66.40625 
Q 24.171875 66.40625 20.328125 58.90625 
Q 16.5 51.421875 16.5 36.375 
Q 16.5 21.390625 20.328125 13.890625 
Q 24.171875 6.390625 31.78125 6.390625 
Q 39.453125 6.390625 43.28125 13.890625 
Q 47.125 21.390625 47.125 36.375 
Q 47.125 51.421875 43.28125 58.90625 
Q 39.453125 66.40625 31.78125 66.40625 
z
M 31.78125 74.21875 
Q 44.046875 74.21875 50.515625 64.515625 
Q 56.984375 54.828125 56.984375 36.375 
Q 56.984375 17.96875 50.515625 8.265625 
Q 44.046875 -1.421875 31.78125 -1.421875 
Q 19.53125 -1.421875 13.0625 8.265625 
Q 6.59375 17.96875 6.59375 36.375 
Q 6.59375 54.828125 13.0625 64.515625 
Q 19.53125 74.21875 31.78125 74.21875 
z
" id="DejaVuSans-48"/>
        <path d="M 10.6875 12.40625 
L 21 12.40625 
L 21 0 
L 10.6875 0 
z
" id="DejaVuSans-46"/>
        <path d="M 19.1875 8.296875 
L 53.609375 8.296875 
L 53.609375 0 
L 7.328125 0 
L 7.328125 8.296875 
Q 12.9375 14.109375 22.625 23.890625 
Q 32.328125 33.6875 34.8125 36.53125 
Q 39.546875 41.84375 41.421875 45.53125 
Q 43.3125 49.21875 43.3125 52.78125 
Q 43.3125 58.59375 39.234375 62.25 
Q 35.15625 65.921875 28.609375 65.921875 
Q 23.96875 65.921875 18.8125 64.3125 
Q 13.671875 62.703125 7.8125 59.421875 
L 7.8125 69.390625 
Q 13.765625 71.78125 18.9375 73 
Q 24.125 74.21875 28.421875 74.21875 
Q 39.75 74.21875 46.484375 68.546875 
Q 53.21875 62.890625 53.21875 53.421875 
Q 53.21875 48.921875 51.53125 44.890625 
Q 49.859375 40.875 45.40625 35.40625 
Q 44.1875 33.984375 37.640625 27.21875 
Q 31.109375 20.453125 19.1875 8.296875 
z
" id="DejaVuSans-50"/>
       </defs>
       <use xlink:href="#DejaVuSans-8722"/>
       <use x="83.789062" xlink:href="#DejaVuSans-48"/>
       <use x="147.412109" xlink:href="#DejaVuSans-46"/>
       <use x="179.199219" xlink:href="#DejaVuSans-50"/>
      </g>
     </g>
    </g>
    <g id="xtick_2">
     <g id="line2d_2">
      <g>
       <use style="stroke:#000000;stroke-width:0.8;" x="110.300309" xlink:href="#m530492d933" y="298.19748"/>
      </g>
     </g>
     <g id="text_2">
      <!-- 0.0 -->
      <g transform="translate(102.348746 312.795918)scale(0.1 -0.1)">
       <use xlink:href="#DejaVuSans-48"/>
       <use x="63.623047" xlink:href="#DejaVuSans-46"/>
       <use x="95.410156" xlink:href="#DejaVuSans-48"/>
      </g>
     </g>
    </g>
    <g id="xtick_3">
     <g id="line2d_3">
      <g>
       <use style="stroke:#000000;stroke-width:0.8;" x="142.697175" xlink:href="#m530492d933" y="298.19748"/>
      </g>
     </g>
     <g id="text_3">
      <!-- 0.2 -->
      <g transform="translate(134.745612 312.795918)scale(0.1 -0.1)">
       <use xlink:href="#DejaVuSans-48"/>
       <use x="63.623047" xlink:href="#DejaVuSans-46"/>
       <use x="95.410156" xlink:href="#DejaVuSans-50"/>
      </g>
     </g>
    </g>
    <g id="xtick_4">
     <g id="line2d_4">
      <g>
       <use style="stroke:#000000;stroke-width:0.8;" x="175.094041" xlink:href="#m530492d933" y="298.19748"/>
      </g>
     </g>
     <g id="text_4">
      <!-- 0.4 -->
      <g transform="translate(167.142478 312.795918)scale(0.1 -0.1)">
       <defs>
        <path d="M 37.796875 64.3125 
L 12.890625 25.390625 
L 37.796875 25.390625 
z
M 35.203125 72.90625 
L 47.609375 72.90625 
L 47.609375 25.390625 
L 58.015625 25.390625 
L 58.015625 17.1875 
L 47.609375 17.1875 
L 47.609375 0 
L 37.796875 0 
L 37.796875 17.1875 
L 4.890625 17.1875 
L 4.890625 26.703125 
z
" id="DejaVuSans-52"/>
       </defs>
       <use xlink:href="#DejaVuSans-48"/>
       <use x="63.623047" xlink:href="#DejaVuSans-46"/>
       <use x="95.410156" xlink:href="#DejaVuSans-52"/>
      </g>
     </g>
    </g>
    <g id="xtick_5">
     <g id="line2d_5">
      <g>
       <use style="stroke:#000000;stroke-width:0.8;" x="207.490907" xlink:href="#m530492d933" y="298.19748"/>
      </g>
     </g>
     <g id="text_5">
      <!-- 0.6 -->
      <g transform="translate(199.539344 312.795918)scale(0.1 -0.1)">
       <defs>
        <path d="M 33.015625 40.375 
Q 26.375 40.375 22.484375 35.828125 
Q 18.609375 31.296875 18.609375 23.390625 
Q 18.609375 15.53125 22.484375 10.953125 
Q 26.375 6.390625 33.015625 6.390625 
Q 39.65625 6.390625 43.53125 10.953125 
Q 47.40625 15.53125 47.40625 23.390625 
Q 47.40625 31.296875 43.53125 35.828125 
Q 39.65625 40.375 33.015625 40.375 
z
M 52.59375 71.296875 
L 52.59375 62.3125 
Q 48.875 64.0625 45.09375 64.984375 
Q 41.3125 65.921875 37.59375 65.921875 
Q 27.828125 65.921875 22.671875 59.328125 
Q 17.53125 52.734375 16.796875 39.40625 
Q 19.671875 43.65625 24.015625 45.921875 
Q 28.375 48.1875 33.59375 48.1875 
Q 44.578125 48.1875 50.953125 41.515625 
Q 57.328125 34.859375 57.328125 23.390625 
Q 57.328125 12.15625 50.6875 5.359375 
Q 44.046875 -1.421875 33.015625 -1.421875 
Q 20.359375 -1.421875 13.671875 8.265625 
Q 6.984375 17.96875 6.984375 36.375 
Q 6.984375 53.65625 15.1875 63.9375 
Q 23.390625 74.21875 37.203125 74.21875 
Q 40.921875 74.21875 44.703125 73.484375 
Q 48.484375 72.75 52.59375 71.296875 
z
" id="DejaVuSans-54"/>
       </defs>
       <use xlink:href="#DejaVuSans-48"/>
       <use x="63.623047" xlink:href="#DejaVuSans-46"/>
       <use x="95.410156" xlink:href="#DejaVuSans-54"/>
      </g>
     </g>
    </g>
    <g id="xtick_6">
     <g id="line2d_6">
      <g>
       <use style="stroke:#000000;stroke-width:0.8;" x="239.887773" xlink:href="#m530492d933" y="298.19748"/>
      </g>
     </g>
     <g id="text_6">
      <!-- 0.8 -->
      <g transform="translate(231.93621 312.795918)scale(0.1 -0.1)">
       <defs>
        <path d="M 31.78125 34.625 
Q 24.75 34.625 20.71875 30.859375 
Q 16.703125 27.09375 16.703125 20.515625 
Q 16.703125 13.921875 20.71875 10.15625 
Q 24.75 6.390625 31.78125 6.390625 
Q 38.8125 6.390625 42.859375 10.171875 
Q 46.921875 13.96875 46.921875 20.515625 
Q 46.921875 27.09375 42.890625 30.859375 
Q 38.875 34.625 31.78125 34.625 
z
M 21.921875 38.8125 
Q 15.578125 40.375 12.03125 44.71875 
Q 8.5 49.078125 8.5 55.328125 
Q 8.5 64.0625 14.71875 69.140625 
Q 20.953125 74.21875 31.78125 74.21875 
Q 42.671875 74.21875 48.875 69.140625 
Q 55.078125 64.0625 55.078125 55.328125 
Q 55.078125 49.078125 51.53125 44.71875 
Q 48 40.375 41.703125 38.8125 
Q 48.828125 37.15625 52.796875 32.3125 
Q 56.78125 27.484375 56.78125 20.515625 
Q 56.78125 9.90625 50.3125 4.234375 
Q 43.84375 -1.421875 31.78125 -1.421875 
Q 19.734375 -1.421875 13.25 4.234375 
Q 6.78125 9.90625 6.78125 20.515625 
Q 6.78125 27.484375 10.78125 32.3125 
Q 14.796875 37.15625 21.921875 38.8125 
z
M 18.3125 54.390625 
Q 18.3125 48.734375 21.84375 45.5625 
Q 25.390625 42.390625 31.78125 42.390625 
Q 38.140625 42.390625 41.71875 45.5625 
Q 45.3125 48.734375 45.3125 54.390625 
Q 45.3125 60.0625 41.71875 63.234375 
Q 38.140625 66.40625 31.78125 66.40625 
Q 25.390625 66.40625 21.84375 63.234375 
Q 18.3125 60.0625 18.3125 54.390625 
z
" id="DejaVuSans-56"/>
       </defs>
       <use xlink:href="#DejaVuSans-48"/>
       <use x="63.623047" xlink:href="#DejaVuSans-46"/>
       <use x="95.410156" xlink:href="#DejaVuSans-56"/>
      </g>
     </g>
    </g>
    <g id="xtick_7">
     <g id="line2d_7">
      <g>
       <use style="stroke:#000000;stroke-width:0.8;" x="272.284639" xlink:href="#m530492d933" y="298.19748"/>
      </g>
     </g>
     <g id="text_7">
      <!-- 1.0 -->
      <g transform="translate(264.333076 312.795918)scale(0.1 -0.1)">
       <defs>
        <path d="M 12.40625 8.296875 
L 28.515625 8.296875 
L 28.515625 63.921875 
L 10.984375 60.40625 
L 10.984375 69.390625 
L 28.421875 72.90625 
L 38.28125 72.90625 
L 38.28125 8.296875 
L 54.390625 8.296875 
L 54.390625 0 
L 12.40625 0 
z
" id="DejaVuSans-49"/>
       </defs>
       <use xlink:href="#DejaVuSans-49"/>
       <use x="63.623047" xlink:href="#DejaVuSans-46"/>
       <use x="95.410156" xlink:href="#DejaVuSans-48"/>
      </g>
     </g>
    </g>
    <g id="xtick_8">
     <g id="line2d_8">
      <g>
       <use style="stroke:#000000;stroke-width:0.8;" x="304.681505" xlink:href="#m530492d933" y="298.19748"/>
      </g>
     </g>
     <g id="text_8">
      <!-- 1.2 -->
      <g transform="translate(296.729943 312.795918)scale(0.1 -0.1)">
       <use xlink:href="#DejaVuSans-49"/>
       <use x="63.623047" xlink:href="#DejaVuSans-46"/>
       <use x="95.410156" xlink:href="#DejaVuSans-50"/>
      </g>
     </g>
    </g>
    <g id="text_9">
     <!-- DockQ -->
     <g transform="translate(172.048896 326.474043)scale(0.1 -0.1)">
      <defs>
       <path d="M 19.671875 64.796875 
L 19.671875 8.109375 
L 31.59375 8.109375 
Q 46.6875 8.109375 53.6875 14.9375 
Q 60.6875 21.78125 60.6875 36.53125 
Q 60.6875 51.171875 53.6875 57.984375 
Q 46.6875 64.796875 31.59375 64.796875 
z
M 9.8125 72.90625 
L 30.078125 72.90625 
Q 51.265625 72.90625 61.171875 64.09375 
Q 71.09375 55.28125 71.09375 36.53125 
Q 71.09375 17.671875 61.125 8.828125 
Q 51.171875 0 30.078125 0 
L 9.8125 0 
z
" id="DejaVuSans-68"/>
       <path d="M 30.609375 48.390625 
Q 23.390625 48.390625 19.1875 42.75 
Q 14.984375 37.109375 14.984375 27.296875 
Q 14.984375 17.484375 19.15625 11.84375 
Q 23.34375 6.203125 30.609375 6.203125 
Q 37.796875 6.203125 41.984375 11.859375 
Q 46.1875 17.53125 46.1875 27.296875 
Q 46.1875 37.015625 41.984375 42.703125 
Q 37.796875 48.390625 30.609375 48.390625 
z
M 30.609375 56 
Q 42.328125 56 49.015625 48.375 
Q 55.71875 40.765625 55.71875 27.296875 
Q 55.71875 13.875 49.015625 6.21875 
Q 42.328125 -1.421875 30.609375 -1.421875 
Q 18.84375 -1.421875 12.171875 6.21875 
Q 5.515625 13.875 5.515625 27.296875 
Q 5.515625 40.765625 12.171875 48.375 
Q 18.84375 56 30.609375 56 
z
" id="DejaVuSans-111"/>
       <path d="M 48.78125 52.59375 
L 48.78125 44.1875 
Q 44.96875 46.296875 41.140625 47.34375 
Q 37.3125 48.390625 33.40625 48.390625 
Q 24.65625 48.390625 19.8125 42.84375 
Q 14.984375 37.3125 14.984375 27.296875 
Q 14.984375 17.28125 19.8125 11.734375 
Q 24.65625 6.203125 33.40625 6.203125 
Q 37.3125 6.203125 41.140625 7.25 
Q 44.96875 8.296875 48.78125 10.40625 
L 48.78125 2.09375 
Q 45.015625 0.34375 40.984375 -0.53125 
Q 36.96875 -1.421875 32.421875 -1.421875 
Q 20.0625 -1.421875 12.78125 6.34375 
Q 5.515625 14.109375 5.515625 27.296875 
Q 5.515625 40.671875 12.859375 48.328125 
Q 20.21875 56 33.015625 56 
Q 37.15625 56 41.109375 55.140625 
Q 45.0625 54.296875 48.78125 52.59375 
z
" id="DejaVuSans-99"/>
       <path d="M 9.078125 75.984375 
L 18.109375 75.984375 
L 18.109375 31.109375 
L 44.921875 54.6875 
L 56.390625 54.6875 
L 27.390625 29.109375 
L 57.625 0 
L 45.90625 0 
L 18.109375 26.703125 
L 18.109375 0 
L 9.078125 0 
z
" id="DejaVuSans-107"/>
       <path d="M 39.40625 66.21875 
Q 28.65625 66.21875 22.328125 58.203125 
Q 16.015625 50.203125 16.015625 36.375 
Q 16.015625 22.609375 22.328125 14.59375 
Q 28.65625 6.59375 39.40625 6.59375 
Q 50.140625 6.59375 56.421875 14.59375 
Q 62.703125 22.609375 62.703125 36.375 
Q 62.703125 50.203125 56.421875 58.203125 
Q 50.140625 66.21875 39.40625 66.21875 
z
M 53.21875 1.3125 
L 66.21875 -12.890625 
L 54.296875 -12.890625 
L 43.5 -1.21875 
Q 41.890625 -1.3125 41.03125 -1.359375 
Q 40.1875 -1.421875 39.40625 -1.421875 
Q 24.03125 -1.421875 14.8125 8.859375 
Q 5.609375 19.140625 5.609375 36.375 
Q 5.609375 53.65625 14.8125 63.9375 
Q 24.03125 74.21875 39.40625 74.21875 
Q 54.734375 74.21875 63.90625 63.9375 
Q 73.09375 53.65625 73.09375 36.375 
Q 73.09375 23.6875 67.984375 14.640625 
Q 62.890625 5.609375 53.21875 1.3125 
z
" id="DejaVuSans-81"/>
      </defs>
      <use xlink:href="#DejaVuSans-68"/>
      <use x="77.001953" xlink:href="#DejaVuSans-111"/>
      <use x="138.183594" xlink:href="#DejaVuSans-99"/>
      <use x="193.164062" xlink:href="#DejaVuSans-107"/>
      <use x="251.074219" xlink:href="#DejaVuSans-81"/>
     </g>
    </g>
   </g>
   <g id="matplotlib.axis_2">
    <g id="ytick_1">
     <g id="line2d_9">
      <defs>
       <path d="M 0 0 
L -3.5 0 
" id="m25d0cce651" style="stroke:#000000;stroke-width:0.8;"/>
      </defs>
      <g>
       <use style="stroke:#000000;stroke-width:0.8;" x="47.72" xlink:href="#m25d0cce651" y="298.19748"/>
      </g>
     </g>
     <g id="text_10">
      <!-- 0.0 -->
      <g transform="translate(24.816875 301.996699)scale(0.1 -0.1)">
       <use xlink:href="#DejaVuSans-48"/>
       <use x="63.623047" xlink:href="#DejaVuSans-46"/>
       <use x="95.410156" xlink:href="#DejaVuSans-48"/>
      </g>
     </g>
    </g>
    <g id="ytick_2">
     <g id="line2d_10">
      <g>
       <use style="stroke:#000000;stroke-width:0.8;" x="47.72" xlink:href="#m25d0cce651" y="264.924906"/>
      </g>
     </g>
     <g id="text_11">
      <!-- 0.2 -->
      <g transform="translate(24.816875 268.724125)scale(0.1 -0.1)">
       <use xlink:href="#DejaVuSans-48"/>
       <use x="63.623047" xlink:href="#DejaVuSans-46"/>
       <use x="95.410156" xlink:href="#DejaVuSans-50"/>
      </g>
     </g>
    </g>
    <g id="ytick_3">
     <g id="line2d_11">
      <g>
       <use style="stroke:#000000;stroke-width:0.8;" x="47.72" xlink:href="#m25d0cce651" y="231.652332"/>
      </g>
     </g>
     <g id="text_12">
      <!-- 0.4 -->
      <g transform="translate(24.816875 235.451551)scale(0.1 -0.1)">
       <use xlink:href="#DejaVuSans-48"/>
       <use x="63.623047" xlink:href="#DejaVuSans-46"/>
       <use x="95.410156" xlink:href="#DejaVuSans-52"/>
      </g>
     </g>
    </g>
    <g id="ytick_4">
     <g id="line2d_12">
      <g>
       <use style="stroke:#000000;stroke-width:0.8;" x="47.72" xlink:href="#m25d0cce651" y="198.379758"/>
      </g>
     </g>
     <g id="text_13">
      <!-- 0.6 -->
      <g transform="translate(24.816875 202.178977)scale(0.1 -0.1)">
       <use xlink:href="#DejaVuSans-48"/>
       <use x="63.623047" xlink:href="#DejaVuSans-46"/>
       <use x="95.410156" xlink:href="#DejaVuSans-54"/>
      </g>
     </g>
    </g>
    <g id="ytick_5">
     <g id="line2d_13">
      <g>
       <use style="stroke:#000000;stroke-width:0.8;" x="47.72" xlink:href="#m25d0cce651" y="165.107184"/>
      </g>
     </g>
     <g id="text_14">
      <!-- 0.8 -->
      <g transform="translate(24.816875 168.906403)scale(0.1 -0.1)">
       <use xlink:href="#DejaVuSans-48"/>
       <use x="63.623047" xlink:href="#DejaVuSans-46"/>
       <use x="95.410156" xlink:href="#DejaVuSans-56"/>
      </g>
     </g>
    </g>
    <g id="ytick_6">
     <g id="line2d_14">
      <g>
       <use style="stroke:#000000;stroke-width:0.8;" x="47.72" xlink:href="#m25d0cce651" y="131.83461"/>
      </g>
     </g>
     <g id="text_15">
      <!-- 1.0 -->
      <g transform="translate(24.816875 135.633829)scale(0.1 -0.1)">
       <use xlink:href="#DejaVuSans-49"/>
       <use x="63.623047" xlink:href="#DejaVuSans-46"/>
       <use x="95.410156" xlink:href="#DejaVuSans-48"/>
      </g>
     </g>
    </g>
    <g id="ytick_7">
     <g id="line2d_15">
      <g>
       <use style="stroke:#000000;stroke-width:0.8;" x="47.72" xlink:href="#m25d0cce651" y="98.562036"/>
      </g>
     </g>
     <g id="text_16">
      <!-- 1.2 -->
      <g transform="translate(24.816875 102.361255)scale(0.1 -0.1)">
       <use xlink:href="#DejaVuSans-49"/>
       <use x="63.623047" xlink:href="#DejaVuSans-46"/>
       <use x="95.410156" xlink:href="#DejaVuSans-50"/>
      </g>
     </g>
    </g>
    <g id="ytick_8">
     <g id="line2d_16">
      <g>
       <use style="stroke:#000000;stroke-width:0.8;" x="47.72" xlink:href="#m25d0cce651" y="65.289462"/>
      </g>
     </g>
     <g id="text_17">
      <!-- 1.4 -->
      <g transform="translate(24.816875 69.088681)scale(0.1 -0.1)">
       <use xlink:href="#DejaVuSans-49"/>
       <use x="63.623047" xlink:href="#DejaVuSans-46"/>
       <use x="95.410156" xlink:href="#DejaVuSans-52"/>
      </g>
     </g>
    </g>
    <g id="text_18">
     <!-- Density -->
     <g transform="translate(18.737187 189.035334)rotate(-90)scale(0.1 -0.1)">
      <defs>
       <path d="M 56.203125 29.59375 
L 56.203125 25.203125 
L 14.890625 25.203125 
Q 15.484375 15.921875 20.484375 11.0625 
Q 25.484375 6.203125 34.421875 6.203125 
Q 39.59375 6.203125 44.453125 7.46875 
Q 49.3125 8.734375 54.109375 11.28125 
L 54.109375 2.78125 
Q 49.265625 0.734375 44.1875 -0.34375 
Q 39.109375 -1.421875 33.890625 -1.421875 
Q 20.796875 -1.421875 13.15625 6.1875 
Q 5.515625 13.8125 5.515625 26.8125 
Q 5.515625 40.234375 12.765625 48.109375 
Q 20.015625 56 32.328125 56 
Q 43.359375 56 49.78125 48.890625 
Q 56.203125 41.796875 56.203125 29.59375 
z
M 47.21875 32.234375 
Q 47.125 39.59375 43.09375 43.984375 
Q 39.0625 48.390625 32.421875 48.390625 
Q 24.90625 48.390625 20.390625 44.140625 
Q 15.875 39.890625 15.1875 32.171875 
z
" id="DejaVuSans-101"/>
       <path d="M 54.890625 33.015625 
L 54.890625 0 
L 45.90625 0 
L 45.90625 32.71875 
Q 45.90625 40.484375 42.875 44.328125 
Q 39.84375 48.1875 33.796875 48.1875 
Q 26.515625 48.1875 22.3125 43.546875 
Q 18.109375 38.921875 18.109375 30.90625 
L 18.109375 0 
L 9.078125 0 
L 9.078125 54.6875 
L 18.109375 54.6875 
L 18.109375 46.1875 
Q 21.34375 51.125 25.703125 53.5625 
Q 30.078125 56 35.796875 56 
Q 45.21875 56 50.046875 50.171875 
Q 54.890625 44.34375 54.890625 33.015625 
z
" id="DejaVuSans-110"/>
       <path d="M 44.28125 53.078125 
L 44.28125 44.578125 
Q 40.484375 46.53125 36.375 47.5 
Q 32.28125 48.484375 27.875 48.484375 
Q 21.1875 48.484375 17.84375 46.4375 
Q 14.5 44.390625 14.5 40.28125 
Q 14.5 37.15625 16.890625 35.375 
Q 19.28125 33.59375 26.515625 31.984375 
L 29.59375 31.296875 
Q 39.15625 29.25 43.1875 25.515625 
Q 47.21875 21.78125 47.21875 15.09375 
Q 47.21875 7.46875 41.1875 3.015625 
Q 35.15625 -1.421875 24.609375 -1.421875 
Q 20.21875 -1.421875 15.453125 -0.5625 
Q 10.6875 0.296875 5.421875 2 
L 5.421875 11.28125 
Q 10.40625 8.6875 15.234375 7.390625 
Q 20.0625 6.109375 24.8125 6.109375 
Q 31.15625 6.109375 34.5625 8.28125 
Q 37.984375 10.453125 37.984375 14.40625 
Q 37.984375 18.0625 35.515625 20.015625 
Q 33.0625 21.96875 24.703125 23.78125 
L 21.578125 24.515625 
Q 13.234375 26.265625 9.515625 29.90625 
Q 5.8125 33.546875 5.8125 39.890625 
Q 5.8125 47.609375 11.28125 51.796875 
Q 16.75 56 26.8125 56 
Q 31.78125 56 36.171875 55.265625 
Q 40.578125 54.546875 44.28125 53.078125 
z
" id="DejaVuSans-115"/>
       <path d="M 9.421875 54.6875 
L 18.40625 54.6875 
L 18.40625 0 
L 9.421875 0 
z
M 9.421875 75.984375 
L 18.40625 75.984375 
L 18.40625 64.59375 
L 9.421875 64.59375 
z
" id="DejaVuSans-105"/>
       <path d="M 18.3125 70.21875 
L 18.3125 54.6875 
L 36.8125 54.6875 
L 36.8125 47.703125 
L 18.3125 47.703125 
L 18.3125 18.015625 
Q 18.3125 11.328125 20.140625 9.421875 
Q 21.96875 7.515625 27.59375 7.515625 
L 36.8125 7.515625 
L 36.8125 0 
L 27.59375 0 
Q 17.1875 0 13.234375 3.875 
Q 9.28125 7.765625 9.28125 18.015625 
L 9.28125 47.703125 
L 2.6875 47.703125 
L 2.6875 54.6875 
L 9.28125 54.6875 
L 9.28125 70.21875 
z
" id="DejaVuSans-116"/>
       <path d="M 32.171875 -5.078125 
Q 28.375 -14.84375 24.75 -17.8125 
Q 21.140625 -20.796875 15.09375 -20.796875 
L 7.90625 -20.796875 
L 7.90625 -13.28125 
L 13.1875 -13.28125 
Q 16.890625 -13.28125 18.9375 -11.515625 
Q 21 -9.765625 23.484375 -3.21875 
L 25.09375 0.875 
L 2.984375 54.6875 
L 12.5 54.6875 
L 29.59375 11.921875 
L 46.6875 54.6875 
L 56.203125 54.6875 
z
" id="DejaVuSans-121"/>
      </defs>
      <use xlink:href="#DejaVuSans-68"/>
      <use x="77.001953" xlink:href="#DejaVuSans-101"/>
      <use x="138.525391" xlink:href="#DejaVuSans-110"/>
      <use x="201.904297" xlink:href="#DejaVuSans-115"/>
      <use x="254.003906" xlink:href="#DejaVuSans-105"/>
      <use x="281.787109" xlink:href="#DejaVuSans-116"/>
      <use x="320.996094" xlink:href="#DejaVuSans-121"/>
     </g>
    </g>
   </g>
   <g id="line2d_17">
    <path clip-path="url(#p5829b56ea2)" d="M 61.765588 296.826175 
L 63.74671 296.299024 
L 65.727832 295.545144 
L 67.708954 294.504142 
L 69.690076 293.102096 
L 71.671198 291.252018 
L 73.65232 288.855331 
L 75.633442 285.804631 
L 77.614564 281.988 
L 79.595686 277.294963 
L 81.576808 271.624102 
L 83.55793 264.892067 
L 85.539052 257.043558 
L 87.520174 248.061562 
L 89.501296 237.97697 
L 91.482418 226.876514 
L 95.444662 202.281479 
L 101.388028 163.392029 
L 103.36915 151.270257 
L 105.350272 140.197421 
L 107.331394 130.529422 
L 109.312516 122.576604 
L 111.293638 116.583204 
L 113.27476 112.710743 
L 115.255881 111.02691 
L 117.237003 111.501031 
L 119.218125 114.006557 
L 121.199247 118.330309 
L 123.180369 124.187599 
L 125.161491 131.241769 
L 127.142613 139.126358 
L 133.085979 164.120184 
L 135.067101 171.828078 
L 137.048223 178.811905 
L 139.029345 184.914937 
L 141.010467 190.043201 
L 142.991589 194.161331 
L 144.972711 197.285149 
L 146.953833 199.472006 
L 148.934955 200.809938 
L 150.916077 201.406612 
L 152.897199 201.378901 
L 154.878321 200.843724 
L 156.859443 199.910577 
L 158.840565 198.675988 
L 160.821687 197.219948 
L 164.783931 193.872324 
L 168.746175 190.151968 
L 172.708419 186.116687 
L 176.670663 181.696879 
L 180.632907 176.797807 
L 184.595151 171.373366 
L 188.557395 165.454723 
L 192.519639 159.134552 
L 198.463005 149.13526 
L 204.406371 138.695467 
L 210.349737 127.821274 
L 220.255347 109.331559 
L 222.236469 105.900794 
L 224.217591 102.722221 
L 226.198713 99.893433 
L 228.179835 97.522535 
L 230.160957 95.72459 
L 232.142079 94.617185 
L 234.123201 94.315263 
L 236.104323 94.925505 
L 238.085445 96.540518 
L 240.066567 99.233213 
L 242.047689 103.051704 
L 244.028811 108.01512 
L 246.009933 114.110644 
L 247.991055 121.292058 
L 249.972177 129.479965 
L 251.953299 138.563765 
L 253.934421 148.405309 
L 257.896665 169.703424 
L 265.821153 213.660816 
L 269.783397 233.604106 
L 271.764519 242.611509 
L 273.745641 250.870617 
L 275.726763 258.337082 
L 277.707885 264.993004 
L 279.689007 270.84442 
L 281.670129 275.917945 
L 283.651251 280.256845 
L 285.632373 283.916869 
L 287.613495 286.962112 
L 289.594617 289.461142 
L 291.575739 291.483559 
L 293.556861 293.097111 
L 295.537983 294.365388 
L 297.519105 295.34611 
L 299.500227 296.089924 
L 301.481349 296.639625 
L 303.462471 297.029686 
L 305.443593 297.285967 
L 309.405837 297.456079 
L 311.386959 297.376098 
L 313.368081 297.173704 
L 313.368081 297.173704 
" style="fill:none;stroke:#1f77b4;stroke-linecap:square;stroke-width:1.5;"/>
   </g>
   <g id="line2d_18">
    <path clip-path="url(#p5829b56ea2)" d="M 60.521704 296.61 
L 62.53772 296.005265 
L 64.553736 295.14718 
L 66.569753 293.969388 
L 68.585769 292.391248 
L 70.601785 290.318451 
L 72.617802 287.644735 
L 74.633818 284.254984 
L 76.649834 280.029952 
L 78.665851 274.852719 
L 80.681867 268.616854 
L 82.697883 261.236001 
L 84.7139 252.654429 
L 86.729916 242.857795 
L 88.745932 231.883191 
L 90.761948 219.827391 
L 94.793981 193.185707 
L 100.84203 151.208829 
L 102.858046 138.160084 
L 104.874063 126.261248 
L 106.890079 115.898775 
L 108.906095 107.412584 
L 110.922112 101.074516 
L 112.938128 97.070774 
L 114.954144 95.489948 
L 116.970161 96.317719 
L 118.986177 99.43869 
L 121.002193 104.64509 
L 123.01821 111.651446 
L 125.034226 120.113765 
L 127.050242 129.651423 
L 137.130324 180.289189 
L 139.14634 188.828836 
L 141.162357 196.352569 
L 143.178373 202.765367 
L 145.194389 208.023367 
L 147.210406 212.126698 
L 149.226422 215.111335 
L 151.242438 217.040771 
L 153.258455 217.998109 
L 155.274471 218.079021 
L 157.290487 217.385755 
L 159.306503 216.022286 
L 161.32252 214.090551 
L 163.338536 211.687637 
L 165.354552 208.903794 
L 167.370569 205.82112 
L 171.402601 199.042664 
L 177.45065 188.163733 
L 185.514716 173.757208 
L 191.562765 163.527283 
L 197.610814 153.78642 
L 217.770977 122.177926 
L 221.803009 116.205371 
L 223.819026 113.463422 
L 225.835042 110.9732 
L 227.851058 108.814125 
L 229.867075 107.073964 
L 231.883091 105.846349 
L 233.899107 105.227571 
L 235.915124 105.312689 
L 237.93114 106.191133 
L 239.947156 107.942002 
L 241.963173 110.629324 
L 243.979189 114.297594 
L 245.995205 118.967894 
L 248.011222 124.634916 
L 250.027238 131.265154 
L 252.043254 138.796459 
L 254.059271 147.139074 
L 256.075287 156.178152 
L 260.10732 175.785412 
L 268.171385 216.634732 
L 272.203418 235.406026 
L 274.219434 243.946376 
L 276.23545 251.816756 
L 278.251467 258.968478 
L 280.267483 265.377206 
L 282.283499 271.041147 
L 284.299515 275.978337 
L 286.315532 280.223302 
L 288.331548 283.82336 
L 290.347564 286.834835 
L 292.363581 289.319414 
L 294.379597 291.340826 
L 296.395613 292.961974 
L 298.41163 294.242574 
L 300.427646 295.237314 
L 302.443662 295.994498 
L 304.459679 296.555083 
L 306.475695 296.952009 
L 308.491711 297.209712 
L 310.507728 297.343694 
L 312.523744 297.360052 
L 314.53976 297.254898 
L 316.555777 297.013619 
L 316.555777 297.013619 
" style="fill:none;stroke:#ff7f0e;stroke-linecap:square;stroke-width:1.5;"/>
   </g>
   <g id="line2d_19">
    <path clip-path="url(#p5829b56ea2)" d="M 61.823795 296.44172 
L 63.795072 295.730089 
L 65.766349 294.732233 
L 67.737626 293.369183 
L 69.708903 291.545631 
L 71.68018 289.150436 
L 73.651457 286.058404 
L 75.622734 282.133705 
L 77.594011 277.235189 
L 79.565289 271.22375 
L 81.536566 263.971691 
L 83.507843 255.373807 
L 85.47912 245.359609 
L 87.450397 233.905863 
L 89.421674 221.048339 
L 91.392951 206.891519 
L 95.335505 175.475044 
L 103.220613 109.724939 
L 105.191891 95.213974 
L 107.163168 82.382931 
L 109.134445 71.622736 
L 111.105722 63.246965 
L 113.076999 57.471812 
L 115.048276 54.402608 
L 117.019553 54.028164 
L 118.99083 56.223434 
L 120.962107 60.760191 
L 122.933384 67.324608 
L 124.904661 75.540001 
L 126.875938 84.992578 
L 130.818492 105.925357 
L 134.761047 127.019207 
L 136.732324 136.861926 
L 138.703601 145.955379 
L 140.674878 154.173597 
L 142.646155 161.452497 
L 144.617432 167.781333 
L 146.588709 173.192004 
L 148.559986 177.747466 
L 150.531263 181.530378 
L 152.50254 184.632858 
L 154.473817 187.147952 
L 156.445094 189.163146 
L 158.416371 190.755976 
L 160.387649 191.991611 
L 162.358926 192.9221 
L 164.330203 193.586917 
L 166.30148 194.014398 
L 168.272757 194.223683 
L 170.244034 194.226828 
L 172.215311 194.03083 
L 174.186588 193.63939 
L 176.157865 193.0543 
L 178.129142 192.276451 
L 180.100419 191.306457 
L 182.071696 190.144975 
L 184.042973 188.792796 
L 186.01425 187.250795 
L 187.985528 185.519825 
L 189.956805 183.600636 
L 191.928082 181.493881 
L 193.899359 179.200258 
L 195.870636 176.72084 
L 199.81319 171.214186 
L 203.755744 165.015718 
L 207.698298 158.22935 
L 217.554684 140.414974 
L 219.525961 137.159827 
L 221.497238 134.190346 
L 223.468515 131.599707 
L 225.439792 129.48403 
L 227.411069 127.938926 
L 229.382346 127.055681 
L 231.353623 126.917298 
L 233.3249 127.594634 
L 235.296177 129.142866 
L 237.267454 131.598506 
L 239.238731 134.977137 
L 241.210009 139.271997 
L 243.181286 144.453478 
L 245.152563 150.469566 
L 247.12384 157.247169 
L 249.095117 164.694276 
L 253.037671 181.152193 
L 258.951502 207.833382 
L 262.894056 225.415116 
L 266.83661 241.733089 
L 268.807888 249.188916 
L 270.779165 256.088283 
L 272.750442 262.388903 
L 274.721719 268.067214 
L 276.692996 273.117385 
L 278.664273 277.549639 
L 280.63555 281.388027 
L 282.606827 284.667818 
L 284.578104 287.432694 
L 286.549381 289.731925 
L 288.520658 291.617666 
L 290.491935 293.142519 
L 292.463212 294.357434 
L 294.434489 295.309977 
L 296.405767 296.042978 
L 298.377044 296.593507 
L 300.348321 296.992105 
L 302.319598 297.262182 
L 306.262152 297.471446 
L 308.233429 297.416618 
L 310.204706 297.243634 
L 312.175983 296.930184 
L 312.175983 296.930184 
" style="fill:none;stroke:#2ca02c;stroke-linecap:square;stroke-width:1.5;"/>
   </g>
   <g id="patch_3">
    <path d="M 47.72 298.19748 
L 47.72 41.856 
" style="fill:none;stroke:#000000;stroke-linecap:square;stroke-linejoin:miter;stroke-width:0.8;"/>
   </g>
   <g id="patch_4">
    <path d="M 47.72 298.19748 
L 329.35748 298.19748 
" style="fill:none;stroke:#000000;stroke-linecap:square;stroke-linejoin:miter;stroke-width:0.8;"/>
   </g>
   <g id="text_19">
    <!-- DockQ and AF Neff -->
    <g transform="translate(131.781553 22.418625)scale(0.12 -0.12)">
     <defs>
      <path id="DejaVuSans-32"/>
      <path d="M 34.28125 27.484375 
Q 23.390625 27.484375 19.1875 25 
Q 14.984375 22.515625 14.984375 16.5 
Q 14.984375 11.71875 18.140625 8.90625 
Q 21.296875 6.109375 26.703125 6.109375 
Q 34.1875 6.109375 38.703125 11.40625 
Q 43.21875 16.703125 43.21875 25.484375 
L 43.21875 27.484375 
z
M 52.203125 31.203125 
L 52.203125 0 
L 43.21875 0 
L 43.21875 8.296875 
Q 40.140625 3.328125 35.546875 0.953125 
Q 30.953125 -1.421875 24.3125 -1.421875 
Q 15.921875 -1.421875 10.953125 3.296875 
Q 6 8.015625 6 15.921875 
Q 6 25.140625 12.171875 29.828125 
Q 18.359375 34.515625 30.609375 34.515625 
L 43.21875 34.515625 
L 43.21875 35.40625 
Q 43.21875 41.609375 39.140625 45 
Q 35.0625 48.390625 27.6875 48.390625 
Q 23 48.390625 18.546875 47.265625 
Q 14.109375 46.140625 10.015625 43.890625 
L 10.015625 52.203125 
Q 14.9375 54.109375 19.578125 55.046875 
Q 24.21875 56 28.609375 56 
Q 40.484375 56 46.34375 49.84375 
Q 52.203125 43.703125 52.203125 31.203125 
z
" id="DejaVuSans-97"/>
      <path d="M 45.40625 46.390625 
L 45.40625 75.984375 
L 54.390625 75.984375 
L 54.390625 0 
L 45.40625 0 
L 45.40625 8.203125 
Q 42.578125 3.328125 38.25 0.953125 
Q 33.9375 -1.421875 27.875 -1.421875 
Q 17.96875 -1.421875 11.734375 6.484375 
Q 5.515625 14.40625 5.515625 27.296875 
Q 5.515625 40.1875 11.734375 48.09375 
Q 17.96875 56 27.875 56 
Q 33.9375 56 38.25 53.625 
Q 42.578125 51.265625 45.40625 46.390625 
z
M 14.796875 27.296875 
Q 14.796875 17.390625 18.875 11.75 
Q 22.953125 6.109375 30.078125 6.109375 
Q 37.203125 6.109375 41.296875 11.75 
Q 45.40625 17.390625 45.40625 27.296875 
Q 45.40625 37.203125 41.296875 42.84375 
Q 37.203125 48.484375 30.078125 48.484375 
Q 22.953125 48.484375 18.875 42.84375 
Q 14.796875 37.203125 14.796875 27.296875 
z
" id="DejaVuSans-100"/>
      <path d="M 34.1875 63.1875 
L 20.796875 26.90625 
L 47.609375 26.90625 
z
M 28.609375 72.90625 
L 39.796875 72.90625 
L 67.578125 0 
L 57.328125 0 
L 50.6875 18.703125 
L 17.828125 18.703125 
L 11.1875 0 
L 0.78125 0 
z
" id="DejaVuSans-65"/>
      <path d="M 9.8125 72.90625 
L 51.703125 72.90625 
L 51.703125 64.59375 
L 19.671875 64.59375 
L 19.671875 43.109375 
L 48.578125 43.109375 
L 48.578125 34.8125 
L 19.671875 34.8125 
L 19.671875 0 
L 9.8125 0 
z
" id="DejaVuSans-70"/>
      <path d="M 9.8125 72.90625 
L 23.09375 72.90625 
L 55.421875 11.921875 
L 55.421875 72.90625 
L 64.984375 72.90625 
L 64.984375 0 
L 51.703125 0 
L 19.390625 60.984375 
L 19.390625 0 
L 9.8125 0 
z
" id="DejaVuSans-78"/>
      <path d="M 37.109375 75.984375 
L 37.109375 68.5 
L 28.515625 68.5 
Q 23.6875 68.5 21.796875 66.546875 
Q 19.921875 64.59375 19.921875 59.515625 
L 19.921875 54.6875 
L 34.71875 54.6875 
L 34.71875 47.703125 
L 19.921875 47.703125 
L 19.921875 0 
L 10.890625 0 
L 10.890625 47.703125 
L 2.296875 47.703125 
L 2.296875 54.6875 
L 10.890625 54.6875 
L 10.890625 58.5 
Q 10.890625 67.625 15.140625 71.796875 
Q 19.390625 75.984375 28.609375 75.984375 
z
" id="DejaVuSans-102"/>
     </defs>
     <use xlink:href="#DejaVuSans-68"/>
     <use x="77.001953" xlink:href="#DejaVuSans-111"/>
     <use x="138.183594" xlink:href="#DejaVuSans-99"/>
     <use x="193.164062" xlink:href="#DejaVuSans-107"/>
     <use x="251.074219" xlink:href="#DejaVuSans-81"/>
     <use x="329.785156" xlink:href="#DejaVuSans-32"/>
     <use x="361.572266" xlink:href="#DejaVuSans-97"/>
     <use x="422.851562" xlink:href="#DejaVuSans-110"/>
     <use x="486.230469" xlink:href="#DejaVuSans-100"/>
     <use x="549.707031" xlink:href="#DejaVuSans-32"/>
     <use x="581.494141" xlink:href="#DejaVuSans-65"/>
     <use x="649.902344" xlink:href="#DejaVuSans-70"/>
     <use x="707.421875" xlink:href="#DejaVuSans-32"/>
     <use x="739.208984" xlink:href="#DejaVuSans-78"/>
     <use x="814.013672" xlink:href="#DejaVuSans-101"/>
     <use x="875.537109" xlink:href="#DejaVuSans-102"/>
     <use x="910.742188" xlink:href="#DejaVuSans-102"/>
    </g>
    <!-- for the test set -->
    <g transform="translate(144.02999 35.856)scale(0.12 -0.12)">
     <defs>
      <path d="M 41.109375 46.296875 
Q 39.59375 47.171875 37.8125 47.578125 
Q 36.03125 48 33.890625 48 
Q 26.265625 48 22.1875 43.046875 
Q 18.109375 38.09375 18.109375 28.8125 
L 18.109375 0 
L 9.078125 0 
L 9.078125 54.6875 
L 18.109375 54.6875 
L 18.109375 46.1875 
Q 20.953125 51.171875 25.484375 53.578125 
Q 30.03125 56 36.53125 56 
Q 37.453125 56 38.578125 55.875 
Q 39.703125 55.765625 41.0625 55.515625 
z
" id="DejaVuSans-114"/>
      <path d="M 54.890625 33.015625 
L 54.890625 0 
L 45.90625 0 
L 45.90625 32.71875 
Q 45.90625 40.484375 42.875 44.328125 
Q 39.84375 48.1875 33.796875 48.1875 
Q 26.515625 48.1875 22.3125 43.546875 
Q 18.109375 38.921875 18.109375 30.90625 
L 18.109375 0 
L 9.078125 0 
L 9.078125 75.984375 
L 18.109375 75.984375 
L 18.109375 46.1875 
Q 21.34375 51.125 25.703125 53.5625 
Q 30.078125 56 35.796875 56 
Q 45.21875 56 50.046875 50.171875 
Q 54.890625 44.34375 54.890625 33.015625 
z
" id="DejaVuSans-104"/>
     </defs>
     <use xlink:href="#DejaVuSans-102"/>
     <use x="35.205078" xlink:href="#DejaVuSans-111"/>
     <use x="96.386719" xlink:href="#DejaVuSans-114"/>
     <use x="137.5" xlink:href="#DejaVuSans-32"/>
     <use x="169.287109" xlink:href="#DejaVuSans-116"/>
     <use x="208.496094" xlink:href="#DejaVuSans-104"/>
     <use x="271.875" xlink:href="#DejaVuSans-101"/>
     <use x="333.398438" xlink:href="#DejaVuSans-32"/>
     <use x="365.185547" xlink:href="#DejaVuSans-116"/>
     <use x="404.394531" xlink:href="#DejaVuSans-101"/>
     <use x="465.917969" xlink:href="#DejaVuSans-115"/>
     <use x="518.017578" xlink:href="#DejaVuSans-116"/>
     <use x="557.226562" xlink:href="#DejaVuSans-32"/>
     <use x="589.013672" xlink:href="#DejaVuSans-115"/>
     <use x="641.113281" xlink:href="#DejaVuSans-101"/>
     <use x="702.636719" xlink:href="#DejaVuSans-116"/>
    </g>
   </g>
   <g id="legend_1">
    <g id="patch_5">
     <path d="M 113.984043 93.890375 
L 322.35748 93.890375 
Q 324.35748 93.890375 324.35748 91.890375 
L 324.35748 48.856 
Q 324.35748 46.856 322.35748 46.856 
L 113.984043 46.856 
Q 111.984043 46.856 111.984043 48.856 
L 111.984043 91.890375 
Q 111.984043 93.890375 113.984043 93.890375 
z
" style="fill:#ffffff;opacity:0.8;stroke:#cccccc;stroke-linejoin:miter;"/>
    </g>
    <g id="line2d_20">
     <path d="M 115.984043 54.954437 
L 135.984043 54.954437 
" style="fill:none;stroke:#1f77b4;stroke-linecap:square;stroke-width:1.5;"/>
    </g>
    <g id="line2d_21"/>
    <g id="text_20">
     <!-- 2-2638.0 : 68.6 % successful -->
     <g transform="translate(143.984043 58.454437)scale(0.1 -0.1)">
      <defs>
       <path d="M 4.890625 31.390625 
L 31.203125 31.390625 
L 31.203125 23.390625 
L 4.890625 23.390625 
z
" id="DejaVuSans-45"/>
       <path d="M 40.578125 39.3125 
Q 47.65625 37.796875 51.625 33 
Q 55.609375 28.21875 55.609375 21.1875 
Q 55.609375 10.40625 48.1875 4.484375 
Q 40.765625 -1.421875 27.09375 -1.421875 
Q 22.515625 -1.421875 17.65625 -0.515625 
Q 12.796875 0.390625 7.625 2.203125 
L 7.625 11.71875 
Q 11.71875 9.328125 16.59375 8.109375 
Q 21.484375 6.890625 26.8125 6.890625 
Q 36.078125 6.890625 40.9375 10.546875 
Q 45.796875 14.203125 45.796875 21.1875 
Q 45.796875 27.640625 41.28125 31.265625 
Q 36.765625 34.90625 28.71875 34.90625 
L 20.21875 34.90625 
L 20.21875 43.015625 
L 29.109375 43.015625 
Q 36.375 43.015625 40.234375 45.921875 
Q 44.09375 48.828125 44.09375 54.296875 
Q 44.09375 59.90625 40.109375 62.90625 
Q 36.140625 65.921875 28.71875 65.921875 
Q 24.65625 65.921875 20.015625 65.03125 
Q 15.375 64.15625 9.8125 62.3125 
L 9.8125 71.09375 
Q 15.4375 72.65625 20.34375 73.4375 
Q 25.25 74.21875 29.59375 74.21875 
Q 40.828125 74.21875 47.359375 69.109375 
Q 53.90625 64.015625 53.90625 55.328125 
Q 53.90625 49.265625 50.4375 45.09375 
Q 46.96875 40.921875 40.578125 39.3125 
z
" id="DejaVuSans-51"/>
       <path d="M 11.71875 12.40625 
L 22.015625 12.40625 
L 22.015625 0 
L 11.71875 0 
z
M 11.71875 51.703125 
L 22.015625 51.703125 
L 22.015625 39.3125 
L 11.71875 39.3125 
z
" id="DejaVuSans-58"/>
       <path d="M 72.703125 32.078125 
Q 68.453125 32.078125 66.03125 28.46875 
Q 63.625 24.859375 63.625 18.40625 
Q 63.625 12.0625 66.03125 8.421875 
Q 68.453125 4.78125 72.703125 4.78125 
Q 76.859375 4.78125 79.265625 8.421875 
Q 81.6875 12.0625 81.6875 18.40625 
Q 81.6875 24.8125 79.265625 28.4375 
Q 76.859375 32.078125 72.703125 32.078125 
z
M 72.703125 38.28125 
Q 80.421875 38.28125 84.953125 32.90625 
Q 89.5 27.546875 89.5 18.40625 
Q 89.5 9.28125 84.9375 3.921875 
Q 80.375 -1.421875 72.703125 -1.421875 
Q 64.890625 -1.421875 60.34375 3.921875 
Q 55.8125 9.28125 55.8125 18.40625 
Q 55.8125 27.59375 60.375 32.9375 
Q 64.9375 38.28125 72.703125 38.28125 
z
M 22.3125 68.015625 
Q 18.109375 68.015625 15.6875 64.375 
Q 13.28125 60.75 13.28125 54.390625 
Q 13.28125 47.953125 15.671875 44.328125 
Q 18.0625 40.71875 22.3125 40.71875 
Q 26.5625 40.71875 28.96875 44.328125 
Q 31.390625 47.953125 31.390625 54.390625 
Q 31.390625 60.6875 28.953125 64.34375 
Q 26.515625 68.015625 22.3125 68.015625 
z
M 66.40625 74.21875 
L 74.21875 74.21875 
L 28.609375 -1.421875 
L 20.796875 -1.421875 
z
M 22.3125 74.21875 
Q 30.03125 74.21875 34.609375 68.875 
Q 39.203125 63.53125 39.203125 54.390625 
Q 39.203125 45.171875 34.640625 39.84375 
Q 30.078125 34.515625 22.3125 34.515625 
Q 14.546875 34.515625 10.03125 39.859375 
Q 5.515625 45.21875 5.515625 54.390625 
Q 5.515625 63.484375 10.046875 68.84375 
Q 14.59375 74.21875 22.3125 74.21875 
z
" id="DejaVuSans-37"/>
       <path d="M 8.5 21.578125 
L 8.5 54.6875 
L 17.484375 54.6875 
L 17.484375 21.921875 
Q 17.484375 14.15625 20.5 10.265625 
Q 23.53125 6.390625 29.59375 6.390625 
Q 36.859375 6.390625 41.078125 11.03125 
Q 45.3125 15.671875 45.3125 23.6875 
L 45.3125 54.6875 
L 54.296875 54.6875 
L 54.296875 0 
L 45.3125 0 
L 45.3125 8.40625 
Q 42.046875 3.421875 37.71875 1 
Q 33.40625 -1.421875 27.6875 -1.421875 
Q 18.265625 -1.421875 13.375 4.4375 
Q 8.5 10.296875 8.5 21.578125 
z
M 31.109375 56 
z
" id="DejaVuSans-117"/>
       <path d="M 9.421875 75.984375 
L 18.40625 75.984375 
L 18.40625 0 
L 9.421875 0 
z
" id="DejaVuSans-108"/>
      </defs>
      <use xlink:href="#DejaVuSans-50"/>
      <use x="63.623047" xlink:href="#DejaVuSans-45"/>
      <use x="99.707031" xlink:href="#DejaVuSans-50"/>
      <use x="163.330078" xlink:href="#DejaVuSans-54"/>
      <use x="226.953125" xlink:href="#DejaVuSans-51"/>
      <use x="290.576172" xlink:href="#DejaVuSans-56"/>
      <use x="354.199219" xlink:href="#DejaVuSans-46"/>
      <use x="385.986328" xlink:href="#DejaVuSans-48"/>
      <use x="449.609375" xlink:href="#DejaVuSans-32"/>
      <use x="481.396484" xlink:href="#DejaVuSans-58"/>
      <use x="515.087891" xlink:href="#DejaVuSans-32"/>
      <use x="546.875" xlink:href="#DejaVuSans-54"/>
      <use x="610.498047" xlink:href="#DejaVuSans-56"/>
      <use x="674.121094" xlink:href="#DejaVuSans-46"/>
      <use x="705.908203" xlink:href="#DejaVuSans-54"/>
      <use x="769.53125" xlink:href="#DejaVuSans-32"/>
      <use x="801.318359" xlink:href="#DejaVuSans-37"/>
      <use x="896.337891" xlink:href="#DejaVuSans-32"/>
      <use x="928.125" xlink:href="#DejaVuSans-115"/>
      <use x="980.224609" xlink:href="#DejaVuSans-117"/>
      <use x="1043.603516" xlink:href="#DejaVuSans-99"/>
      <use x="1098.583984" xlink:href="#DejaVuSans-99"/>
      <use x="1153.564453" xlink:href="#DejaVuSans-101"/>
      <use x="1215.087891" xlink:href="#DejaVuSans-115"/>
      <use x="1267.1875" xlink:href="#DejaVuSans-115"/>
      <use x="1319.287109" xlink:href="#DejaVuSans-102"/>
      <use x="1354.492188" xlink:href="#DejaVuSans-117"/>
      <use x="1417.871094" xlink:href="#DejaVuSans-108"/>
     </g>
    </g>
    <g id="line2d_22">
     <path d="M 115.984043 69.632562 
L 135.984043 69.632562 
" style="fill:none;stroke:#ff7f0e;stroke-linecap:square;stroke-width:1.5;"/>
    </g>
    <g id="line2d_23"/>
    <g id="text_21">
     <!-- 2638.0-7026.0 : 65.1 % successful -->
     <g transform="translate(143.984043 73.132562)scale(0.1 -0.1)">
      <defs>
       <path d="M 8.203125 72.90625 
L 55.078125 72.90625 
L 55.078125 68.703125 
L 28.609375 0 
L 18.3125 0 
L 43.21875 64.59375 
L 8.203125 64.59375 
z
" id="DejaVuSans-55"/>
       <path d="M 10.796875 72.90625 
L 49.515625 72.90625 
L 49.515625 64.59375 
L 19.828125 64.59375 
L 19.828125 46.734375 
Q 21.96875 47.46875 24.109375 47.828125 
Q 26.265625 48.1875 28.421875 48.1875 
Q 40.625 48.1875 47.75 41.5 
Q 54.890625 34.8125 54.890625 23.390625 
Q 54.890625 11.625 47.5625 5.09375 
Q 40.234375 -1.421875 26.90625 -1.421875 
Q 22.3125 -1.421875 17.546875 -0.640625 
Q 12.796875 0.140625 7.71875 1.703125 
L 7.71875 11.625 
Q 12.109375 9.234375 16.796875 8.0625 
Q 21.484375 6.890625 26.703125 6.890625 
Q 35.15625 6.890625 40.078125 11.328125 
Q 45.015625 15.765625 45.015625 23.390625 
Q 45.015625 31 40.078125 35.4375 
Q 35.15625 39.890625 26.703125 39.890625 
Q 22.75 39.890625 18.8125 39.015625 
Q 14.890625 38.140625 10.796875 36.28125 
z
" id="DejaVuSans-53"/>
      </defs>
      <use xlink:href="#DejaVuSans-50"/>
      <use x="63.623047" xlink:href="#DejaVuSans-54"/>
      <use x="127.246094" xlink:href="#DejaVuSans-51"/>
      <use x="190.869141" xlink:href="#DejaVuSans-56"/>
      <use x="254.492188" xlink:href="#DejaVuSans-46"/>
      <use x="286.279297" xlink:href="#DejaVuSans-48"/>
      <use x="349.902344" xlink:href="#DejaVuSans-45"/>
      <use x="385.986328" xlink:href="#DejaVuSans-55"/>
      <use x="449.609375" xlink:href="#DejaVuSans-48"/>
      <use x="513.232422" xlink:href="#DejaVuSans-50"/>
      <use x="576.855469" xlink:href="#DejaVuSans-54"/>
      <use x="640.478516" xlink:href="#DejaVuSans-46"/>
      <use x="672.265625" xlink:href="#DejaVuSans-48"/>
      <use x="735.888672" xlink:href="#DejaVuSans-32"/>
      <use x="767.675781" xlink:href="#DejaVuSans-58"/>
      <use x="801.367188" xlink:href="#DejaVuSans-32"/>
      <use x="833.154297" xlink:href="#DejaVuSans-54"/>
      <use x="896.777344" xlink:href="#DejaVuSans-53"/>
      <use x="960.400391" xlink:href="#DejaVuSans-46"/>
      <use x="992.1875" xlink:href="#DejaVuSans-49"/>
      <use x="1055.810547" xlink:href="#DejaVuSans-32"/>
      <use x="1087.597656" xlink:href="#DejaVuSans-37"/>
      <use x="1182.617188" xlink:href="#DejaVuSans-32"/>
      <use x="1214.404297" xlink:href="#DejaVuSans-115"/>
      <use x="1266.503906" xlink:href="#DejaVuSans-117"/>
      <use x="1329.882812" xlink:href="#DejaVuSans-99"/>
      <use x="1384.863281" xlink:href="#DejaVuSans-99"/>
      <use x="1439.84375" xlink:href="#DejaVuSans-101"/>
      <use x="1501.367188" xlink:href="#DejaVuSans-115"/>
      <use x="1553.466797" xlink:href="#DejaVuSans-115"/>
      <use x="1605.566406" xlink:href="#DejaVuSans-102"/>
      <use x="1640.771484" xlink:href="#DejaVuSans-117"/>
      <use x="1704.150391" xlink:href="#DejaVuSans-108"/>
     </g>
    </g>
    <g id="line2d_24">
     <path d="M 115.984043 84.310687 
L 135.984043 84.310687 
" style="fill:none;stroke:#2ca02c;stroke-linecap:square;stroke-width:1.5;"/>
    </g>
    <g id="line2d_25"/>
    <g id="text_22">
     <!-- 7026.0-143847 : 57.8 % successful -->
     <g transform="translate(143.984043 87.810687)scale(0.1 -0.1)">
      <use xlink:href="#DejaVuSans-55"/>
      <use x="63.623047" xlink:href="#DejaVuSans-48"/>
      <use x="127.246094" xlink:href="#DejaVuSans-50"/>
      <use x="190.869141" xlink:href="#DejaVuSans-54"/>
      <use x="254.492188" xlink:href="#DejaVuSans-46"/>
      <use x="286.279297" xlink:href="#DejaVuSans-48"/>
      <use x="349.902344" xlink:href="#DejaVuSans-45"/>
      <use x="385.986328" xlink:href="#DejaVuSans-49"/>
      <use x="449.609375" xlink:href="#DejaVuSans-52"/>
      <use x="513.232422" xlink:href="#DejaVuSans-51"/>
      <use x="576.855469" xlink:href="#DejaVuSans-56"/>
      <use x="640.478516" xlink:href="#DejaVuSans-52"/>
      <use x="704.101562" xlink:href="#DejaVuSans-55"/>
      <use x="767.724609" xlink:href="#DejaVuSans-32"/>
      <use x="799.511719" xlink:href="#DejaVuSans-58"/>
      <use x="833.203125" xlink:href="#DejaVuSans-32"/>
      <use x="864.990234" xlink:href="#DejaVuSans-53"/>
      <use x="928.613281" xlink:href="#DejaVuSans-55"/>
      <use x="992.236328" xlink:href="#DejaVuSans-46"/>
      <use x="1024.023438" xlink:href="#DejaVuSans-56"/>
      <use x="1087.646484" xlink:href="#DejaVuSans-32"/>
      <use x="1119.433594" xlink:href="#DejaVuSans-37"/>
      <use x="1214.453125" xlink:href="#DejaVuSans-32"/>
      <use x="1246.240234" xlink:href="#DejaVuSans-115"/>
      <use x="1298.339844" xlink:href="#DejaVuSans-117"/>
      <use x="1361.71875" xlink:href="#DejaVuSans-99"/>
      <use x="1416.699219" xlink:href="#DejaVuSans-99"/>
      <use x="1471.679688" xlink:href="#DejaVuSans-101"/>
      <use x="1533.203125" xlink:href="#DejaVuSans-115"/>
      <use x="1585.302734" xlink:href="#DejaVuSans-115"/>
      <use x="1637.402344" xlink:href="#DejaVuSans-102"/>
      <use x="1672.607422" xlink:href="#DejaVuSans-117"/>
      <use x="1735.986328" xlink:href="#DejaVuSans-108"/>
     </g>
    </g>
   </g>
  </g>
 </g>
 <defs>
  <clipPath id="p5829b56ea2">
   <rect height="256.34148" width="281.63748" x="47.72" y="41.856"/>
  </clipPath>
 </defs>
</svg>
