<?xml version="1.0" encoding="utf-8" standalone="no"?>
<!DOCTYPE svg PUBLIC "-//W3C//DTD SVG 1.1//EN"
  "http://www.w3.org/Graphics/SVG/1.1/DTD/svg11.dtd">
<!-- Created with matplotlib (https://matplotlib.org/) -->
<svg height="340.15748pt" version="1.1" viewBox="0 0 340.15748 340.15748" width="340.15748pt" xmlns="http://www.w3.org/2000/svg" xmlns:xlink="http://www.w3.org/1999/xlink">
 <metadata>
  <rdf:RDF xmlns:cc="http://creativecommons.org/ns#" xmlns:dc="http://purl.org/dc/elements/1.1/" xmlns:rdf="http://www.w3.org/1999/02/22-rdf-syntax-ns#">
   <cc:Work>
    <dc:type rdf:resource="http://purl.org/dc/dcmitype/StillImage"/>
    <dc:date>2022-02-08T16:42:09.500237</dc:date>
    <dc:format>image/svg+xml</dc:format>
    <dc:creator>
     <cc:Agent>
      <dc:title>Matplotlib v3.3.2, https://matplotlib.org/</dc:title>
     </cc:Agent>
    </dc:creator>
   </cc:Work>
  </rdf:RDF>
 </metadata>
 <defs>
  <style type="text/css">*{stroke-linecap:butt;stroke-linejoin:round;}</style>
 </defs>
 <g id="figure_1">
  <g id="patch_1">
   <path d="M 0 340.15748 
L 340.15748 340.15748 
L 340.15748 0 
L 0 0 
z
" style="fill:#ffffff;"/>
  </g>
  <g id="axes_1">
   <g id="patch_2">
    <path d="M 47.72 298.19748 
L 329.35748 298.19748 
L 329.35748 41.856 
L 47.72 41.856 
z
" style="fill:#ffffff;"/>
   </g>
   <g id="matplotlib.axis_1">
    <g id="xtick_1">
     <g id="line2d_1">
      <defs>
       <path d="M 0 0 
L 0 3.5 
" id="me04ee59fbc" style="stroke:#000000;stroke-width:0.8;"/>
      </defs>
      <g>
       <use style="stroke:#000000;stroke-width:0.8;" x="77.893662" xlink:href="#me04ee59fbc" y="298.19748"/>
      </g>
     </g>
     <g id="text_1">
      <!-- −0.2 -->
      <g transform="translate(65.752256 312.795918)scale(0.1 -0.1)">
       <defs>
        <path d="M 10.59375 35.5 
L 73.1875 35.5 
L 73.1875 27.203125 
L 10.59375 27.203125 
z
" id="DejaVuSans-8722"/>
        <path d="M 31.78125 66.40625 
Q 24.171875 66.40625 20.328125 58.90625 
Q 16.5 51.421875 16.5 36.375 
Q 16.5 21.390625 20.328125 13.890625 
Q 24.171875 6.390625 31.78125 6.390625 
Q 39.453125 6.390625 43.28125 13.890625 
Q 47.125 21.390625 47.125 36.375 
Q 47.125 51.421875 43.28125 58.90625 
Q 39.453125 66.40625 31.78125 66.40625 
z
M 31.78125 74.21875 
Q 44.046875 74.21875 50.515625 64.515625 
Q 56.984375 54.828125 56.984375 36.375 
Q 56.984375 17.96875 50.515625 8.265625 
Q 44.046875 -1.421875 31.78125 -1.421875 
Q 19.53125 -1.421875 13.0625 8.265625 
Q 6.59375 17.96875 6.59375 36.375 
Q 6.59375 54.828125 13.0625 64.515625 
Q 19.53125 74.21875 31.78125 74.21875 
z
" id="DejaVuSans-48"/>
        <path d="M 10.6875 12.40625 
L 21 12.40625 
L 21 0 
L 10.6875 0 
z
" id="DejaVuSans-46"/>
        <path d="M 19.1875 8.296875 
L 53.609375 8.296875 
L 53.609375 0 
L 7.328125 0 
L 7.328125 8.296875 
Q 12.9375 14.109375 22.625 23.890625 
Q 32.328125 33.6875 34.8125 36.53125 
Q 39.546875 41.84375 41.421875 45.53125 
Q 43.3125 49.21875 43.3125 52.78125 
Q 43.3125 58.59375 39.234375 62.25 
Q 35.15625 65.921875 28.609375 65.921875 
Q 23.96875 65.921875 18.8125 64.3125 
Q 13.671875 62.703125 7.8125 59.421875 
L 7.8125 69.390625 
Q 13.765625 71.78125 18.9375 73 
Q 24.125 74.21875 28.421875 74.21875 
Q 39.75 74.21875 46.484375 68.546875 
Q 53.21875 62.890625 53.21875 53.421875 
Q 53.21875 48.921875 51.53125 44.890625 
Q 49.859375 40.875 45.40625 35.40625 
Q 44.1875 33.984375 37.640625 27.21875 
Q 31.109375 20.453125 19.1875 8.296875 
z
" id="DejaVuSans-50"/>
       </defs>
       <use xlink:href="#DejaVuSans-8722"/>
       <use x="83.789062" xlink:href="#DejaVuSans-48"/>
       <use x="147.412109" xlink:href="#DejaVuSans-46"/>
       <use x="179.199219" xlink:href="#DejaVuSans-50"/>
      </g>
     </g>
    </g>
    <g id="xtick_2">
     <g id="line2d_2">
      <g>
       <use style="stroke:#000000;stroke-width:0.8;" x="110.317128" xlink:href="#me04ee59fbc" y="298.19748"/>
      </g>
     </g>
     <g id="text_2">
      <!-- 0.0 -->
      <g transform="translate(102.365566 312.795918)scale(0.1 -0.1)">
       <use xlink:href="#DejaVuSans-48"/>
       <use x="63.623047" xlink:href="#DejaVuSans-46"/>
       <use x="95.410156" xlink:href="#DejaVuSans-48"/>
      </g>
     </g>
    </g>
    <g id="xtick_3">
     <g id="line2d_3">
      <g>
       <use style="stroke:#000000;stroke-width:0.8;" x="142.740594" xlink:href="#me04ee59fbc" y="298.19748"/>
      </g>
     </g>
     <g id="text_3">
      <!-- 0.2 -->
      <g transform="translate(134.789032 312.795918)scale(0.1 -0.1)">
       <use xlink:href="#DejaVuSans-48"/>
       <use x="63.623047" xlink:href="#DejaVuSans-46"/>
       <use x="95.410156" xlink:href="#DejaVuSans-50"/>
      </g>
     </g>
    </g>
    <g id="xtick_4">
     <g id="line2d_4">
      <g>
       <use style="stroke:#000000;stroke-width:0.8;" x="175.16406" xlink:href="#me04ee59fbc" y="298.19748"/>
      </g>
     </g>
     <g id="text_4">
      <!-- 0.4 -->
      <g transform="translate(167.212498 312.795918)scale(0.1 -0.1)">
       <defs>
        <path d="M 37.796875 64.3125 
L 12.890625 25.390625 
L 37.796875 25.390625 
z
M 35.203125 72.90625 
L 47.609375 72.90625 
L 47.609375 25.390625 
L 58.015625 25.390625 
L 58.015625 17.1875 
L 47.609375 17.1875 
L 47.609375 0 
L 37.796875 0 
L 37.796875 17.1875 
L 4.890625 17.1875 
L 4.890625 26.703125 
z
" id="DejaVuSans-52"/>
       </defs>
       <use xlink:href="#DejaVuSans-48"/>
       <use x="63.623047" xlink:href="#DejaVuSans-46"/>
       <use x="95.410156" xlink:href="#DejaVuSans-52"/>
      </g>
     </g>
    </g>
    <g id="xtick_5">
     <g id="line2d_5">
      <g>
       <use style="stroke:#000000;stroke-width:0.8;" x="207.587526" xlink:href="#me04ee59fbc" y="298.19748"/>
      </g>
     </g>
     <g id="text_5">
      <!-- 0.6 -->
      <g transform="translate(199.635964 312.795918)scale(0.1 -0.1)">
       <defs>
        <path d="M 33.015625 40.375 
Q 26.375 40.375 22.484375 35.828125 
Q 18.609375 31.296875 18.609375 23.390625 
Q 18.609375 15.53125 22.484375 10.953125 
Q 26.375 6.390625 33.015625 6.390625 
Q 39.65625 6.390625 43.53125 10.953125 
Q 47.40625 15.53125 47.40625 23.390625 
Q 47.40625 31.296875 43.53125 35.828125 
Q 39.65625 40.375 33.015625 40.375 
z
M 52.59375 71.296875 
L 52.59375 62.3125 
Q 48.875 64.0625 45.09375 64.984375 
Q 41.3125 65.921875 37.59375 65.921875 
Q 27.828125 65.921875 22.671875 59.328125 
Q 17.53125 52.734375 16.796875 39.40625 
Q 19.671875 43.65625 24.015625 45.921875 
Q 28.375 48.1875 33.59375 48.1875 
Q 44.578125 48.1875 50.953125 41.515625 
Q 57.328125 34.859375 57.328125 23.390625 
Q 57.328125 12.15625 50.6875 5.359375 
Q 44.046875 -1.421875 33.015625 -1.421875 
Q 20.359375 -1.421875 13.671875 8.265625 
Q 6.984375 17.96875 6.984375 36.375 
Q 6.984375 53.65625 15.1875 63.9375 
Q 23.390625 74.21875 37.203125 74.21875 
Q 40.921875 74.21875 44.703125 73.484375 
Q 48.484375 72.75 52.59375 71.296875 
z
" id="DejaVuSans-54"/>
       </defs>
       <use xlink:href="#DejaVuSans-48"/>
       <use x="63.623047" xlink:href="#DejaVuSans-46"/>
       <use x="95.410156" xlink:href="#DejaVuSans-54"/>
      </g>
     </g>
    </g>
    <g id="xtick_6">
     <g id="line2d_6">
      <g>
       <use style="stroke:#000000;stroke-width:0.8;" x="240.010992" xlink:href="#me04ee59fbc" y="298.19748"/>
      </g>
     </g>
     <g id="text_6">
      <!-- 0.8 -->
      <g transform="translate(232.05943 312.795918)scale(0.1 -0.1)">
       <defs>
        <path d="M 31.78125 34.625 
Q 24.75 34.625 20.71875 30.859375 
Q 16.703125 27.09375 16.703125 20.515625 
Q 16.703125 13.921875 20.71875 10.15625 
Q 24.75 6.390625 31.78125 6.390625 
Q 38.8125 6.390625 42.859375 10.171875 
Q 46.921875 13.96875 46.921875 20.515625 
Q 46.921875 27.09375 42.890625 30.859375 
Q 38.875 34.625 31.78125 34.625 
z
M 21.921875 38.8125 
Q 15.578125 40.375 12.03125 44.71875 
Q 8.5 49.078125 8.5 55.328125 
Q 8.5 64.0625 14.71875 69.140625 
Q 20.953125 74.21875 31.78125 74.21875 
Q 42.671875 74.21875 48.875 69.140625 
Q 55.078125 64.0625 55.078125 55.328125 
Q 55.078125 49.078125 51.53125 44.71875 
Q 48 40.375 41.703125 38.8125 
Q 48.828125 37.15625 52.796875 32.3125 
Q 56.78125 27.484375 56.78125 20.515625 
Q 56.78125 9.90625 50.3125 4.234375 
Q 43.84375 -1.421875 31.78125 -1.421875 
Q 19.734375 -1.421875 13.25 4.234375 
Q 6.78125 9.90625 6.78125 20.515625 
Q 6.78125 27.484375 10.78125 32.3125 
Q 14.796875 37.15625 21.921875 38.8125 
z
M 18.3125 54.390625 
Q 18.3125 48.734375 21.84375 45.5625 
Q 25.390625 42.390625 31.78125 42.390625 
Q 38.140625 42.390625 41.71875 45.5625 
Q 45.3125 48.734375 45.3125 54.390625 
Q 45.3125 60.0625 41.71875 63.234375 
Q 38.140625 66.40625 31.78125 66.40625 
Q 25.390625 66.40625 21.84375 63.234375 
Q 18.3125 60.0625 18.3125 54.390625 
z
" id="DejaVuSans-56"/>
       </defs>
       <use xlink:href="#DejaVuSans-48"/>
       <use x="63.623047" xlink:href="#DejaVuSans-46"/>
       <use x="95.410156" xlink:href="#DejaVuSans-56"/>
      </g>
     </g>
    </g>
    <g id="xtick_7">
     <g id="line2d_7">
      <g>
       <use style="stroke:#000000;stroke-width:0.8;" x="272.434458" xlink:href="#me04ee59fbc" y="298.19748"/>
      </g>
     </g>
     <g id="text_7">
      <!-- 1.0 -->
      <g transform="translate(264.482896 312.795918)scale(0.1 -0.1)">
       <defs>
        <path d="M 12.40625 8.296875 
L 28.515625 8.296875 
L 28.515625 63.921875 
L 10.984375 60.40625 
L 10.984375 69.390625 
L 28.421875 72.90625 
L 38.28125 72.90625 
L 38.28125 8.296875 
L 54.390625 8.296875 
L 54.390625 0 
L 12.40625 0 
z
" id="DejaVuSans-49"/>
       </defs>
       <use xlink:href="#DejaVuSans-49"/>
       <use x="63.623047" xlink:href="#DejaVuSans-46"/>
       <use x="95.410156" xlink:href="#DejaVuSans-48"/>
      </g>
     </g>
    </g>
    <g id="xtick_8">
     <g id="line2d_8">
      <g>
       <use style="stroke:#000000;stroke-width:0.8;" x="304.857924" xlink:href="#me04ee59fbc" y="298.19748"/>
      </g>
     </g>
     <g id="text_8">
      <!-- 1.2 -->
      <g transform="translate(296.906362 312.795918)scale(0.1 -0.1)">
       <use xlink:href="#DejaVuSans-49"/>
       <use x="63.623047" xlink:href="#DejaVuSans-46"/>
       <use x="95.410156" xlink:href="#DejaVuSans-50"/>
      </g>
     </g>
    </g>
    <g id="text_9">
     <!-- DockQ -->
     <g transform="translate(172.048896 326.474043)scale(0.1 -0.1)">
      <defs>
       <path d="M 19.671875 64.796875 
L 19.671875 8.109375 
L 31.59375 8.109375 
Q 46.6875 8.109375 53.6875 14.9375 
Q 60.6875 21.78125 60.6875 36.53125 
Q 60.6875 51.171875 53.6875 57.984375 
Q 46.6875 64.796875 31.59375 64.796875 
z
M 9.8125 72.90625 
L 30.078125 72.90625 
Q 51.265625 72.90625 61.171875 64.09375 
Q 71.09375 55.28125 71.09375 36.53125 
Q 71.09375 17.671875 61.125 8.828125 
Q 51.171875 0 30.078125 0 
L 9.8125 0 
z
" id="DejaVuSans-68"/>
       <path d="M 30.609375 48.390625 
Q 23.390625 48.390625 19.1875 42.75 
Q 14.984375 37.109375 14.984375 27.296875 
Q 14.984375 17.484375 19.15625 11.84375 
Q 23.34375 6.203125 30.609375 6.203125 
Q 37.796875 6.203125 41.984375 11.859375 
Q 46.1875 17.53125 46.1875 27.296875 
Q 46.1875 37.015625 41.984375 42.703125 
Q 37.796875 48.390625 30.609375 48.390625 
z
M 30.609375 56 
Q 42.328125 56 49.015625 48.375 
Q 55.71875 40.765625 55.71875 27.296875 
Q 55.71875 13.875 49.015625 6.21875 
Q 42.328125 -1.421875 30.609375 -1.421875 
Q 18.84375 -1.421875 12.171875 6.21875 
Q 5.515625 13.875 5.515625 27.296875 
Q 5.515625 40.765625 12.171875 48.375 
Q 18.84375 56 30.609375 56 
z
" id="DejaVuSans-111"/>
       <path d="M 48.78125 52.59375 
L 48.78125 44.1875 
Q 44.96875 46.296875 41.140625 47.34375 
Q 37.3125 48.390625 33.40625 48.390625 
Q 24.65625 48.390625 19.8125 42.84375 
Q 14.984375 37.3125 14.984375 27.296875 
Q 14.984375 17.28125 19.8125 11.734375 
Q 24.65625 6.203125 33.40625 6.203125 
Q 37.3125 6.203125 41.140625 7.25 
Q 44.96875 8.296875 48.78125 10.40625 
L 48.78125 2.09375 
Q 45.015625 0.34375 40.984375 -0.53125 
Q 36.96875 -1.421875 32.421875 -1.421875 
Q 20.0625 -1.421875 12.78125 6.34375 
Q 5.515625 14.109375 5.515625 27.296875 
Q 5.515625 40.671875 12.859375 48.328125 
Q 20.21875 56 33.015625 56 
Q 37.15625 56 41.109375 55.140625 
Q 45.0625 54.296875 48.78125 52.59375 
z
" id="DejaVuSans-99"/>
       <path d="M 9.078125 75.984375 
L 18.109375 75.984375 
L 18.109375 31.109375 
L 44.921875 54.6875 
L 56.390625 54.6875 
L 27.390625 29.109375 
L 57.625 0 
L 45.90625 0 
L 18.109375 26.703125 
L 18.109375 0 
L 9.078125 0 
z
" id="DejaVuSans-107"/>
       <path d="M 39.40625 66.21875 
Q 28.65625 66.21875 22.328125 58.203125 
Q 16.015625 50.203125 16.015625 36.375 
Q 16.015625 22.609375 22.328125 14.59375 
Q 28.65625 6.59375 39.40625 6.59375 
Q 50.140625 6.59375 56.421875 14.59375 
Q 62.703125 22.609375 62.703125 36.375 
Q 62.703125 50.203125 56.421875 58.203125 
Q 50.140625 66.21875 39.40625 66.21875 
z
M 53.21875 1.3125 
L 66.21875 -12.890625 
L 54.296875 -12.890625 
L 43.5 -1.21875 
Q 41.890625 -1.3125 41.03125 -1.359375 
Q 40.1875 -1.421875 39.40625 -1.421875 
Q 24.03125 -1.421875 14.8125 8.859375 
Q 5.609375 19.140625 5.609375 36.375 
Q 5.609375 53.65625 14.8125 63.9375 
Q 24.03125 74.21875 39.40625 74.21875 
Q 54.734375 74.21875 63.90625 63.9375 
Q 73.09375 53.65625 73.09375 36.375 
Q 73.09375 23.6875 67.984375 14.640625 
Q 62.890625 5.609375 53.21875 1.3125 
z
" id="DejaVuSans-81"/>
      </defs>
      <use xlink:href="#DejaVuSans-68"/>
      <use x="77.001953" xlink:href="#DejaVuSans-111"/>
      <use x="138.183594" xlink:href="#DejaVuSans-99"/>
      <use x="193.164062" xlink:href="#DejaVuSans-107"/>
      <use x="251.074219" xlink:href="#DejaVuSans-81"/>
     </g>
    </g>
   </g>
   <g id="matplotlib.axis_2">
    <g id="ytick_1">
     <g id="line2d_9">
      <defs>
       <path d="M 0 0 
L -3.5 0 
" id="mf349efa040" style="stroke:#000000;stroke-width:0.8;"/>
      </defs>
      <g>
       <use style="stroke:#000000;stroke-width:0.8;" x="47.72" xlink:href="#mf349efa040" y="298.19748"/>
      </g>
     </g>
     <g id="text_10">
      <!-- 0.0 -->
      <g transform="translate(24.816875 301.996699)scale(0.1 -0.1)">
       <use xlink:href="#DejaVuSans-48"/>
       <use x="63.623047" xlink:href="#DejaVuSans-46"/>
       <use x="95.410156" xlink:href="#DejaVuSans-48"/>
      </g>
     </g>
    </g>
    <g id="ytick_2">
     <g id="line2d_10">
      <g>
       <use style="stroke:#000000;stroke-width:0.8;" x="47.72" xlink:href="#mf349efa040" y="262.394931"/>
      </g>
     </g>
     <g id="text_11">
      <!-- 0.2 -->
      <g transform="translate(24.816875 266.194149)scale(0.1 -0.1)">
       <use xlink:href="#DejaVuSans-48"/>
       <use x="63.623047" xlink:href="#DejaVuSans-46"/>
       <use x="95.410156" xlink:href="#DejaVuSans-50"/>
      </g>
     </g>
    </g>
    <g id="ytick_3">
     <g id="line2d_11">
      <g>
       <use style="stroke:#000000;stroke-width:0.8;" x="47.72" xlink:href="#mf349efa040" y="226.592381"/>
      </g>
     </g>
     <g id="text_12">
      <!-- 0.4 -->
      <g transform="translate(24.816875 230.3916)scale(0.1 -0.1)">
       <use xlink:href="#DejaVuSans-48"/>
       <use x="63.623047" xlink:href="#DejaVuSans-46"/>
       <use x="95.410156" xlink:href="#DejaVuSans-52"/>
      </g>
     </g>
    </g>
    <g id="ytick_4">
     <g id="line2d_12">
      <g>
       <use style="stroke:#000000;stroke-width:0.8;" x="47.72" xlink:href="#mf349efa040" y="190.789831"/>
      </g>
     </g>
     <g id="text_13">
      <!-- 0.6 -->
      <g transform="translate(24.816875 194.58905)scale(0.1 -0.1)">
       <use xlink:href="#DejaVuSans-48"/>
       <use x="63.623047" xlink:href="#DejaVuSans-46"/>
       <use x="95.410156" xlink:href="#DejaVuSans-54"/>
      </g>
     </g>
    </g>
    <g id="ytick_5">
     <g id="line2d_13">
      <g>
       <use style="stroke:#000000;stroke-width:0.8;" x="47.72" xlink:href="#mf349efa040" y="154.987282"/>
      </g>
     </g>
     <g id="text_14">
      <!-- 0.8 -->
      <g transform="translate(24.816875 158.7865)scale(0.1 -0.1)">
       <use xlink:href="#DejaVuSans-48"/>
       <use x="63.623047" xlink:href="#DejaVuSans-46"/>
       <use x="95.410156" xlink:href="#DejaVuSans-56"/>
      </g>
     </g>
    </g>
    <g id="ytick_6">
     <g id="line2d_14">
      <g>
       <use style="stroke:#000000;stroke-width:0.8;" x="47.72" xlink:href="#mf349efa040" y="119.184732"/>
      </g>
     </g>
     <g id="text_15">
      <!-- 1.0 -->
      <g transform="translate(24.816875 122.983951)scale(0.1 -0.1)">
       <use xlink:href="#DejaVuSans-49"/>
       <use x="63.623047" xlink:href="#DejaVuSans-46"/>
       <use x="95.410156" xlink:href="#DejaVuSans-48"/>
      </g>
     </g>
    </g>
    <g id="ytick_7">
     <g id="line2d_15">
      <g>
       <use style="stroke:#000000;stroke-width:0.8;" x="47.72" xlink:href="#mf349efa040" y="83.382182"/>
      </g>
     </g>
     <g id="text_16">
      <!-- 1.2 -->
      <g transform="translate(24.816875 87.181401)scale(0.1 -0.1)">
       <use xlink:href="#DejaVuSans-49"/>
       <use x="63.623047" xlink:href="#DejaVuSans-46"/>
       <use x="95.410156" xlink:href="#DejaVuSans-50"/>
      </g>
     </g>
    </g>
    <g id="ytick_8">
     <g id="line2d_16">
      <g>
       <use style="stroke:#000000;stroke-width:0.8;" x="47.72" xlink:href="#mf349efa040" y="47.579633"/>
      </g>
     </g>
     <g id="text_17">
      <!-- 1.4 -->
      <g transform="translate(24.816875 51.378851)scale(0.1 -0.1)">
       <use xlink:href="#DejaVuSans-49"/>
       <use x="63.623047" xlink:href="#DejaVuSans-46"/>
       <use x="95.410156" xlink:href="#DejaVuSans-52"/>
      </g>
     </g>
    </g>
    <g id="text_18">
     <!-- Density -->
     <g transform="translate(18.737187 189.035334)rotate(-90)scale(0.1 -0.1)">
      <defs>
       <path d="M 56.203125 29.59375 
L 56.203125 25.203125 
L 14.890625 25.203125 
Q 15.484375 15.921875 20.484375 11.0625 
Q 25.484375 6.203125 34.421875 6.203125 
Q 39.59375 6.203125 44.453125 7.46875 
Q 49.3125 8.734375 54.109375 11.28125 
L 54.109375 2.78125 
Q 49.265625 0.734375 44.1875 -0.34375 
Q 39.109375 -1.421875 33.890625 -1.421875 
Q 20.796875 -1.421875 13.15625 6.1875 
Q 5.515625 13.8125 5.515625 26.8125 
Q 5.515625 40.234375 12.765625 48.109375 
Q 20.015625 56 32.328125 56 
Q 43.359375 56 49.78125 48.890625 
Q 56.203125 41.796875 56.203125 29.59375 
z
M 47.21875 32.234375 
Q 47.125 39.59375 43.09375 43.984375 
Q 39.0625 48.390625 32.421875 48.390625 
Q 24.90625 48.390625 20.390625 44.140625 
Q 15.875 39.890625 15.1875 32.171875 
z
" id="DejaVuSans-101"/>
       <path d="M 54.890625 33.015625 
L 54.890625 0 
L 45.90625 0 
L 45.90625 32.71875 
Q 45.90625 40.484375 42.875 44.328125 
Q 39.84375 48.1875 33.796875 48.1875 
Q 26.515625 48.1875 22.3125 43.546875 
Q 18.109375 38.921875 18.109375 30.90625 
L 18.109375 0 
L 9.078125 0 
L 9.078125 54.6875 
L 18.109375 54.6875 
L 18.109375 46.1875 
Q 21.34375 51.125 25.703125 53.5625 
Q 30.078125 56 35.796875 56 
Q 45.21875 56 50.046875 50.171875 
Q 54.890625 44.34375 54.890625 33.015625 
z
" id="DejaVuSans-110"/>
       <path d="M 44.28125 53.078125 
L 44.28125 44.578125 
Q 40.484375 46.53125 36.375 47.5 
Q 32.28125 48.484375 27.875 48.484375 
Q 21.1875 48.484375 17.84375 46.4375 
Q 14.5 44.390625 14.5 40.28125 
Q 14.5 37.15625 16.890625 35.375 
Q 19.28125 33.59375 26.515625 31.984375 
L 29.59375 31.296875 
Q 39.15625 29.25 43.1875 25.515625 
Q 47.21875 21.78125 47.21875 15.09375 
Q 47.21875 7.46875 41.1875 3.015625 
Q 35.15625 -1.421875 24.609375 -1.421875 
Q 20.21875 -1.421875 15.453125 -0.5625 
Q 10.6875 0.296875 5.421875 2 
L 5.421875 11.28125 
Q 10.40625 8.6875 15.234375 7.390625 
Q 20.0625 6.109375 24.8125 6.109375 
Q 31.15625 6.109375 34.5625 8.28125 
Q 37.984375 10.453125 37.984375 14.40625 
Q 37.984375 18.0625 35.515625 20.015625 
Q 33.0625 21.96875 24.703125 23.78125 
L 21.578125 24.515625 
Q 13.234375 26.265625 9.515625 29.90625 
Q 5.8125 33.546875 5.8125 39.890625 
Q 5.8125 47.609375 11.28125 51.796875 
Q 16.75 56 26.8125 56 
Q 31.78125 56 36.171875 55.265625 
Q 40.578125 54.546875 44.28125 53.078125 
z
" id="DejaVuSans-115"/>
       <path d="M 9.421875 54.6875 
L 18.40625 54.6875 
L 18.40625 0 
L 9.421875 0 
z
M 9.421875 75.984375 
L 18.40625 75.984375 
L 18.40625 64.59375 
L 9.421875 64.59375 
z
" id="DejaVuSans-105"/>
       <path d="M 18.3125 70.21875 
L 18.3125 54.6875 
L 36.8125 54.6875 
L 36.8125 47.703125 
L 18.3125 47.703125 
L 18.3125 18.015625 
Q 18.3125 11.328125 20.140625 9.421875 
Q 21.96875 7.515625 27.59375 7.515625 
L 36.8125 7.515625 
L 36.8125 0 
L 27.59375 0 
Q 17.1875 0 13.234375 3.875 
Q 9.28125 7.765625 9.28125 18.015625 
L 9.28125 47.703125 
L 2.6875 47.703125 
L 2.6875 54.6875 
L 9.28125 54.6875 
L 9.28125 70.21875 
z
" id="DejaVuSans-116"/>
       <path d="M 32.171875 -5.078125 
Q 28.375 -14.84375 24.75 -17.8125 
Q 21.140625 -20.796875 15.09375 -20.796875 
L 7.90625 -20.796875 
L 7.90625 -13.28125 
L 13.1875 -13.28125 
Q 16.890625 -13.28125 18.9375 -11.515625 
Q 21 -9.765625 23.484375 -3.21875 
L 25.09375 0.875 
L 2.984375 54.6875 
L 12.5 54.6875 
L 29.59375 11.921875 
L 46.6875 54.6875 
L 56.203125 54.6875 
z
" id="DejaVuSans-121"/>
      </defs>
      <use xlink:href="#DejaVuSans-68"/>
      <use x="77.001953" xlink:href="#DejaVuSans-101"/>
      <use x="138.525391" xlink:href="#DejaVuSans-110"/>
      <use x="201.904297" xlink:href="#DejaVuSans-115"/>
      <use x="254.003906" xlink:href="#DejaVuSans-105"/>
      <use x="281.787109" xlink:href="#DejaVuSans-116"/>
      <use x="320.996094" xlink:href="#DejaVuSans-121"/>
     </g>
    </g>
   </g>
   <g id="line2d_17">
    <path clip-path="url(#p70978f0abf)" d="M 60.521704 296.778573 
L 62.53772 296.251757 
L 64.553736 295.493394 
L 66.569753 294.443066 
L 68.585769 293.026333 
L 70.601785 291.155114 
L 72.617802 288.729034 
L 74.633818 285.638026 
L 76.649834 281.766452 
L 78.665851 276.998867 
L 80.681867 271.227448 
L 82.697883 264.360905 
L 84.7139 256.334434 
L 86.729916 247.120109 
L 88.745932 236.736828 
L 90.761948 225.258813 
L 92.777965 212.821591 
L 96.809997 185.928387 
L 100.84203 158.346747 
L 102.858046 145.206075 
L 104.874063 133.019966 
L 106.890079 122.165423 
L 108.906095 112.981243 
L 110.922112 105.746787 
L 112.938128 100.664103 
L 114.954144 97.845004 
L 116.970161 97.304304 
L 118.986177 98.959785 
L 121.002193 102.63883 
L 123.01821 108.091017 
L 125.034226 115.00541 
L 127.050242 123.030914 
L 131.082275 140.938909 
L 135.114308 158.995737 
L 137.130324 167.34036 
L 139.14634 174.934791 
L 141.162357 181.628879 
L 143.178373 187.328029 
L 145.194389 191.988761 
L 147.210406 195.612099 
L 149.226422 198.235714 
L 151.242438 199.925628 
L 153.258455 200.768129 
L 155.274471 200.86241 
L 157.290487 200.31419 
L 159.306503 199.230466 
L 161.32252 197.715368 
L 163.338536 195.867013 
L 165.354552 193.775201 
L 169.386585 189.169407 
L 177.45065 179.764675 
L 183.498699 173.22521 
L 189.546748 166.671661 
L 191.562765 164.285666 
L 193.578781 161.709677 
L 195.594797 158.889228 
L 197.610814 155.773745 
L 199.62683 152.319877 
L 201.642846 148.49472 
L 203.658863 144.27874 
L 205.674879 139.668242 
L 207.690895 134.677244 
L 211.722928 123.704644 
L 217.770977 105.828145 
L 221.803009 94.171329 
L 223.819026 88.804126 
L 225.835042 83.92984 
L 227.851058 79.688514 
L 229.867075 76.216366 
L 231.883091 73.641899 
L 233.899107 72.082038 
L 235.915124 71.638353 
L 237.93114 72.39346 
L 239.947156 74.407698 
L 241.963173 77.716209 
L 243.979189 82.326592 
L 245.995205 88.217269 
L 248.011222 95.336751 
L 250.027238 103.603929 
L 252.043254 112.909496 
L 254.059271 123.118548 
L 258.091303 145.602996 
L 268.171385 205.30476 
L 272.203418 226.910464 
L 274.219434 236.683764 
L 276.23545 245.663062 
L 278.251467 253.801887 
L 280.267483 261.080145 
L 282.283499 267.501931 
L 284.299515 273.092479 
L 286.315532 277.894474 
L 288.331548 281.964043 
L 290.347564 285.366667 
L 292.363581 288.173264 
L 294.379597 290.456632 
L 296.395613 292.288374 
L 298.41163 293.736391 
L 300.427646 294.862935 
L 302.443662 295.723206 
L 304.459679 296.36439 
L 306.475695 296.825044 
L 308.491711 297.134706 
L 310.507728 297.313589 
L 312.523744 297.372272 
L 314.53976 297.311286 
L 316.555777 297.120535 
L 316.555777 297.120535 
" style="fill:none;stroke:#1f77b4;stroke-linecap:square;stroke-width:1.5;"/>
   </g>
   <g id="line2d_18">
    <path clip-path="url(#p70978f0abf)" d="M 61.620406 296.44907 
L 63.598696 295.741847 
L 65.576985 294.749758 
L 67.555275 293.394026 
L 69.533565 291.579399 
L 71.511854 289.194562 
L 73.490144 286.113809 
L 75.468434 282.20034 
L 77.446723 277.311447 
L 79.425013 271.305792 
L 81.403303 264.052722 
L 83.381592 255.443389 
L 85.359882 245.40314 
L 87.338172 233.904358 
L 89.316462 220.978674 
L 91.294751 206.727313 
L 93.273041 191.328206 
L 97.22962 158.192419 
L 101.1862 124.487706 
L 103.164489 108.56825 
L 105.142779 93.924195 
L 107.121069 81.025752 
L 109.099359 70.293324 
L 111.077648 62.071163 
L 113.055938 56.605332 
L 115.034228 54.02803 
L 117.012517 54.349704 
L 118.990807 57.45969 
L 120.969097 63.135219 
L 122.947386 71.05787 
L 124.925676 80.835822 
L 126.903966 92.029756 
L 130.860545 116.83299 
L 134.817125 141.995049 
L 136.795414 153.809852 
L 138.773704 164.758625 
L 140.751994 174.660783 
L 142.730283 183.401486 
L 144.708573 190.924762 
L 146.686863 197.224243 
L 148.665152 202.332734 
L 150.643442 206.311713 
L 152.621732 209.24161 
L 154.600022 211.21342 
L 156.578311 212.321946 
L 158.556601 212.660706 
L 160.534891 212.318382 
L 162.51318 211.37655 
L 164.49147 209.908438 
L 166.46976 207.978397 
L 168.448049 205.641911 
L 170.426339 202.945939 
L 172.404629 199.92952 
L 174.382918 196.624582 
L 176.361208 193.056913 
L 180.317788 185.212743 
L 184.274367 176.526074 
L 188.230946 167.107314 
L 192.187526 157.083747 
L 198.122395 141.289865 
L 206.035554 120.029808 
L 209.992133 109.958469 
L 213.948712 100.730316 
L 215.927002 96.567166 
L 217.905292 92.787641 
L 219.883581 89.461376 
L 221.861871 86.663462 
L 223.840161 84.473369 
L 225.818451 82.973189 
L 227.79674 82.245198 
L 229.77503 82.368778 
L 231.75332 83.416839 
L 233.731609 85.451908 
L 235.709899 88.522121 
L 237.688189 92.657387 
L 239.666478 97.865999 
L 241.644768 104.131976 
L 243.623058 111.413376 
L 245.601348 119.641777 
L 247.579637 128.723049 
L 249.557927 138.539432 
L 253.514506 159.809591 
L 263.405955 214.955965 
L 265.384244 225.06875 
L 267.362534 234.579871 
L 269.340824 243.404973 
L 271.319114 251.484523 
L 273.297403 258.783695 
L 275.275693 265.291106 
L 277.253983 271.01659 
L 279.232272 275.988224 
L 281.210562 280.248884 
L 283.188852 283.852558 
L 285.167141 286.860684 
L 287.145431 289.338694 
L 289.123721 291.352932 
L 291.102011 292.968038 
L 293.0803 294.244848 
L 295.05859 295.238806 
L 297.03688 295.99883 
L 299.015169 296.566558 
L 300.993459 296.975864 
L 302.971749 297.252521 
L 306.928328 297.468621 
L 308.906618 297.415954 
L 310.884907 297.245111 
L 312.863197 296.934212 
L 312.863197 296.934212 
" style="fill:none;stroke:#ff7f0e;stroke-linecap:square;stroke-width:1.5;"/>
   </g>
   <g id="line2d_19">
    <path clip-path="url(#p70978f0abf)" d="M 61.287332 296.212667 
L 63.27342 295.45421 
L 65.259508 294.385649 
L 67.245596 292.926657 
L 69.231684 290.980452 
L 71.217772 288.434774 
L 73.20386 285.16422 
L 75.189948 281.034242 
L 77.176036 275.90705 
L 79.162124 269.649516 
L 81.148212 262.142961 
L 83.1343 253.294467 
L 85.120388 243.049084 
L 87.106476 231.402007 
L 89.092564 218.409619 
L 91.078652 204.198113 
L 95.050828 172.996422 
L 101.009092 124.35091 
L 102.99518 109.349768 
L 104.981268 95.715924 
L 106.967356 83.87021 
L 108.953444 74.172652 
L 110.939532 66.899045 
L 112.92562 62.222731 
L 114.911708 60.203281 
L 116.897796 60.78318 
L 118.883884 63.792804 
L 120.869971 68.963211 
L 122.856059 75.945483 
L 124.842147 84.334822 
L 126.828235 93.69719 
L 132.786499 123.392586 
L 134.772587 132.609729 
L 136.758675 141.029352 
L 138.744763 148.485791 
L 140.730851 154.886526 
L 142.716939 160.20615 
L 144.703027 164.476681 
L 146.689115 167.775475 
L 148.675203 170.211974 
L 150.661291 171.914452 
L 152.647379 173.017724 
L 154.633467 173.652547 
L 156.619555 173.937217 
L 158.605643 173.971604 
L 160.591731 173.83367 
L 164.563907 173.238423 
L 168.536083 172.34238 
L 172.508259 171.092068 
L 174.494347 170.286207 
L 176.480435 169.334982 
L 178.466523 168.226835 
L 180.452611 166.959002 
L 184.424787 163.983505 
L 188.396963 160.580686 
L 196.341315 153.621507 
L 200.313491 150.563556 
L 204.285667 147.899391 
L 214.216107 141.80016 
L 218.188283 138.911099 
L 222.160459 135.596414 
L 228.118722 130.427483 
L 230.10481 128.943632 
L 232.090898 127.747817 
L 234.076986 126.956011 
L 236.063074 126.686677 
L 238.049162 127.0547 
L 240.03525 128.165188 
L 242.021338 130.107498 
L 244.007426 132.94984 
L 245.993514 136.734776 
L 247.979602 141.4759 
L 249.96569 147.155911 
L 251.951778 153.72622 
L 253.937866 161.108165 
L 255.923954 169.195772 
L 259.89613 186.953838 
L 269.82657 233.30187 
L 271.812658 241.712164 
L 273.798746 249.563674 
L 275.784834 256.784355 
L 277.770922 263.327224 
L 279.75701 269.169577 
L 281.743098 274.311045 
L 283.729186 278.770716 
L 285.715274 282.58364 
L 287.701362 285.796995 
L 289.68745 288.466198 
L 291.673538 290.651202 
L 293.659626 292.413152 
L 295.645714 293.811522 
L 297.631802 294.901768 
L 299.61789 295.733487 
L 301.603978 296.349023 
L 303.590066 296.782407 
L 305.576154 297.058522 
L 307.562242 297.192353 
L 309.54833 297.188233 
L 311.534418 297.038977 
L 313.520506 296.724894 
L 313.520506 296.724894 
" style="fill:none;stroke:#2ca02c;stroke-linecap:square;stroke-width:1.5;"/>
   </g>
   <g id="patch_3">
    <path d="M 47.72 298.19748 
L 47.72 41.856 
" style="fill:none;stroke:#000000;stroke-linecap:square;stroke-linejoin:miter;stroke-width:0.8;"/>
   </g>
   <g id="patch_4">
    <path d="M 47.72 298.19748 
L 329.35748 298.19748 
" style="fill:none;stroke:#000000;stroke-linecap:square;stroke-linejoin:miter;stroke-width:0.8;"/>
   </g>
   <g id="text_19">
    <!-- DockQ and biggest chain length -->
    <g transform="translate(92.198428 22.418625)scale(0.12 -0.12)">
     <defs>
      <path id="DejaVuSans-32"/>
      <path d="M 34.28125 27.484375 
Q 23.390625 27.484375 19.1875 25 
Q 14.984375 22.515625 14.984375 16.5 
Q 14.984375 11.71875 18.140625 8.90625 
Q 21.296875 6.109375 26.703125 6.109375 
Q 34.1875 6.109375 38.703125 11.40625 
Q 43.21875 16.703125 43.21875 25.484375 
L 43.21875 27.484375 
z
M 52.203125 31.203125 
L 52.203125 0 
L 43.21875 0 
L 43.21875 8.296875 
Q 40.140625 3.328125 35.546875 0.953125 
Q 30.953125 -1.421875 24.3125 -1.421875 
Q 15.921875 -1.421875 10.953125 3.296875 
Q 6 8.015625 6 15.921875 
Q 6 25.140625 12.171875 29.828125 
Q 18.359375 34.515625 30.609375 34.515625 
L 43.21875 34.515625 
L 43.21875 35.40625 
Q 43.21875 41.609375 39.140625 45 
Q 35.0625 48.390625 27.6875 48.390625 
Q 23 48.390625 18.546875 47.265625 
Q 14.109375 46.140625 10.015625 43.890625 
L 10.015625 52.203125 
Q 14.9375 54.109375 19.578125 55.046875 
Q 24.21875 56 28.609375 56 
Q 40.484375 56 46.34375 49.84375 
Q 52.203125 43.703125 52.203125 31.203125 
z
" id="DejaVuSans-97"/>
      <path d="M 45.40625 46.390625 
L 45.40625 75.984375 
L 54.390625 75.984375 
L 54.390625 0 
L 45.40625 0 
L 45.40625 8.203125 
Q 42.578125 3.328125 38.25 0.953125 
Q 33.9375 -1.421875 27.875 -1.421875 
Q 17.96875 -1.421875 11.734375 6.484375 
Q 5.515625 14.40625 5.515625 27.296875 
Q 5.515625 40.1875 11.734375 48.09375 
Q 17.96875 56 27.875 56 
Q 33.9375 56 38.25 53.625 
Q 42.578125 51.265625 45.40625 46.390625 
z
M 14.796875 27.296875 
Q 14.796875 17.390625 18.875 11.75 
Q 22.953125 6.109375 30.078125 6.109375 
Q 37.203125 6.109375 41.296875 11.75 
Q 45.40625 17.390625 45.40625 27.296875 
Q 45.40625 37.203125 41.296875 42.84375 
Q 37.203125 48.484375 30.078125 48.484375 
Q 22.953125 48.484375 18.875 42.84375 
Q 14.796875 37.203125 14.796875 27.296875 
z
" id="DejaVuSans-100"/>
      <path d="M 48.6875 27.296875 
Q 48.6875 37.203125 44.609375 42.84375 
Q 40.53125 48.484375 33.40625 48.484375 
Q 26.265625 48.484375 22.1875 42.84375 
Q 18.109375 37.203125 18.109375 27.296875 
Q 18.109375 17.390625 22.1875 11.75 
Q 26.265625 6.109375 33.40625 6.109375 
Q 40.53125 6.109375 44.609375 11.75 
Q 48.6875 17.390625 48.6875 27.296875 
z
M 18.109375 46.390625 
Q 20.953125 51.265625 25.265625 53.625 
Q 29.59375 56 35.59375 56 
Q 45.5625 56 51.78125 48.09375 
Q 58.015625 40.1875 58.015625 27.296875 
Q 58.015625 14.40625 51.78125 6.484375 
Q 45.5625 -1.421875 35.59375 -1.421875 
Q 29.59375 -1.421875 25.265625 0.953125 
Q 20.953125 3.328125 18.109375 8.203125 
L 18.109375 0 
L 9.078125 0 
L 9.078125 75.984375 
L 18.109375 75.984375 
z
" id="DejaVuSans-98"/>
      <path d="M 45.40625 27.984375 
Q 45.40625 37.75 41.375 43.109375 
Q 37.359375 48.484375 30.078125 48.484375 
Q 22.859375 48.484375 18.828125 43.109375 
Q 14.796875 37.75 14.796875 27.984375 
Q 14.796875 18.265625 18.828125 12.890625 
Q 22.859375 7.515625 30.078125 7.515625 
Q 37.359375 7.515625 41.375 12.890625 
Q 45.40625 18.265625 45.40625 27.984375 
z
M 54.390625 6.78125 
Q 54.390625 -7.171875 48.1875 -13.984375 
Q 42 -20.796875 29.203125 -20.796875 
Q 24.46875 -20.796875 20.265625 -20.09375 
Q 16.0625 -19.390625 12.109375 -17.921875 
L 12.109375 -9.1875 
Q 16.0625 -11.328125 19.921875 -12.34375 
Q 23.78125 -13.375 27.78125 -13.375 
Q 36.625 -13.375 41.015625 -8.765625 
Q 45.40625 -4.15625 45.40625 5.171875 
L 45.40625 9.625 
Q 42.625 4.78125 38.28125 2.390625 
Q 33.9375 0 27.875 0 
Q 17.828125 0 11.671875 7.65625 
Q 5.515625 15.328125 5.515625 27.984375 
Q 5.515625 40.671875 11.671875 48.328125 
Q 17.828125 56 27.875 56 
Q 33.9375 56 38.28125 53.609375 
Q 42.625 51.21875 45.40625 46.390625 
L 45.40625 54.6875 
L 54.390625 54.6875 
z
" id="DejaVuSans-103"/>
      <path d="M 54.890625 33.015625 
L 54.890625 0 
L 45.90625 0 
L 45.90625 32.71875 
Q 45.90625 40.484375 42.875 44.328125 
Q 39.84375 48.1875 33.796875 48.1875 
Q 26.515625 48.1875 22.3125 43.546875 
Q 18.109375 38.921875 18.109375 30.90625 
L 18.109375 0 
L 9.078125 0 
L 9.078125 75.984375 
L 18.109375 75.984375 
L 18.109375 46.1875 
Q 21.34375 51.125 25.703125 53.5625 
Q 30.078125 56 35.796875 56 
Q 45.21875 56 50.046875 50.171875 
Q 54.890625 44.34375 54.890625 33.015625 
z
" id="DejaVuSans-104"/>
      <path d="M 9.421875 75.984375 
L 18.40625 75.984375 
L 18.40625 0 
L 9.421875 0 
z
" id="DejaVuSans-108"/>
     </defs>
     <use xlink:href="#DejaVuSans-68"/>
     <use x="77.001953" xlink:href="#DejaVuSans-111"/>
     <use x="138.183594" xlink:href="#DejaVuSans-99"/>
     <use x="193.164062" xlink:href="#DejaVuSans-107"/>
     <use x="251.074219" xlink:href="#DejaVuSans-81"/>
     <use x="329.785156" xlink:href="#DejaVuSans-32"/>
     <use x="361.572266" xlink:href="#DejaVuSans-97"/>
     <use x="422.851562" xlink:href="#DejaVuSans-110"/>
     <use x="486.230469" xlink:href="#DejaVuSans-100"/>
     <use x="549.707031" xlink:href="#DejaVuSans-32"/>
     <use x="581.494141" xlink:href="#DejaVuSans-98"/>
     <use x="644.970703" xlink:href="#DejaVuSans-105"/>
     <use x="672.753906" xlink:href="#DejaVuSans-103"/>
     <use x="736.230469" xlink:href="#DejaVuSans-103"/>
     <use x="799.707031" xlink:href="#DejaVuSans-101"/>
     <use x="861.230469" xlink:href="#DejaVuSans-115"/>
     <use x="913.330078" xlink:href="#DejaVuSans-116"/>
     <use x="952.539062" xlink:href="#DejaVuSans-32"/>
     <use x="984.326172" xlink:href="#DejaVuSans-99"/>
     <use x="1039.306641" xlink:href="#DejaVuSans-104"/>
     <use x="1102.685547" xlink:href="#DejaVuSans-97"/>
     <use x="1163.964844" xlink:href="#DejaVuSans-105"/>
     <use x="1191.748047" xlink:href="#DejaVuSans-110"/>
     <use x="1255.126953" xlink:href="#DejaVuSans-32"/>
     <use x="1286.914062" xlink:href="#DejaVuSans-108"/>
     <use x="1314.697266" xlink:href="#DejaVuSans-101"/>
     <use x="1376.220703" xlink:href="#DejaVuSans-110"/>
     <use x="1439.599609" xlink:href="#DejaVuSans-103"/>
     <use x="1503.076172" xlink:href="#DejaVuSans-116"/>
     <use x="1542.285156" xlink:href="#DejaVuSans-104"/>
    </g>
    <!-- for the test set -->
    <g transform="translate(144.02999 35.856)scale(0.12 -0.12)">
     <defs>
      <path d="M 37.109375 75.984375 
L 37.109375 68.5 
L 28.515625 68.5 
Q 23.6875 68.5 21.796875 66.546875 
Q 19.921875 64.59375 19.921875 59.515625 
L 19.921875 54.6875 
L 34.71875 54.6875 
L 34.71875 47.703125 
L 19.921875 47.703125 
L 19.921875 0 
L 10.890625 0 
L 10.890625 47.703125 
L 2.296875 47.703125 
L 2.296875 54.6875 
L 10.890625 54.6875 
L 10.890625 58.5 
Q 10.890625 67.625 15.140625 71.796875 
Q 19.390625 75.984375 28.609375 75.984375 
z
" id="DejaVuSans-102"/>
      <path d="M 41.109375 46.296875 
Q 39.59375 47.171875 37.8125 47.578125 
Q 36.03125 48 33.890625 48 
Q 26.265625 48 22.1875 43.046875 
Q 18.109375 38.09375 18.109375 28.8125 
L 18.109375 0 
L 9.078125 0 
L 9.078125 54.6875 
L 18.109375 54.6875 
L 18.109375 46.1875 
Q 20.953125 51.171875 25.484375 53.578125 
Q 30.03125 56 36.53125 56 
Q 37.453125 56 38.578125 55.875 
Q 39.703125 55.765625 41.0625 55.515625 
z
" id="DejaVuSans-114"/>
     </defs>
     <use xlink:href="#DejaVuSans-102"/>
     <use x="35.205078" xlink:href="#DejaVuSans-111"/>
     <use x="96.386719" xlink:href="#DejaVuSans-114"/>
     <use x="137.5" xlink:href="#DejaVuSans-32"/>
     <use x="169.287109" xlink:href="#DejaVuSans-116"/>
     <use x="208.496094" xlink:href="#DejaVuSans-104"/>
     <use x="271.875" xlink:href="#DejaVuSans-101"/>
     <use x="333.398438" xlink:href="#DejaVuSans-32"/>
     <use x="365.185547" xlink:href="#DejaVuSans-116"/>
     <use x="404.394531" xlink:href="#DejaVuSans-101"/>
     <use x="465.917969" xlink:href="#DejaVuSans-115"/>
     <use x="518.017578" xlink:href="#DejaVuSans-116"/>
     <use x="557.226562" xlink:href="#DejaVuSans-32"/>
     <use x="589.013672" xlink:href="#DejaVuSans-115"/>
     <use x="641.113281" xlink:href="#DejaVuSans-101"/>
     <use x="702.636719" xlink:href="#DejaVuSans-116"/>
    </g>
   </g>
   <g id="legend_1">
    <g id="patch_5">
     <path d="M 92.306709 293.19748 
L 284.770771 293.19748 
Q 286.770771 293.19748 286.770771 291.19748 
L 286.770771 248.163105 
Q 286.770771 246.163105 284.770771 246.163105 
L 92.306709 246.163105 
Q 90.306709 246.163105 90.306709 248.163105 
L 90.306709 291.19748 
Q 90.306709 293.19748 92.306709 293.19748 
z
" style="fill:#ffffff;opacity:0.8;stroke:#cccccc;stroke-linejoin:miter;"/>
    </g>
    <g id="line2d_20">
     <path d="M 94.306709 254.261543 
L 114.306709 254.261543 
" style="fill:none;stroke:#1f77b4;stroke-linecap:square;stroke-width:1.5;"/>
    </g>
    <g id="line2d_21"/>
    <g id="text_20">
     <!-- 36-196.0 : 67.6 % successful -->
     <g transform="translate(122.306709 257.761543)scale(0.1 -0.1)">
      <defs>
       <path d="M 40.578125 39.3125 
Q 47.65625 37.796875 51.625 33 
Q 55.609375 28.21875 55.609375 21.1875 
Q 55.609375 10.40625 48.1875 4.484375 
Q 40.765625 -1.421875 27.09375 -1.421875 
Q 22.515625 -1.421875 17.65625 -0.515625 
Q 12.796875 0.390625 7.625 2.203125 
L 7.625 11.71875 
Q 11.71875 9.328125 16.59375 8.109375 
Q 21.484375 6.890625 26.8125 6.890625 
Q 36.078125 6.890625 40.9375 10.546875 
Q 45.796875 14.203125 45.796875 21.1875 
Q 45.796875 27.640625 41.28125 31.265625 
Q 36.765625 34.90625 28.71875 34.90625 
L 20.21875 34.90625 
L 20.21875 43.015625 
L 29.109375 43.015625 
Q 36.375 43.015625 40.234375 45.921875 
Q 44.09375 48.828125 44.09375 54.296875 
Q 44.09375 59.90625 40.109375 62.90625 
Q 36.140625 65.921875 28.71875 65.921875 
Q 24.65625 65.921875 20.015625 65.03125 
Q 15.375 64.15625 9.8125 62.3125 
L 9.8125 71.09375 
Q 15.4375 72.65625 20.34375 73.4375 
Q 25.25 74.21875 29.59375 74.21875 
Q 40.828125 74.21875 47.359375 69.109375 
Q 53.90625 64.015625 53.90625 55.328125 
Q 53.90625 49.265625 50.4375 45.09375 
Q 46.96875 40.921875 40.578125 39.3125 
z
" id="DejaVuSans-51"/>
       <path d="M 4.890625 31.390625 
L 31.203125 31.390625 
L 31.203125 23.390625 
L 4.890625 23.390625 
z
" id="DejaVuSans-45"/>
       <path d="M 10.984375 1.515625 
L 10.984375 10.5 
Q 14.703125 8.734375 18.5 7.8125 
Q 22.3125 6.890625 25.984375 6.890625 
Q 35.75 6.890625 40.890625 13.453125 
Q 46.046875 20.015625 46.78125 33.40625 
Q 43.953125 29.203125 39.59375 26.953125 
Q 35.25 24.703125 29.984375 24.703125 
Q 19.046875 24.703125 12.671875 31.3125 
Q 6.296875 37.9375 6.296875 49.421875 
Q 6.296875 60.640625 12.9375 67.421875 
Q 19.578125 74.21875 30.609375 74.21875 
Q 43.265625 74.21875 49.921875 64.515625 
Q 56.59375 54.828125 56.59375 36.375 
Q 56.59375 19.140625 48.40625 8.859375 
Q 40.234375 -1.421875 26.421875 -1.421875 
Q 22.703125 -1.421875 18.890625 -0.6875 
Q 15.09375 0.046875 10.984375 1.515625 
z
M 30.609375 32.421875 
Q 37.25 32.421875 41.125 36.953125 
Q 45.015625 41.5 45.015625 49.421875 
Q 45.015625 57.28125 41.125 61.84375 
Q 37.25 66.40625 30.609375 66.40625 
Q 23.96875 66.40625 20.09375 61.84375 
Q 16.21875 57.28125 16.21875 49.421875 
Q 16.21875 41.5 20.09375 36.953125 
Q 23.96875 32.421875 30.609375 32.421875 
z
" id="DejaVuSans-57"/>
       <path d="M 11.71875 12.40625 
L 22.015625 12.40625 
L 22.015625 0 
L 11.71875 0 
z
M 11.71875 51.703125 
L 22.015625 51.703125 
L 22.015625 39.3125 
L 11.71875 39.3125 
z
" id="DejaVuSans-58"/>
       <path d="M 8.203125 72.90625 
L 55.078125 72.90625 
L 55.078125 68.703125 
L 28.609375 0 
L 18.3125 0 
L 43.21875 64.59375 
L 8.203125 64.59375 
z
" id="DejaVuSans-55"/>
       <path d="M 72.703125 32.078125 
Q 68.453125 32.078125 66.03125 28.46875 
Q 63.625 24.859375 63.625 18.40625 
Q 63.625 12.0625 66.03125 8.421875 
Q 68.453125 4.78125 72.703125 4.78125 
Q 76.859375 4.78125 79.265625 8.421875 
Q 81.6875 12.0625 81.6875 18.40625 
Q 81.6875 24.8125 79.265625 28.4375 
Q 76.859375 32.078125 72.703125 32.078125 
z
M 72.703125 38.28125 
Q 80.421875 38.28125 84.953125 32.90625 
Q 89.5 27.546875 89.5 18.40625 
Q 89.5 9.28125 84.9375 3.921875 
Q 80.375 -1.421875 72.703125 -1.421875 
Q 64.890625 -1.421875 60.34375 3.921875 
Q 55.8125 9.28125 55.8125 18.40625 
Q 55.8125 27.59375 60.375 32.9375 
Q 64.9375 38.28125 72.703125 38.28125 
z
M 22.3125 68.015625 
Q 18.109375 68.015625 15.6875 64.375 
Q 13.28125 60.75 13.28125 54.390625 
Q 13.28125 47.953125 15.671875 44.328125 
Q 18.0625 40.71875 22.3125 40.71875 
Q 26.5625 40.71875 28.96875 44.328125 
Q 31.390625 47.953125 31.390625 54.390625 
Q 31.390625 60.6875 28.953125 64.34375 
Q 26.515625 68.015625 22.3125 68.015625 
z
M 66.40625 74.21875 
L 74.21875 74.21875 
L 28.609375 -1.421875 
L 20.796875 -1.421875 
z
M 22.3125 74.21875 
Q 30.03125 74.21875 34.609375 68.875 
Q 39.203125 63.53125 39.203125 54.390625 
Q 39.203125 45.171875 34.640625 39.84375 
Q 30.078125 34.515625 22.3125 34.515625 
Q 14.546875 34.515625 10.03125 39.859375 
Q 5.515625 45.21875 5.515625 54.390625 
Q 5.515625 63.484375 10.046875 68.84375 
Q 14.59375 74.21875 22.3125 74.21875 
z
" id="DejaVuSans-37"/>
       <path d="M 8.5 21.578125 
L 8.5 54.6875 
L 17.484375 54.6875 
L 17.484375 21.921875 
Q 17.484375 14.15625 20.5 10.265625 
Q 23.53125 6.390625 29.59375 6.390625 
Q 36.859375 6.390625 41.078125 11.03125 
Q 45.3125 15.671875 45.3125 23.6875 
L 45.3125 54.6875 
L 54.296875 54.6875 
L 54.296875 0 
L 45.3125 0 
L 45.3125 8.40625 
Q 42.046875 3.421875 37.71875 1 
Q 33.40625 -1.421875 27.6875 -1.421875 
Q 18.265625 -1.421875 13.375 4.4375 
Q 8.5 10.296875 8.5 21.578125 
z
M 31.109375 56 
z
" id="DejaVuSans-117"/>
      </defs>
      <use xlink:href="#DejaVuSans-51"/>
      <use x="63.623047" xlink:href="#DejaVuSans-54"/>
      <use x="127.246094" xlink:href="#DejaVuSans-45"/>
      <use x="163.330078" xlink:href="#DejaVuSans-49"/>
      <use x="226.953125" xlink:href="#DejaVuSans-57"/>
      <use x="290.576172" xlink:href="#DejaVuSans-54"/>
      <use x="354.199219" xlink:href="#DejaVuSans-46"/>
      <use x="385.986328" xlink:href="#DejaVuSans-48"/>
      <use x="449.609375" xlink:href="#DejaVuSans-32"/>
      <use x="481.396484" xlink:href="#DejaVuSans-58"/>
      <use x="515.087891" xlink:href="#DejaVuSans-32"/>
      <use x="546.875" xlink:href="#DejaVuSans-54"/>
      <use x="610.498047" xlink:href="#DejaVuSans-55"/>
      <use x="674.121094" xlink:href="#DejaVuSans-46"/>
      <use x="705.908203" xlink:href="#DejaVuSans-54"/>
      <use x="769.53125" xlink:href="#DejaVuSans-32"/>
      <use x="801.318359" xlink:href="#DejaVuSans-37"/>
      <use x="896.337891" xlink:href="#DejaVuSans-32"/>
      <use x="928.125" xlink:href="#DejaVuSans-115"/>
      <use x="980.224609" xlink:href="#DejaVuSans-117"/>
      <use x="1043.603516" xlink:href="#DejaVuSans-99"/>
      <use x="1098.583984" xlink:href="#DejaVuSans-99"/>
      <use x="1153.564453" xlink:href="#DejaVuSans-101"/>
      <use x="1215.087891" xlink:href="#DejaVuSans-115"/>
      <use x="1267.1875" xlink:href="#DejaVuSans-115"/>
      <use x="1319.287109" xlink:href="#DejaVuSans-102"/>
      <use x="1354.492188" xlink:href="#DejaVuSans-117"/>
      <use x="1417.871094" xlink:href="#DejaVuSans-108"/>
     </g>
    </g>
    <g id="line2d_22">
     <path d="M 94.306709 268.939668 
L 114.306709 268.939668 
" style="fill:none;stroke:#ff7f0e;stroke-linecap:square;stroke-width:1.5;"/>
    </g>
    <g id="line2d_23"/>
    <g id="text_21">
     <!-- 196.0-359.0 : 61.3 % successful -->
     <g transform="translate(122.306709 272.439668)scale(0.1 -0.1)">
      <defs>
       <path d="M 10.796875 72.90625 
L 49.515625 72.90625 
L 49.515625 64.59375 
L 19.828125 64.59375 
L 19.828125 46.734375 
Q 21.96875 47.46875 24.109375 47.828125 
Q 26.265625 48.1875 28.421875 48.1875 
Q 40.625 48.1875 47.75 41.5 
Q 54.890625 34.8125 54.890625 23.390625 
Q 54.890625 11.625 47.5625 5.09375 
Q 40.234375 -1.421875 26.90625 -1.421875 
Q 22.3125 -1.421875 17.546875 -0.640625 
Q 12.796875 0.140625 7.71875 1.703125 
L 7.71875 11.625 
Q 12.109375 9.234375 16.796875 8.0625 
Q 21.484375 6.890625 26.703125 6.890625 
Q 35.15625 6.890625 40.078125 11.328125 
Q 45.015625 15.765625 45.015625 23.390625 
Q 45.015625 31 40.078125 35.4375 
Q 35.15625 39.890625 26.703125 39.890625 
Q 22.75 39.890625 18.8125 39.015625 
Q 14.890625 38.140625 10.796875 36.28125 
z
" id="DejaVuSans-53"/>
      </defs>
      <use xlink:href="#DejaVuSans-49"/>
      <use x="63.623047" xlink:href="#DejaVuSans-57"/>
      <use x="127.246094" xlink:href="#DejaVuSans-54"/>
      <use x="190.869141" xlink:href="#DejaVuSans-46"/>
      <use x="222.65625" xlink:href="#DejaVuSans-48"/>
      <use x="286.279297" xlink:href="#DejaVuSans-45"/>
      <use x="322.363281" xlink:href="#DejaVuSans-51"/>
      <use x="385.986328" xlink:href="#DejaVuSans-53"/>
      <use x="449.609375" xlink:href="#DejaVuSans-57"/>
      <use x="513.232422" xlink:href="#DejaVuSans-46"/>
      <use x="545.019531" xlink:href="#DejaVuSans-48"/>
      <use x="608.642578" xlink:href="#DejaVuSans-32"/>
      <use x="640.429688" xlink:href="#DejaVuSans-58"/>
      <use x="674.121094" xlink:href="#DejaVuSans-32"/>
      <use x="705.908203" xlink:href="#DejaVuSans-54"/>
      <use x="769.53125" xlink:href="#DejaVuSans-49"/>
      <use x="833.154297" xlink:href="#DejaVuSans-46"/>
      <use x="864.941406" xlink:href="#DejaVuSans-51"/>
      <use x="928.564453" xlink:href="#DejaVuSans-32"/>
      <use x="960.351562" xlink:href="#DejaVuSans-37"/>
      <use x="1055.371094" xlink:href="#DejaVuSans-32"/>
      <use x="1087.158203" xlink:href="#DejaVuSans-115"/>
      <use x="1139.257812" xlink:href="#DejaVuSans-117"/>
      <use x="1202.636719" xlink:href="#DejaVuSans-99"/>
      <use x="1257.617188" xlink:href="#DejaVuSans-99"/>
      <use x="1312.597656" xlink:href="#DejaVuSans-101"/>
      <use x="1374.121094" xlink:href="#DejaVuSans-115"/>
      <use x="1426.220703" xlink:href="#DejaVuSans-115"/>
      <use x="1478.320312" xlink:href="#DejaVuSans-102"/>
      <use x="1513.525391" xlink:href="#DejaVuSans-117"/>
      <use x="1576.904297" xlink:href="#DejaVuSans-108"/>
     </g>
    </g>
    <g id="line2d_24">
     <path d="M 94.306709 283.617793 
L 114.306709 283.617793 
" style="fill:none;stroke:#2ca02c;stroke-linecap:square;stroke-width:1.5;"/>
    </g>
    <g id="line2d_25"/>
    <g id="text_22">
     <!-- 359.0-1150 : 62.0 % successful -->
     <g transform="translate(122.306709 287.117793)scale(0.1 -0.1)">
      <use xlink:href="#DejaVuSans-51"/>
      <use x="63.623047" xlink:href="#DejaVuSans-53"/>
      <use x="127.246094" xlink:href="#DejaVuSans-57"/>
      <use x="190.869141" xlink:href="#DejaVuSans-46"/>
      <use x="222.65625" xlink:href="#DejaVuSans-48"/>
      <use x="286.279297" xlink:href="#DejaVuSans-45"/>
      <use x="322.363281" xlink:href="#DejaVuSans-49"/>
      <use x="385.986328" xlink:href="#DejaVuSans-49"/>
      <use x="449.609375" xlink:href="#DejaVuSans-53"/>
      <use x="513.232422" xlink:href="#DejaVuSans-48"/>
      <use x="576.855469" xlink:href="#DejaVuSans-32"/>
      <use x="608.642578" xlink:href="#DejaVuSans-58"/>
      <use x="642.333984" xlink:href="#DejaVuSans-32"/>
      <use x="674.121094" xlink:href="#DejaVuSans-54"/>
      <use x="737.744141" xlink:href="#DejaVuSans-50"/>
      <use x="801.367188" xlink:href="#DejaVuSans-46"/>
      <use x="833.154297" xlink:href="#DejaVuSans-48"/>
      <use x="896.777344" xlink:href="#DejaVuSans-32"/>
      <use x="928.564453" xlink:href="#DejaVuSans-37"/>
      <use x="1023.583984" xlink:href="#DejaVuSans-32"/>
      <use x="1055.371094" xlink:href="#DejaVuSans-115"/>
      <use x="1107.470703" xlink:href="#DejaVuSans-117"/>
      <use x="1170.849609" xlink:href="#DejaVuSans-99"/>
      <use x="1225.830078" xlink:href="#DejaVuSans-99"/>
      <use x="1280.810547" xlink:href="#DejaVuSans-101"/>
      <use x="1342.333984" xlink:href="#DejaVuSans-115"/>
      <use x="1394.433594" xlink:href="#DejaVuSans-115"/>
      <use x="1446.533203" xlink:href="#DejaVuSans-102"/>
      <use x="1481.738281" xlink:href="#DejaVuSans-117"/>
      <use x="1545.117188" xlink:href="#DejaVuSans-108"/>
     </g>
    </g>
   </g>
  </g>
 </g>
 <defs>
  <clipPath id="p70978f0abf">
   <rect height="256.34148" width="281.63748" x="47.72" y="41.856"/>
  </clipPath>
 </defs>
</svg>
