<?xml version="1.0" encoding="utf-8" standalone="no"?>
<!DOCTYPE svg PUBLIC "-//W3C//DTD SVG 1.1//EN"
  "http://www.w3.org/Graphics/SVG/1.1/DTD/svg11.dtd">
<!-- Created with matplotlib (https://matplotlib.org/) -->
<svg height="170.07874pt" version="1.1" viewBox="0 0 170.07874 170.07874" width="170.07874pt" xmlns="http://www.w3.org/2000/svg" xmlns:xlink="http://www.w3.org/1999/xlink">
 <metadata>
  <rdf:RDF xmlns:cc="http://creativecommons.org/ns#" xmlns:dc="http://purl.org/dc/elements/1.1/" xmlns:rdf="http://www.w3.org/1999/02/22-rdf-syntax-ns#">
   <cc:Work>
    <dc:type rdf:resource="http://purl.org/dc/dcmitype/StillImage"/>
    <dc:date>2022-02-08T16:42:10.972984</dc:date>
    <dc:format>image/svg+xml</dc:format>
    <dc:creator>
     <cc:Agent>
      <dc:title>Matplotlib v3.3.2, https://matplotlib.org/</dc:title>
     </cc:Agent>
    </dc:creator>
   </cc:Work>
  </rdf:RDF>
 </metadata>
 <defs>
  <style type="text/css">*{stroke-linecap:butt;stroke-linejoin:round;}</style>
 </defs>
 <g id="figure_1">
  <g id="patch_1">
   <path d="M 0 170.07874 
L 170.07874 170.07874 
L 170.07874 0 
L 0 0 
z
" style="fill:#ffffff;"/>
  </g>
  <g id="axes_1">
   <g id="patch_2">
    <path d="M 50.24 130.63874 
L 160.35874 130.63874 
L 160.35874 9.72 
L 50.24 9.72 
z
" style="fill:#ffffff;"/>
   </g>
   <g id="patch_3">
    <path clip-path="url(#p3dc92fd725)" d="M 65.971249 130.63874 
L 69.812545 130.63874 
L 69.812545 110.465934 
L 65.971249 110.465934 
z
" style="fill:#00008b;opacity:0.75;"/>
   </g>
   <g id="patch_4">
    <path clip-path="url(#p3dc92fd725)" d="M 69.812545 130.63874 
L 73.653841 130.63874 
L 73.653841 130.63874 
L 69.812545 130.63874 
z
" style="fill:#00008b;opacity:0.75;"/>
   </g>
   <g id="patch_5">
    <path clip-path="url(#p3dc92fd725)" d="M 73.653841 130.63874 
L 77.495138 130.63874 
L 77.495138 130.63874 
L 73.653841 130.63874 
z
" style="fill:#00008b;opacity:0.75;"/>
   </g>
   <g id="patch_6">
    <path clip-path="url(#p3dc92fd725)" d="M 77.495138 130.63874 
L 81.336434 130.63874 
L 81.336434 130.63874 
L 77.495138 130.63874 
z
" style="fill:#00008b;opacity:0.75;"/>
   </g>
   <g id="patch_7">
    <path clip-path="url(#p3dc92fd725)" d="M 81.336434 130.63874 
L 85.177731 130.63874 
L 85.177731 130.63874 
L 81.336434 130.63874 
z
" style="fill:#00008b;opacity:0.75;"/>
   </g>
   <g id="patch_8">
    <path clip-path="url(#p3dc92fd725)" d="M 85.177731 130.63874 
L 89.019027 130.63874 
L 89.019027 130.63874 
L 85.177731 130.63874 
z
" style="fill:#00008b;opacity:0.75;"/>
   </g>
   <g id="patch_9">
    <path clip-path="url(#p3dc92fd725)" d="M 89.019027 130.63874 
L 92.860323 130.63874 
L 92.860323 130.63874 
L 89.019027 130.63874 
z
" style="fill:#00008b;opacity:0.75;"/>
   </g>
   <g id="patch_10">
    <path clip-path="url(#p3dc92fd725)" d="M 92.860323 130.63874 
L 96.70162 130.63874 
L 96.70162 130.63874 
L 92.860323 130.63874 
z
" style="fill:#00008b;opacity:0.75;"/>
   </g>
   <g id="patch_11">
    <path clip-path="url(#p3dc92fd725)" d="M 96.70162 130.63874 
L 100.542916 130.63874 
L 100.542916 130.056832 
L 96.70162 130.056832 
z
" style="fill:#00008b;opacity:0.75;"/>
   </g>
   <g id="patch_12">
    <path clip-path="url(#p3dc92fd725)" d="M 100.542916 130.63874 
L 104.384213 130.63874 
L 104.384213 129.862863 
L 100.542916 129.862863 
z
" style="fill:#00008b;opacity:0.75;"/>
   </g>
   <g id="patch_13">
    <path clip-path="url(#p3dc92fd725)" d="M 104.384213 130.63874 
L 108.225509 130.63874 
L 108.225509 129.280955 
L 104.384213 129.280955 
z
" style="fill:#00008b;opacity:0.75;"/>
   </g>
   <g id="patch_14">
    <path clip-path="url(#p3dc92fd725)" d="M 108.225509 130.63874 
L 112.066805 130.63874 
L 112.066805 126.953324 
L 108.225509 126.953324 
z
" style="fill:#00008b;opacity:0.75;"/>
   </g>
   <g id="patch_15">
    <path clip-path="url(#p3dc92fd725)" d="M 112.066805 130.63874 
L 115.908102 130.63874 
L 115.908102 122.879968 
L 112.066805 122.879968 
z
" style="fill:#00008b;opacity:0.75;"/>
   </g>
   <g id="patch_16">
    <path clip-path="url(#p3dc92fd725)" d="M 115.908102 130.63874 
L 119.749398 130.63874 
L 119.749398 116.285013 
L 115.908102 116.285013 
z
" style="fill:#00008b;opacity:0.75;"/>
   </g>
   <g id="patch_17">
    <path clip-path="url(#p3dc92fd725)" d="M 119.749398 130.63874 
L 123.590695 130.63874 
L 123.590695 113.569442 
L 119.749398 113.569442 
z
" style="fill:#00008b;opacity:0.75;"/>
   </g>
   <g id="patch_18">
    <path clip-path="url(#p3dc92fd725)" d="M 123.590695 130.63874 
L 127.431991 130.63874 
L 127.431991 104.452886 
L 123.590695 104.452886 
z
" style="fill:#00008b;opacity:0.75;"/>
   </g>
   <g id="patch_19">
    <path clip-path="url(#p3dc92fd725)" d="M 127.431991 130.63874 
L 131.273287 130.63874 
L 131.273287 97.469991 
L 127.431991 97.469991 
z
" style="fill:#00008b;opacity:0.75;"/>
   </g>
   <g id="patch_20">
    <path clip-path="url(#p3dc92fd725)" d="M 131.273287 130.63874 
L 135.114584 130.63874 
L 135.114584 82.534356 
L 131.273287 82.534356 
z
" style="fill:#00008b;opacity:0.75;"/>
   </g>
   <g id="patch_21">
    <path clip-path="url(#p3dc92fd725)" d="M 135.114584 130.63874 
L 138.95588 130.63874 
L 138.95588 67.792689 
L 135.114584 67.792689 
z
" style="fill:#00008b;opacity:0.75;"/>
   </g>
   <g id="patch_22">
    <path clip-path="url(#p3dc92fd725)" d="M 138.95588 130.63874 
L 142.797176 130.63874 
L 142.797176 74.969553 
L 138.95588 74.969553 
z
" style="fill:#00008b;opacity:0.75;"/>
   </g>
   <g id="patch_23">
    <path clip-path="url(#p3dc92fd725)" d="M 65.971249 130.63874 
L 69.766651 130.63874 
L 69.766651 15.478035 
L 65.971249 15.478035 
z
" style="fill:#808080;opacity:0.75;"/>
   </g>
   <g id="patch_24">
    <path clip-path="url(#p3dc92fd725)" d="M 69.766651 130.63874 
L 73.562054 130.63874 
L 73.562054 130.63874 
L 69.766651 130.63874 
z
" style="fill:#808080;opacity:0.75;"/>
   </g>
   <g id="patch_25">
    <path clip-path="url(#p3dc92fd725)" d="M 73.562054 130.63874 
L 77.357457 130.63874 
L 77.357457 130.63874 
L 73.562054 130.63874 
z
" style="fill:#808080;opacity:0.75;"/>
   </g>
   <g id="patch_26">
    <path clip-path="url(#p3dc92fd725)" d="M 77.357457 130.63874 
L 81.152859 130.63874 
L 81.152859 130.63874 
L 77.357457 130.63874 
z
" style="fill:#808080;opacity:0.75;"/>
   </g>
   <g id="patch_27">
    <path clip-path="url(#p3dc92fd725)" d="M 81.152859 130.63874 
L 84.948262 130.63874 
L 84.948262 130.63874 
L 81.152859 130.63874 
z
" style="fill:#808080;opacity:0.75;"/>
   </g>
   <g id="patch_28">
    <path clip-path="url(#p3dc92fd725)" d="M 84.948262 130.63874 
L 88.743665 130.63874 
L 88.743665 130.63874 
L 84.948262 130.63874 
z
" style="fill:#808080;opacity:0.75;"/>
   </g>
   <g id="patch_29">
    <path clip-path="url(#p3dc92fd725)" d="M 88.743665 130.63874 
L 92.539068 130.63874 
L 92.539068 130.277411 
L 88.743665 130.277411 
z
" style="fill:#808080;opacity:0.75;"/>
   </g>
   <g id="patch_30">
    <path clip-path="url(#p3dc92fd725)" d="M 92.539068 130.63874 
L 96.33447 130.63874 
L 96.33447 128.935332 
L 92.539068 128.935332 
z
" style="fill:#808080;opacity:0.75;"/>
   </g>
   <g id="patch_31">
    <path clip-path="url(#p3dc92fd725)" d="M 96.33447 130.63874 
L 100.129873 130.63874 
L 100.129873 127.954582 
L 96.33447 127.954582 
z
" style="fill:#808080;opacity:0.75;"/>
   </g>
   <g id="patch_32">
    <path clip-path="url(#p3dc92fd725)" d="M 100.129873 130.63874 
L 103.925276 130.63874 
L 103.925276 127.180306 
L 100.129873 127.180306 
z
" style="fill:#808080;opacity:0.75;"/>
   </g>
   <g id="patch_33">
    <path clip-path="url(#p3dc92fd725)" d="M 103.925276 130.63874 
L 107.720678 130.63874 
L 107.720678 124.341292 
L 103.925276 124.341292 
z
" style="fill:#808080;opacity:0.75;"/>
   </g>
   <g id="patch_34">
    <path clip-path="url(#p3dc92fd725)" d="M 107.720678 130.63874 
L 111.516081 130.63874 
L 111.516081 118.663266 
L 107.720678 118.663266 
z
" style="fill:#808080;opacity:0.75;"/>
   </g>
   <g id="patch_35">
    <path clip-path="url(#p3dc92fd725)" d="M 111.516081 130.63874 
L 115.311484 130.63874 
L 115.311484 111.023739 
L 111.516081 111.023739 
z
" style="fill:#808080;opacity:0.75;"/>
   </g>
   <g id="patch_36">
    <path clip-path="url(#p3dc92fd725)" d="M 115.311484 130.63874 
L 119.106886 130.63874 
L 119.106886 107.203975 
L 115.311484 107.203975 
z
" style="fill:#808080;opacity:0.75;"/>
   </g>
   <g id="patch_37">
    <path clip-path="url(#p3dc92fd725)" d="M 119.106886 130.63874 
L 122.902289 130.63874 
L 122.902289 109.526805 
L 119.106886 109.526805 
z
" style="fill:#808080;opacity:0.75;"/>
   </g>
   <g id="patch_38">
    <path clip-path="url(#p3dc92fd725)" d="M 122.902289 130.63874 
L 126.697692 130.63874 
L 126.697692 107.410449 
L 122.902289 107.410449 
z
" style="fill:#808080;opacity:0.75;"/>
   </g>
   <g id="patch_39">
    <path clip-path="url(#p3dc92fd725)" d="M 126.697692 130.63874 
L 130.493095 130.63874 
L 130.493095 105.190857 
L 126.697692 105.190857 
z
" style="fill:#808080;opacity:0.75;"/>
   </g>
   <g id="patch_40">
    <path clip-path="url(#p3dc92fd725)" d="M 130.493095 130.63874 
L 134.288497 130.63874 
L 134.288497 107.875015 
L 130.493095 107.875015 
z
" style="fill:#808080;opacity:0.75;"/>
   </g>
   <g id="patch_41">
    <path clip-path="url(#p3dc92fd725)" d="M 134.288497 130.63874 
L 138.0839 130.63874 
L 138.0839 115.56616 
L 134.288497 115.56616 
z
" style="fill:#808080;opacity:0.75;"/>
   </g>
   <g id="patch_42">
    <path clip-path="url(#p3dc92fd725)" d="M 138.0839 130.63874 
L 141.879303 130.63874 
L 141.879303 127.69649 
L 138.0839 127.69649 
z
" style="fill:#808080;opacity:0.75;"/>
   </g>
   <g id="matplotlib.axis_1">
    <g id="xtick_1">
     <g id="line2d_1">
      <defs>
       <path d="M 0 0 
L 0 3.5 
" id="md212d1481c" style="stroke:#000000;stroke-width:0.8;"/>
      </defs>
      <g>
       <use style="stroke:#000000;stroke-width:0.8;" x="65.971249" xlink:href="#md212d1481c" y="130.63874"/>
      </g>
     </g>
     <g id="text_1">
      <!-- 0 -->
      <g transform="translate(63.108124 144.477334)scale(0.09 -0.09)">
       <defs>
        <path d="M 31.78125 66.40625 
Q 24.171875 66.40625 20.328125 58.90625 
Q 16.5 51.421875 16.5 36.375 
Q 16.5 21.390625 20.328125 13.890625 
Q 24.171875 6.390625 31.78125 6.390625 
Q 39.453125 6.390625 43.28125 13.890625 
Q 47.125 21.390625 47.125 36.375 
Q 47.125 51.421875 43.28125 58.90625 
Q 39.453125 66.40625 31.78125 66.40625 
z
M 31.78125 74.21875 
Q 44.046875 74.21875 50.515625 64.515625 
Q 56.984375 54.828125 56.984375 36.375 
Q 56.984375 17.96875 50.515625 8.265625 
Q 44.046875 -1.421875 31.78125 -1.421875 
Q 19.53125 -1.421875 13.0625 8.265625 
Q 6.59375 17.96875 6.59375 36.375 
Q 6.59375 54.828125 13.0625 64.515625 
Q 19.53125 74.21875 31.78125 74.21875 
z
" id="DejaVuSans-48"/>
       </defs>
       <use xlink:href="#DejaVuSans-48"/>
      </g>
     </g>
    </g>
    <g id="xtick_2">
     <g id="line2d_2">
      <g>
       <use style="stroke:#000000;stroke-width:0.8;" x="105.29937" xlink:href="#md212d1481c" y="130.63874"/>
      </g>
     </g>
     <g id="text_2">
      <!-- 50 -->
      <g transform="translate(99.57312 144.477334)scale(0.09 -0.09)">
       <defs>
        <path d="M 10.796875 72.90625 
L 49.515625 72.90625 
L 49.515625 64.59375 
L 19.828125 64.59375 
L 19.828125 46.734375 
Q 21.96875 47.46875 24.109375 47.828125 
Q 26.265625 48.1875 28.421875 48.1875 
Q 40.625 48.1875 47.75 41.5 
Q 54.890625 34.8125 54.890625 23.390625 
Q 54.890625 11.625 47.5625 5.09375 
Q 40.234375 -1.421875 26.90625 -1.421875 
Q 22.3125 -1.421875 17.546875 -0.640625 
Q 12.796875 0.140625 7.71875 1.703125 
L 7.71875 11.625 
Q 12.109375 9.234375 16.796875 8.0625 
Q 21.484375 6.890625 26.703125 6.890625 
Q 35.15625 6.890625 40.078125 11.328125 
Q 45.015625 15.765625 45.015625 23.390625 
Q 45.015625 31 40.078125 35.4375 
Q 35.15625 39.890625 26.703125 39.890625 
Q 22.75 39.890625 18.8125 39.015625 
Q 14.890625 38.140625 10.796875 36.28125 
z
" id="DejaVuSans-53"/>
       </defs>
       <use xlink:href="#DejaVuSans-53"/>
       <use x="63.623047" xlink:href="#DejaVuSans-48"/>
      </g>
     </g>
    </g>
    <g id="xtick_3">
     <g id="line2d_3">
      <g>
       <use style="stroke:#000000;stroke-width:0.8;" x="144.627492" xlink:href="#md212d1481c" y="130.63874"/>
      </g>
     </g>
     <g id="text_3">
      <!-- 100 -->
      <g transform="translate(136.038117 144.477334)scale(0.09 -0.09)">
       <defs>
        <path d="M 12.40625 8.296875 
L 28.515625 8.296875 
L 28.515625 63.921875 
L 10.984375 60.40625 
L 10.984375 69.390625 
L 28.421875 72.90625 
L 38.28125 72.90625 
L 38.28125 8.296875 
L 54.390625 8.296875 
L 54.390625 0 
L 12.40625 0 
z
" id="DejaVuSans-49"/>
       </defs>
       <use xlink:href="#DejaVuSans-49"/>
       <use x="63.623047" xlink:href="#DejaVuSans-48"/>
       <use x="127.246094" xlink:href="#DejaVuSans-48"/>
      </g>
     </g>
    </g>
    <g id="text_4">
     <!-- IF_plDDT -->
     <g transform="translate(85.348198 157.187646)scale(0.09 -0.09)">
      <defs>
       <path d="M 9.8125 72.90625 
L 19.671875 72.90625 
L 19.671875 0 
L 9.8125 0 
z
" id="DejaVuSans-73"/>
       <path d="M 9.8125 72.90625 
L 51.703125 72.90625 
L 51.703125 64.59375 
L 19.671875 64.59375 
L 19.671875 43.109375 
L 48.578125 43.109375 
L 48.578125 34.8125 
L 19.671875 34.8125 
L 19.671875 0 
L 9.8125 0 
z
" id="DejaVuSans-70"/>
       <path d="M 50.984375 -16.609375 
L 50.984375 -23.578125 
L -0.984375 -23.578125 
L -0.984375 -16.609375 
z
" id="DejaVuSans-95"/>
       <path d="M 18.109375 8.203125 
L 18.109375 -20.796875 
L 9.078125 -20.796875 
L 9.078125 54.6875 
L 18.109375 54.6875 
L 18.109375 46.390625 
Q 20.953125 51.265625 25.265625 53.625 
Q 29.59375 56 35.59375 56 
Q 45.5625 56 51.78125 48.09375 
Q 58.015625 40.1875 58.015625 27.296875 
Q 58.015625 14.40625 51.78125 6.484375 
Q 45.5625 -1.421875 35.59375 -1.421875 
Q 29.59375 -1.421875 25.265625 0.953125 
Q 20.953125 3.328125 18.109375 8.203125 
z
M 48.6875 27.296875 
Q 48.6875 37.203125 44.609375 42.84375 
Q 40.53125 48.484375 33.40625 48.484375 
Q 26.265625 48.484375 22.1875 42.84375 
Q 18.109375 37.203125 18.109375 27.296875 
Q 18.109375 17.390625 22.1875 11.75 
Q 26.265625 6.109375 33.40625 6.109375 
Q 40.53125 6.109375 44.609375 11.75 
Q 48.6875 17.390625 48.6875 27.296875 
z
" id="DejaVuSans-112"/>
       <path d="M 9.421875 75.984375 
L 18.40625 75.984375 
L 18.40625 0 
L 9.421875 0 
z
" id="DejaVuSans-108"/>
       <path d="M 19.671875 64.796875 
L 19.671875 8.109375 
L 31.59375 8.109375 
Q 46.6875 8.109375 53.6875 14.9375 
Q 60.6875 21.78125 60.6875 36.53125 
Q 60.6875 51.171875 53.6875 57.984375 
Q 46.6875 64.796875 31.59375 64.796875 
z
M 9.8125 72.90625 
L 30.078125 72.90625 
Q 51.265625 72.90625 61.171875 64.09375 
Q 71.09375 55.28125 71.09375 36.53125 
Q 71.09375 17.671875 61.125 8.828125 
Q 51.171875 0 30.078125 0 
L 9.8125 0 
z
" id="DejaVuSans-68"/>
       <path d="M -0.296875 72.90625 
L 61.375 72.90625 
L 61.375 64.59375 
L 35.5 64.59375 
L 35.5 0 
L 25.59375 0 
L 25.59375 64.59375 
L -0.296875 64.59375 
z
" id="DejaVuSans-84"/>
      </defs>
      <use xlink:href="#DejaVuSans-73"/>
      <use x="29.492188" xlink:href="#DejaVuSans-70"/>
      <use x="87.011719" xlink:href="#DejaVuSans-95"/>
      <use x="137.011719" xlink:href="#DejaVuSans-112"/>
      <use x="200.488281" xlink:href="#DejaVuSans-108"/>
      <use x="228.271484" xlink:href="#DejaVuSans-68"/>
      <use x="305.273438" xlink:href="#DejaVuSans-68"/>
      <use x="382.275391" xlink:href="#DejaVuSans-84"/>
     </g>
    </g>
   </g>
   <g id="matplotlib.axis_2">
    <g id="ytick_1">
     <g id="line2d_4">
      <defs>
       <path d="M 0 0 
L -3.5 0 
" id="m4c9240d688" style="stroke:#000000;stroke-width:0.8;"/>
      </defs>
      <g>
       <use style="stroke:#000000;stroke-width:0.8;" x="50.24" xlink:href="#m4c9240d688" y="130.63874"/>
      </g>
     </g>
     <g id="text_5">
      <!-- 0.00 -->
      <g transform="translate(23.200938 134.058037)scale(0.09 -0.09)">
       <defs>
        <path d="M 10.6875 12.40625 
L 21 12.40625 
L 21 0 
L 10.6875 0 
z
" id="DejaVuSans-46"/>
       </defs>
       <use xlink:href="#DejaVuSans-48"/>
       <use x="63.623047" xlink:href="#DejaVuSans-46"/>
       <use x="95.410156" xlink:href="#DejaVuSans-48"/>
       <use x="159.033203" xlink:href="#DejaVuSans-48"/>
      </g>
     </g>
    </g>
    <g id="ytick_2">
     <g id="line2d_5">
      <g>
       <use style="stroke:#000000;stroke-width:0.8;" x="50.24" xlink:href="#m4c9240d688" y="102.144608"/>
      </g>
     </g>
     <g id="text_6">
      <!-- 0.02 -->
      <g transform="translate(23.200938 105.563905)scale(0.09 -0.09)">
       <defs>
        <path d="M 19.1875 8.296875 
L 53.609375 8.296875 
L 53.609375 0 
L 7.328125 0 
L 7.328125 8.296875 
Q 12.9375 14.109375 22.625 23.890625 
Q 32.328125 33.6875 34.8125 36.53125 
Q 39.546875 41.84375 41.421875 45.53125 
Q 43.3125 49.21875 43.3125 52.78125 
Q 43.3125 58.59375 39.234375 62.25 
Q 35.15625 65.921875 28.609375 65.921875 
Q 23.96875 65.921875 18.8125 64.3125 
Q 13.671875 62.703125 7.8125 59.421875 
L 7.8125 69.390625 
Q 13.765625 71.78125 18.9375 73 
Q 24.125 74.21875 28.421875 74.21875 
Q 39.75 74.21875 46.484375 68.546875 
Q 53.21875 62.890625 53.21875 53.421875 
Q 53.21875 48.921875 51.53125 44.890625 
Q 49.859375 40.875 45.40625 35.40625 
Q 44.1875 33.984375 37.640625 27.21875 
Q 31.109375 20.453125 19.1875 8.296875 
z
" id="DejaVuSans-50"/>
       </defs>
       <use xlink:href="#DejaVuSans-48"/>
       <use x="63.623047" xlink:href="#DejaVuSans-46"/>
       <use x="95.410156" xlink:href="#DejaVuSans-48"/>
       <use x="159.033203" xlink:href="#DejaVuSans-50"/>
      </g>
     </g>
    </g>
    <g id="ytick_3">
     <g id="line2d_6">
      <g>
       <use style="stroke:#000000;stroke-width:0.8;" x="50.24" xlink:href="#m4c9240d688" y="73.650476"/>
      </g>
     </g>
     <g id="text_7">
      <!-- 0.04 -->
      <g transform="translate(23.200938 77.069773)scale(0.09 -0.09)">
       <defs>
        <path d="M 37.796875 64.3125 
L 12.890625 25.390625 
L 37.796875 25.390625 
z
M 35.203125 72.90625 
L 47.609375 72.90625 
L 47.609375 25.390625 
L 58.015625 25.390625 
L 58.015625 17.1875 
L 47.609375 17.1875 
L 47.609375 0 
L 37.796875 0 
L 37.796875 17.1875 
L 4.890625 17.1875 
L 4.890625 26.703125 
z
" id="DejaVuSans-52"/>
       </defs>
       <use xlink:href="#DejaVuSans-48"/>
       <use x="63.623047" xlink:href="#DejaVuSans-46"/>
       <use x="95.410156" xlink:href="#DejaVuSans-48"/>
       <use x="159.033203" xlink:href="#DejaVuSans-52"/>
      </g>
     </g>
    </g>
    <g id="ytick_4">
     <g id="line2d_7">
      <g>
       <use style="stroke:#000000;stroke-width:0.8;" x="50.24" xlink:href="#m4c9240d688" y="45.156344"/>
      </g>
     </g>
     <g id="text_8">
      <!-- 0.06 -->
      <g transform="translate(23.200938 48.575641)scale(0.09 -0.09)">
       <defs>
        <path d="M 33.015625 40.375 
Q 26.375 40.375 22.484375 35.828125 
Q 18.609375 31.296875 18.609375 23.390625 
Q 18.609375 15.53125 22.484375 10.953125 
Q 26.375 6.390625 33.015625 6.390625 
Q 39.65625 6.390625 43.53125 10.953125 
Q 47.40625 15.53125 47.40625 23.390625 
Q 47.40625 31.296875 43.53125 35.828125 
Q 39.65625 40.375 33.015625 40.375 
z
M 52.59375 71.296875 
L 52.59375 62.3125 
Q 48.875 64.0625 45.09375 64.984375 
Q 41.3125 65.921875 37.59375 65.921875 
Q 27.828125 65.921875 22.671875 59.328125 
Q 17.53125 52.734375 16.796875 39.40625 
Q 19.671875 43.65625 24.015625 45.921875 
Q 28.375 48.1875 33.59375 48.1875 
Q 44.578125 48.1875 50.953125 41.515625 
Q 57.328125 34.859375 57.328125 23.390625 
Q 57.328125 12.15625 50.6875 5.359375 
Q 44.046875 -1.421875 33.015625 -1.421875 
Q 20.359375 -1.421875 13.671875 8.265625 
Q 6.984375 17.96875 6.984375 36.375 
Q 6.984375 53.65625 15.1875 63.9375 
Q 23.390625 74.21875 37.203125 74.21875 
Q 40.921875 74.21875 44.703125 73.484375 
Q 48.484375 72.75 52.59375 71.296875 
z
" id="DejaVuSans-54"/>
       </defs>
       <use xlink:href="#DejaVuSans-48"/>
       <use x="63.623047" xlink:href="#DejaVuSans-46"/>
       <use x="95.410156" xlink:href="#DejaVuSans-48"/>
       <use x="159.033203" xlink:href="#DejaVuSans-54"/>
      </g>
     </g>
    </g>
    <g id="ytick_5">
     <g id="line2d_8">
      <g>
       <use style="stroke:#000000;stroke-width:0.8;" x="50.24" xlink:href="#m4c9240d688" y="16.662212"/>
      </g>
     </g>
     <g id="text_9">
      <!-- 0.08 -->
      <g transform="translate(23.200938 20.081509)scale(0.09 -0.09)">
       <defs>
        <path d="M 31.78125 34.625 
Q 24.75 34.625 20.71875 30.859375 
Q 16.703125 27.09375 16.703125 20.515625 
Q 16.703125 13.921875 20.71875 10.15625 
Q 24.75 6.390625 31.78125 6.390625 
Q 38.8125 6.390625 42.859375 10.171875 
Q 46.921875 13.96875 46.921875 20.515625 
Q 46.921875 27.09375 42.890625 30.859375 
Q 38.875 34.625 31.78125 34.625 
z
M 21.921875 38.8125 
Q 15.578125 40.375 12.03125 44.71875 
Q 8.5 49.078125 8.5 55.328125 
Q 8.5 64.0625 14.71875 69.140625 
Q 20.953125 74.21875 31.78125 74.21875 
Q 42.671875 74.21875 48.875 69.140625 
Q 55.078125 64.0625 55.078125 55.328125 
Q 55.078125 49.078125 51.53125 44.71875 
Q 48 40.375 41.703125 38.8125 
Q 48.828125 37.15625 52.796875 32.3125 
Q 56.78125 27.484375 56.78125 20.515625 
Q 56.78125 9.90625 50.3125 4.234375 
Q 43.84375 -1.421875 31.78125 -1.421875 
Q 19.734375 -1.421875 13.25 4.234375 
Q 6.78125 9.90625 6.78125 20.515625 
Q 6.78125 27.484375 10.78125 32.3125 
Q 14.796875 37.15625 21.921875 38.8125 
z
M 18.3125 54.390625 
Q 18.3125 48.734375 21.84375 45.5625 
Q 25.390625 42.390625 31.78125 42.390625 
Q 38.140625 42.390625 41.71875 45.5625 
Q 45.3125 48.734375 45.3125 54.390625 
Q 45.3125 60.0625 41.71875 63.234375 
Q 38.140625 66.40625 31.78125 66.40625 
Q 25.390625 66.40625 21.84375 63.234375 
Q 18.3125 60.0625 18.3125 54.390625 
z
" id="DejaVuSans-56"/>
       </defs>
       <use xlink:href="#DejaVuSans-48"/>
       <use x="63.623047" xlink:href="#DejaVuSans-46"/>
       <use x="95.410156" xlink:href="#DejaVuSans-48"/>
       <use x="159.033203" xlink:href="#DejaVuSans-56"/>
      </g>
     </g>
    </g>
    <g id="text_10">
     <!-- Density -->
     <g transform="translate(17.329219 87.287104)rotate(-90)scale(0.09 -0.09)">
      <defs>
       <path d="M 56.203125 29.59375 
L 56.203125 25.203125 
L 14.890625 25.203125 
Q 15.484375 15.921875 20.484375 11.0625 
Q 25.484375 6.203125 34.421875 6.203125 
Q 39.59375 6.203125 44.453125 7.46875 
Q 49.3125 8.734375 54.109375 11.28125 
L 54.109375 2.78125 
Q 49.265625 0.734375 44.1875 -0.34375 
Q 39.109375 -1.421875 33.890625 -1.421875 
Q 20.796875 -1.421875 13.15625 6.1875 
Q 5.515625 13.8125 5.515625 26.8125 
Q 5.515625 40.234375 12.765625 48.109375 
Q 20.015625 56 32.328125 56 
Q 43.359375 56 49.78125 48.890625 
Q 56.203125 41.796875 56.203125 29.59375 
z
M 47.21875 32.234375 
Q 47.125 39.59375 43.09375 43.984375 
Q 39.0625 48.390625 32.421875 48.390625 
Q 24.90625 48.390625 20.390625 44.140625 
Q 15.875 39.890625 15.1875 32.171875 
z
" id="DejaVuSans-101"/>
       <path d="M 54.890625 33.015625 
L 54.890625 0 
L 45.90625 0 
L 45.90625 32.71875 
Q 45.90625 40.484375 42.875 44.328125 
Q 39.84375 48.1875 33.796875 48.1875 
Q 26.515625 48.1875 22.3125 43.546875 
Q 18.109375 38.921875 18.109375 30.90625 
L 18.109375 0 
L 9.078125 0 
L 9.078125 54.6875 
L 18.109375 54.6875 
L 18.109375 46.1875 
Q 21.34375 51.125 25.703125 53.5625 
Q 30.078125 56 35.796875 56 
Q 45.21875 56 50.046875 50.171875 
Q 54.890625 44.34375 54.890625 33.015625 
z
" id="DejaVuSans-110"/>
       <path d="M 44.28125 53.078125 
L 44.28125 44.578125 
Q 40.484375 46.53125 36.375 47.5 
Q 32.28125 48.484375 27.875 48.484375 
Q 21.1875 48.484375 17.84375 46.4375 
Q 14.5 44.390625 14.5 40.28125 
Q 14.5 37.15625 16.890625 35.375 
Q 19.28125 33.59375 26.515625 31.984375 
L 29.59375 31.296875 
Q 39.15625 29.25 43.1875 25.515625 
Q 47.21875 21.78125 47.21875 15.09375 
Q 47.21875 7.46875 41.1875 3.015625 
Q 35.15625 -1.421875 24.609375 -1.421875 
Q 20.21875 -1.421875 15.453125 -0.5625 
Q 10.6875 0.296875 5.421875 2 
L 5.421875 11.28125 
Q 10.40625 8.6875 15.234375 7.390625 
Q 20.0625 6.109375 24.8125 6.109375 
Q 31.15625 6.109375 34.5625 8.28125 
Q 37.984375 10.453125 37.984375 14.40625 
Q 37.984375 18.0625 35.515625 20.015625 
Q 33.0625 21.96875 24.703125 23.78125 
L 21.578125 24.515625 
Q 13.234375 26.265625 9.515625 29.90625 
Q 5.8125 33.546875 5.8125 39.890625 
Q 5.8125 47.609375 11.28125 51.796875 
Q 16.75 56 26.8125 56 
Q 31.78125 56 36.171875 55.265625 
Q 40.578125 54.546875 44.28125 53.078125 
z
" id="DejaVuSans-115"/>
       <path d="M 9.421875 54.6875 
L 18.40625 54.6875 
L 18.40625 0 
L 9.421875 0 
z
M 9.421875 75.984375 
L 18.40625 75.984375 
L 18.40625 64.59375 
L 9.421875 64.59375 
z
" id="DejaVuSans-105"/>
       <path d="M 18.3125 70.21875 
L 18.3125 54.6875 
L 36.8125 54.6875 
L 36.8125 47.703125 
L 18.3125 47.703125 
L 18.3125 18.015625 
Q 18.3125 11.328125 20.140625 9.421875 
Q 21.96875 7.515625 27.59375 7.515625 
L 36.8125 7.515625 
L 36.8125 0 
L 27.59375 0 
Q 17.1875 0 13.234375 3.875 
Q 9.28125 7.765625 9.28125 18.015625 
L 9.28125 47.703125 
L 2.6875 47.703125 
L 2.6875 54.6875 
L 9.28125 54.6875 
L 9.28125 70.21875 
z
" id="DejaVuSans-116"/>
       <path d="M 32.171875 -5.078125 
Q 28.375 -14.84375 24.75 -17.8125 
Q 21.140625 -20.796875 15.09375 -20.796875 
L 7.90625 -20.796875 
L 7.90625 -13.28125 
L 13.1875 -13.28125 
Q 16.890625 -13.28125 18.9375 -11.515625 
Q 21 -9.765625 23.484375 -3.21875 
L 25.09375 0.875 
L 2.984375 54.6875 
L 12.5 54.6875 
L 29.59375 11.921875 
L 46.6875 54.6875 
L 56.203125 54.6875 
z
" id="DejaVuSans-121"/>
      </defs>
      <use xlink:href="#DejaVuSans-68"/>
      <use x="77.001953" xlink:href="#DejaVuSans-101"/>
      <use x="138.525391" xlink:href="#DejaVuSans-110"/>
      <use x="201.904297" xlink:href="#DejaVuSans-115"/>
      <use x="254.003906" xlink:href="#DejaVuSans-105"/>
      <use x="281.787109" xlink:href="#DejaVuSans-116"/>
      <use x="320.996094" xlink:href="#DejaVuSans-121"/>
     </g>
    </g>
   </g>
   <g id="patch_43">
    <path d="M 50.24 130.63874 
L 50.24 9.72 
" style="fill:none;stroke:#000000;stroke-linecap:square;stroke-linejoin:miter;stroke-width:0.8;"/>
   </g>
   <g id="patch_44">
    <path d="M 50.24 130.63874 
L 160.35874 130.63874 
" style="fill:none;stroke:#000000;stroke-linecap:square;stroke-linejoin:miter;stroke-width:0.8;"/>
   </g>
   <g id="legend_1">
    <g id="patch_45">
     <path d="M 108.303584 43.340625 
L 154.05874 43.340625 
Q 155.85874 43.340625 155.85874 41.540625 
L 155.85874 16.02 
Q 155.85874 14.22 154.05874 14.22 
L 108.303584 14.22 
Q 106.503584 14.22 106.503584 16.02 
L 106.503584 41.540625 
Q 106.503584 43.340625 108.303584 43.340625 
z
" style="fill:#ffffff;opacity:0.8;stroke:#cccccc;stroke-linejoin:miter;"/>
    </g>
    <g id="patch_46">
     <path d="M 110.103584 24.658594 
L 128.103584 24.658594 
L 128.103584 18.358594 
L 110.103584 18.358594 
z
" style="fill:#00008b;opacity:0.75;"/>
    </g>
    <g id="text_11">
     <!-- pos -->
     <g transform="translate(135.303584 24.658594)scale(0.09 -0.09)">
      <defs>
       <path d="M 30.609375 48.390625 
Q 23.390625 48.390625 19.1875 42.75 
Q 14.984375 37.109375 14.984375 27.296875 
Q 14.984375 17.484375 19.15625 11.84375 
Q 23.34375 6.203125 30.609375 6.203125 
Q 37.796875 6.203125 41.984375 11.859375 
Q 46.1875 17.53125 46.1875 27.296875 
Q 46.1875 37.015625 41.984375 42.703125 
Q 37.796875 48.390625 30.609375 48.390625 
z
M 30.609375 56 
Q 42.328125 56 49.015625 48.375 
Q 55.71875 40.765625 55.71875 27.296875 
Q 55.71875 13.875 49.015625 6.21875 
Q 42.328125 -1.421875 30.609375 -1.421875 
Q 18.84375 -1.421875 12.171875 6.21875 
Q 5.515625 13.875 5.515625 27.296875 
Q 5.515625 40.765625 12.171875 48.375 
Q 18.84375 56 30.609375 56 
z
" id="DejaVuSans-111"/>
      </defs>
      <use xlink:href="#DejaVuSans-112"/>
      <use x="63.476562" xlink:href="#DejaVuSans-111"/>
      <use x="124.658203" xlink:href="#DejaVuSans-115"/>
     </g>
    </g>
    <g id="patch_47">
     <path d="M 110.103584 37.868906 
L 128.103584 37.868906 
L 128.103584 31.568906 
L 110.103584 31.568906 
z
" style="fill:#808080;opacity:0.75;"/>
    </g>
    <g id="text_12">
     <!-- neg -->
     <g transform="translate(135.303584 37.868906)scale(0.09 -0.09)">
      <defs>
       <path d="M 45.40625 27.984375 
Q 45.40625 37.75 41.375 43.109375 
Q 37.359375 48.484375 30.078125 48.484375 
Q 22.859375 48.484375 18.828125 43.109375 
Q 14.796875 37.75 14.796875 27.984375 
Q 14.796875 18.265625 18.828125 12.890625 
Q 22.859375 7.515625 30.078125 7.515625 
Q 37.359375 7.515625 41.375 12.890625 
Q 45.40625 18.265625 45.40625 27.984375 
z
M 54.390625 6.78125 
Q 54.390625 -7.171875 48.1875 -13.984375 
Q 42 -20.796875 29.203125 -20.796875 
Q 24.46875 -20.796875 20.265625 -20.09375 
Q 16.0625 -19.390625 12.109375 -17.921875 
L 12.109375 -9.1875 
Q 16.0625 -11.328125 19.921875 -12.34375 
Q 23.78125 -13.375 27.78125 -13.375 
Q 36.625 -13.375 41.015625 -8.765625 
Q 45.40625 -4.15625 45.40625 5.171875 
L 45.40625 9.625 
Q 42.625 4.78125 38.28125 2.390625 
Q 33.9375 0 27.875 0 
Q 17.828125 0 11.671875 7.65625 
Q 5.515625 15.328125 5.515625 27.984375 
Q 5.515625 40.671875 11.671875 48.328125 
Q 17.828125 56 27.875 56 
Q 33.9375 56 38.28125 53.609375 
Q 42.625 51.21875 45.40625 46.390625 
L 45.40625 54.6875 
L 54.390625 54.6875 
z
" id="DejaVuSans-103"/>
      </defs>
      <use xlink:href="#DejaVuSans-110"/>
      <use x="63.378906" xlink:href="#DejaVuSans-101"/>
      <use x="124.902344" xlink:href="#DejaVuSans-103"/>
     </g>
    </g>
   </g>
  </g>
 </g>
 <defs>
  <clipPath id="p3dc92fd725">
   <rect height="120.91874" width="110.11874" x="50.24" y="9.72"/>
  </clipPath>
 </defs>
</svg>
