<?xml version="1.0" encoding="utf-8" standalone="no"?>
<!DOCTYPE svg PUBLIC "-//W3C//DTD SVG 1.1//EN"
  "http://www.w3.org/Graphics/SVG/1.1/DTD/svg11.dtd">
<!-- Created with matplotlib (https://matplotlib.org/) -->
<svg height="170.07874pt" version="1.1" viewBox="0 0 170.07874 170.07874" width="170.07874pt" xmlns="http://www.w3.org/2000/svg" xmlns:xlink="http://www.w3.org/1999/xlink">
 <metadata>
  <rdf:RDF xmlns:cc="http://creativecommons.org/ns#" xmlns:dc="http://purl.org/dc/elements/1.1/" xmlns:rdf="http://www.w3.org/1999/02/22-rdf-syntax-ns#">
   <cc:Work>
    <dc:type rdf:resource="http://purl.org/dc/dcmitype/StillImage"/>
    <dc:date>2022-02-08T16:42:11.116701</dc:date>
    <dc:format>image/svg+xml</dc:format>
    <dc:creator>
     <cc:Agent>
      <dc:title>Matplotlib v3.3.2, https://matplotlib.org/</dc:title>
     </cc:Agent>
    </dc:creator>
   </cc:Work>
  </rdf:RDF>
 </metadata>
 <defs>
  <style type="text/css">*{stroke-linecap:butt;stroke-linejoin:round;}</style>
 </defs>
 <g id="figure_1">
  <g id="patch_1">
   <path d="M 0 170.07874 
L 170.07874 170.07874 
L 170.07874 0 
L 0 0 
z
" style="fill:#ffffff;"/>
  </g>
  <g id="axes_1">
   <g id="patch_2">
    <path d="M 56 130.63874 
L 160.35874 130.63874 
L 160.35874 9.72 
L 56 9.72 
z
" style="fill:#ffffff;"/>
   </g>
   <g id="patch_3">
    <path clip-path="url(#p783da03c65)" d="M 73.393123 130.63874 
L 76.287339 130.63874 
L 76.287339 35.569959 
L 73.393123 35.569959 
z
" style="fill:#006400;opacity:0.75;"/>
   </g>
   <g id="patch_4">
    <path clip-path="url(#p783da03c65)" d="M 76.287339 130.63874 
L 79.181555 130.63874 
L 79.181555 83.646567 
L 76.287339 83.646567 
z
" style="fill:#006400;opacity:0.75;"/>
   </g>
   <g id="patch_5">
    <path clip-path="url(#p783da03c65)" d="M 79.181555 130.63874 
L 82.075771 130.63874 
L 82.075771 81.477697 
L 79.181555 81.477697 
z
" style="fill:#006400;opacity:0.75;"/>
   </g>
   <g id="patch_6">
    <path clip-path="url(#p783da03c65)" d="M 82.075771 130.63874 
L 84.969986 130.63874 
L 84.969986 74.971089 
L 82.075771 74.971089 
z
" style="fill:#006400;opacity:0.75;"/>
   </g>
   <g id="patch_7">
    <path clip-path="url(#p783da03c65)" d="M 84.969986 130.63874 
L 87.864202 130.63874 
L 87.864202 83.646567 
L 84.969986 83.646567 
z
" style="fill:#006400;opacity:0.75;"/>
   </g>
   <g id="patch_8">
    <path clip-path="url(#p783da03c65)" d="M 87.864202 130.63874 
L 90.758418 130.63874 
L 90.758418 86.899871 
L 87.864202 86.899871 
z
" style="fill:#006400;opacity:0.75;"/>
   </g>
   <g id="patch_9">
    <path clip-path="url(#p783da03c65)" d="M 90.758418 130.63874 
L 93.652633 130.63874 
L 93.652633 90.153176 
L 90.758418 90.153176 
z
" style="fill:#006400;opacity:0.75;"/>
   </g>
   <g id="patch_10">
    <path clip-path="url(#p783da03c65)" d="M 93.652633 130.63874 
L 96.546849 130.63874 
L 96.546849 96.659784 
L 93.652633 96.659784 
z
" style="fill:#006400;opacity:0.75;"/>
   </g>
   <g id="patch_11">
    <path clip-path="url(#p783da03c65)" d="M 96.546849 130.63874 
L 99.441065 130.63874 
L 99.441065 104.973784 
L 96.546849 104.973784 
z
" style="fill:#006400;opacity:0.75;"/>
   </g>
   <g id="patch_12">
    <path clip-path="url(#p783da03c65)" d="M 99.441065 130.63874 
L 102.335281 130.63874 
L 102.335281 109.673001 
L 99.441065 109.673001 
z
" style="fill:#006400;opacity:0.75;"/>
   </g>
   <g id="patch_13">
    <path clip-path="url(#p783da03c65)" d="M 102.335281 130.63874 
L 105.229496 130.63874 
L 105.229496 114.372219 
L 102.335281 114.372219 
z
" style="fill:#006400;opacity:0.75;"/>
   </g>
   <g id="patch_14">
    <path clip-path="url(#p783da03c65)" d="M 105.229496 130.63874 
L 108.123712 130.63874 
L 108.123712 118.348479 
L 105.229496 118.348479 
z
" style="fill:#006400;opacity:0.75;"/>
   </g>
   <g id="patch_15">
    <path clip-path="url(#p783da03c65)" d="M 108.123712 130.63874 
L 111.017928 130.63874 
L 111.017928 123.770653 
L 108.123712 123.770653 
z
" style="fill:#006400;opacity:0.75;"/>
   </g>
   <g id="patch_16">
    <path clip-path="url(#p783da03c65)" d="M 111.017928 130.63874 
L 113.912144 130.63874 
L 113.912144 122.686219 
L 111.017928 122.686219 
z
" style="fill:#006400;opacity:0.75;"/>
   </g>
   <g id="patch_17">
    <path clip-path="url(#p783da03c65)" d="M 113.912144 130.63874 
L 116.806359 130.63874 
L 116.806359 125.578045 
L 113.912144 125.578045 
z
" style="fill:#006400;opacity:0.75;"/>
   </g>
   <g id="patch_18">
    <path clip-path="url(#p783da03c65)" d="M 116.806359 130.63874 
L 119.700575 130.63874 
L 119.700575 122.32474 
L 116.806359 122.32474 
z
" style="fill:#006400;opacity:0.75;"/>
   </g>
   <g id="patch_19">
    <path clip-path="url(#p783da03c65)" d="M 119.700575 130.63874 
L 122.594791 130.63874 
L 122.594791 128.108392 
L 119.700575 128.108392 
z
" style="fill:#006400;opacity:0.75;"/>
   </g>
   <g id="patch_20">
    <path clip-path="url(#p783da03c65)" d="M 122.594791 130.63874 
L 125.489006 130.63874 
L 125.489006 127.023958 
L 122.594791 127.023958 
z
" style="fill:#006400;opacity:0.75;"/>
   </g>
   <g id="patch_21">
    <path clip-path="url(#p783da03c65)" d="M 125.489006 130.63874 
L 128.383222 130.63874 
L 128.383222 128.469871 
L 125.489006 128.469871 
z
" style="fill:#006400;opacity:0.75;"/>
   </g>
   <g id="patch_22">
    <path clip-path="url(#p783da03c65)" d="M 128.383222 130.63874 
L 131.277438 130.63874 
L 131.277438 127.746914 
L 128.383222 127.746914 
z
" style="fill:#006400;opacity:0.75;"/>
   </g>
   <g id="patch_23">
    <path clip-path="url(#p783da03c65)" d="M 131.277438 130.63874 
L 134.171654 130.63874 
L 134.171654 125.216566 
L 131.277438 125.216566 
z
" style="fill:#006400;opacity:0.75;"/>
   </g>
   <g id="patch_24">
    <path clip-path="url(#p783da03c65)" d="M 134.171654 130.63874 
L 137.065869 130.63874 
L 137.065869 128.108392 
L 134.171654 128.108392 
z
" style="fill:#006400;opacity:0.75;"/>
   </g>
   <g id="patch_25">
    <path clip-path="url(#p783da03c65)" d="M 137.065869 130.63874 
L 139.960085 130.63874 
L 139.960085 129.192827 
L 137.065869 129.192827 
z
" style="fill:#006400;opacity:0.75;"/>
   </g>
   <g id="patch_26">
    <path clip-path="url(#p783da03c65)" d="M 139.960085 130.63874 
L 142.854301 130.63874 
L 142.854301 129.554305 
L 139.960085 129.554305 
z
" style="fill:#006400;opacity:0.75;"/>
   </g>
   <g id="patch_27">
    <path clip-path="url(#p783da03c65)" d="M 142.854301 130.63874 
L 145.748517 130.63874 
L 145.748517 129.915784 
L 142.854301 129.915784 
z
" style="fill:#006400;opacity:0.75;"/>
   </g>
   <g id="patch_28">
    <path clip-path="url(#p783da03c65)" d="M 145.748517 130.63874 
L 148.642732 130.63874 
L 148.642732 129.554305 
L 145.748517 129.554305 
z
" style="fill:#006400;opacity:0.75;"/>
   </g>
   <g id="patch_29">
    <path clip-path="url(#p783da03c65)" d="M 148.642732 130.63874 
L 151.536948 130.63874 
L 151.536948 128.469871 
L 148.642732 128.469871 
z
" style="fill:#006400;opacity:0.75;"/>
   </g>
   <g id="patch_30">
    <path clip-path="url(#p783da03c65)" d="M 151.536948 130.63874 
L 154.431164 130.63874 
L 154.431164 130.63874 
L 151.536948 130.63874 
z
" style="fill:#006400;opacity:0.75;"/>
   </g>
   <g id="patch_31">
    <path clip-path="url(#p783da03c65)" d="M 154.431164 130.63874 
L 157.325379 130.63874 
L 157.325379 128.831349 
L 154.431164 128.831349 
z
" style="fill:#006400;opacity:0.75;"/>
   </g>
   <g id="patch_32">
    <path clip-path="url(#p783da03c65)" d="M 157.325379 130.63874 
L 160.219595 130.63874 
L 160.219595 130.63874 
L 157.325379 130.63874 
z
" style="fill:#006400;opacity:0.75;"/>
   </g>
   <g id="patch_33">
    <path clip-path="url(#p783da03c65)" d="M 160.219595 130.63874 
L 163.113811 130.63874 
L 163.113811 130.63874 
L 160.219595 130.63874 
z
" style="fill:#006400;opacity:0.75;"/>
   </g>
   <g id="patch_34">
    <path clip-path="url(#p783da03c65)" d="M 163.113811 130.63874 
L 166.008027 130.63874 
L 166.008027 130.63874 
L 163.113811 130.63874 
z
" style="fill:#006400;opacity:0.75;"/>
   </g>
   <g id="patch_35">
    <path clip-path="url(#p783da03c65)" d="M 166.008027 130.63874 
L 168.902242 130.63874 
L 168.902242 130.63874 
L 166.008027 130.63874 
z
" style="fill:#006400;opacity:0.75;"/>
   </g>
   <g id="patch_36">
    <path clip-path="url(#p783da03c65)" d="M 168.902242 130.63874 
L 171.796458 130.63874 
L 171.796458 130.63874 
L 168.902242 130.63874 
z
" style="fill:#006400;opacity:0.75;"/>
   </g>
   <g id="patch_37">
    <path clip-path="url(#p783da03c65)" d="M 171.796458 130.63874 
L 174.690674 130.63874 
L 174.690674 130.63874 
L 171.796458 130.63874 
z
" style="fill:#006400;opacity:0.75;"/>
   </g>
   <g id="patch_38">
    <path clip-path="url(#p783da03c65)" d="M 174.690674 130.63874 
L 177.58489 130.63874 
L 177.58489 130.63874 
L 174.690674 130.63874 
z
" style="fill:#006400;opacity:0.75;"/>
   </g>
   <g id="patch_39">
    <path clip-path="url(#p783da03c65)" d="M 177.58489 130.63874 
L 180.479105 130.63874 
L 180.479105 130.63874 
L 177.58489 130.63874 
z
" style="fill:#006400;opacity:0.75;"/>
   </g>
   <g id="patch_40">
    <path clip-path="url(#p783da03c65)" d="M 180.479105 130.63874 
L 183.373321 130.63874 
L 183.373321 130.63874 
L 180.479105 130.63874 
z
" style="fill:#006400;opacity:0.75;"/>
   </g>
   <g id="patch_41">
    <path clip-path="url(#p783da03c65)" d="M 183.373321 130.63874 
L 186.267537 130.63874 
L 186.267537 130.63874 
L 183.373321 130.63874 
z
" style="fill:#006400;opacity:0.75;"/>
   </g>
   <g id="patch_42">
    <path clip-path="url(#p783da03c65)" d="M 186.267537 130.63874 
L 189.161752 130.63874 
L 189.161752 130.63874 
L 186.267537 130.63874 
z
" style="fill:#006400;opacity:0.75;"/>
   </g>
   <g id="patch_43">
    <path clip-path="url(#p783da03c65)" d="M 189.161752 130.63874 
L 192.055968 130.63874 
L 192.055968 130.277262 
L 189.161752 130.277262 
z
" style="fill:#006400;opacity:0.75;"/>
   </g>
   <g id="patch_44">
    <path clip-path="url(#p783da03c65)" d="M 192.055968 130.63874 
L 194.950184 130.63874 
L 194.950184 130.63874 
L 192.055968 130.63874 
z
" style="fill:#006400;opacity:0.75;"/>
   </g>
   <g id="patch_45">
    <path clip-path="url(#p783da03c65)" d="M 194.950184 130.63874 
L 197.8444 130.63874 
L 197.8444 130.63874 
L 194.950184 130.63874 
z
" style="fill:#006400;opacity:0.75;"/>
   </g>
   <g id="patch_46">
    <path clip-path="url(#p783da03c65)" d="M 197.8444 130.63874 
L 200.738615 130.63874 
L 200.738615 130.63874 
L 197.8444 130.63874 
z
" style="fill:#006400;opacity:0.75;"/>
   </g>
   <g id="patch_47">
    <path clip-path="url(#p783da03c65)" d="M 200.738615 130.63874 
L 203.632831 130.63874 
L 203.632831 130.63874 
L 200.738615 130.63874 
z
" style="fill:#006400;opacity:0.75;"/>
   </g>
   <g id="patch_48">
    <path clip-path="url(#p783da03c65)" d="M 203.632831 130.63874 
L 206.527047 130.63874 
L 206.527047 130.63874 
L 203.632831 130.63874 
z
" style="fill:#006400;opacity:0.75;"/>
   </g>
   <g id="patch_49">
    <path clip-path="url(#p783da03c65)" d="M 206.527047 130.63874 
L 209.421263 130.63874 
L 209.421263 130.63874 
L 206.527047 130.63874 
z
" style="fill:#006400;opacity:0.75;"/>
   </g>
   <g id="patch_50">
    <path clip-path="url(#p783da03c65)" d="M 209.421263 130.63874 
L 212.315478 130.63874 
L 212.315478 130.63874 
L 209.421263 130.63874 
z
" style="fill:#006400;opacity:0.75;"/>
   </g>
   <g id="patch_51">
    <path clip-path="url(#p783da03c65)" d="M 212.315478 130.63874 
L 215.209694 130.63874 
L 215.209694 130.63874 
L 212.315478 130.63874 
z
" style="fill:#006400;opacity:0.75;"/>
   </g>
   <g id="patch_52">
    <path clip-path="url(#p783da03c65)" d="M 215.209694 130.63874 
L 218.10391 130.63874 
L 218.10391 130.277262 
L 215.209694 130.277262 
z
" style="fill:#006400;opacity:0.75;"/>
   </g>
   <g id="patch_53">
    <path clip-path="url(#p783da03c65)" d="M 73.393123 130.63874 
L 86.284906 130.63874 
L 86.284906 15.478035 
L 73.393123 15.478035 
z
" style="fill:#808080;opacity:0.75;"/>
   </g>
   <g id="patch_54">
    <path clip-path="url(#p783da03c65)" d="M 86.284906 130.63874 
L 99.176689 130.63874 
L 99.176689 125.624331 
L 86.284906 125.624331 
z
" style="fill:#808080;opacity:0.75;"/>
   </g>
   <g id="patch_55">
    <path clip-path="url(#p783da03c65)" d="M 99.176689 130.63874 
L 112.068472 130.63874 
L 112.068472 129.763886 
L 99.176689 129.763886 
z
" style="fill:#808080;opacity:0.75;"/>
   </g>
   <g id="patch_56">
    <path clip-path="url(#p783da03c65)" d="M 112.068472 130.63874 
L 124.960255 130.63874 
L 124.960255 130.297334 
L 112.068472 130.297334 
z
" style="fill:#808080;opacity:0.75;"/>
   </g>
   <g id="patch_57">
    <path clip-path="url(#p783da03c65)" d="M 124.960255 130.63874 
L 137.852039 130.63874 
L 137.852039 130.404023 
L 124.960255 130.404023 
z
" style="fill:#808080;opacity:0.75;"/>
   </g>
   <g id="patch_58">
    <path clip-path="url(#p783da03c65)" d="M 137.852039 130.63874 
L 150.743822 130.63874 
L 150.743822 130.404023 
L 137.852039 130.404023 
z
" style="fill:#808080;opacity:0.75;"/>
   </g>
   <g id="patch_59">
    <path clip-path="url(#p783da03c65)" d="M 150.743822 130.63874 
L 163.635605 130.63874 
L 163.635605 130.617402 
L 150.743822 130.617402 
z
" style="fill:#808080;opacity:0.75;"/>
   </g>
   <g id="patch_60">
    <path clip-path="url(#p783da03c65)" d="M 163.635605 130.63874 
L 176.527388 130.63874 
L 176.527388 130.617402 
L 163.635605 130.617402 
z
" style="fill:#808080;opacity:0.75;"/>
   </g>
   <g id="patch_61">
    <path clip-path="url(#p783da03c65)" d="M 176.527388 130.63874 
L 189.419171 130.63874 
L 189.419171 130.63874 
L 176.527388 130.63874 
z
" style="fill:#808080;opacity:0.75;"/>
   </g>
   <g id="patch_62">
    <path clip-path="url(#p783da03c65)" d="M 189.419171 130.63874 
L 202.310954 130.63874 
L 202.310954 130.63874 
L 189.419171 130.63874 
z
" style="fill:#808080;opacity:0.75;"/>
   </g>
   <g id="patch_63">
    <path clip-path="url(#p783da03c65)" d="M 202.310954 130.63874 
L 215.202737 130.63874 
L 215.202737 130.617402 
L 202.310954 130.617402 
z
" style="fill:#808080;opacity:0.75;"/>
   </g>
   <g id="patch_64">
    <path clip-path="url(#p783da03c65)" d="M 215.202737 130.63874 
L 228.09452 130.63874 
L 228.09452 130.63874 
L 215.202737 130.63874 
z
" style="fill:#808080;opacity:0.75;"/>
   </g>
   <g id="patch_65">
    <path clip-path="url(#p783da03c65)" d="M 228.09452 130.63874 
L 240.986303 130.63874 
L 240.986303 130.63874 
L 228.09452 130.63874 
z
" style="fill:#808080;opacity:0.75;"/>
   </g>
   <g id="patch_66">
    <path clip-path="url(#p783da03c65)" d="M 240.986303 130.63874 
L 253.878086 130.63874 
L 253.878086 130.63874 
L 240.986303 130.63874 
z
" style="fill:#808080;opacity:0.75;"/>
   </g>
   <g id="patch_67">
    <path clip-path="url(#p783da03c65)" d="M 253.878086 130.63874 
L 266.769869 130.63874 
L 266.769869 130.617402 
L 253.878086 130.617402 
z
" style="fill:#808080;opacity:0.75;"/>
   </g>
   <g id="patch_68">
    <path clip-path="url(#p783da03c65)" d="M 266.769869 130.63874 
L 279.661652 130.63874 
L 279.661652 130.617402 
L 266.769869 130.617402 
z
" style="fill:#808080;opacity:0.75;"/>
   </g>
   <g id="patch_69">
    <path clip-path="url(#p783da03c65)" d="M 279.661652 130.63874 
L 292.553435 130.63874 
L 292.553435 130.63874 
L 279.661652 130.63874 
z
" style="fill:#808080;opacity:0.75;"/>
   </g>
   <g id="patch_70">
    <path clip-path="url(#p783da03c65)" d="M 292.553435 130.63874 
L 305.445218 130.63874 
L 305.445218 130.63874 
L 292.553435 130.63874 
z
" style="fill:#808080;opacity:0.75;"/>
   </g>
   <g id="patch_71">
    <path clip-path="url(#p783da03c65)" d="M 305.445218 130.63874 
L 318.337001 130.63874 
L 318.337001 130.63874 
L 305.445218 130.63874 
z
" style="fill:#808080;opacity:0.75;"/>
   </g>
   <g id="patch_72">
    <path clip-path="url(#p783da03c65)" d="M 318.337001 130.63874 
L 331.228784 130.63874 
L 331.228784 130.63874 
L 318.337001 130.63874 
z
" style="fill:#808080;opacity:0.75;"/>
   </g>
   <g id="patch_73">
    <path clip-path="url(#p783da03c65)" d="M 331.228784 130.63874 
L 344.120567 130.63874 
L 344.120567 130.63874 
L 331.228784 130.63874 
z
" style="fill:#808080;opacity:0.75;"/>
   </g>
   <g id="patch_74">
    <path clip-path="url(#p783da03c65)" d="M 344.120567 130.63874 
L 357.01235 130.63874 
L 357.01235 130.596064 
L 344.120567 130.596064 
z
" style="fill:#808080;opacity:0.75;"/>
   </g>
   <g id="patch_75">
    <path clip-path="url(#p783da03c65)" d="M 357.01235 130.63874 
L 369.904133 130.63874 
L 369.904133 130.63874 
L 357.01235 130.63874 
z
" style="fill:#808080;opacity:0.75;"/>
   </g>
   <g id="patch_76">
    <path clip-path="url(#p783da03c65)" d="M 369.904133 130.63874 
L 382.795916 130.63874 
L 382.795916 130.63874 
L 369.904133 130.63874 
z
" style="fill:#808080;opacity:0.75;"/>
   </g>
   <g id="patch_77">
    <path clip-path="url(#p783da03c65)" d="M 382.795916 130.63874 
L 395.687699 130.63874 
L 395.687699 130.63874 
L 382.795916 130.63874 
z
" style="fill:#808080;opacity:0.75;"/>
   </g>
   <g id="patch_78">
    <path clip-path="url(#p783da03c65)" d="M 395.687699 130.63874 
L 408.579482 130.63874 
L 408.579482 130.63874 
L 395.687699 130.63874 
z
" style="fill:#808080;opacity:0.75;"/>
   </g>
   <g id="patch_79">
    <path clip-path="url(#p783da03c65)" d="M 408.579482 130.63874 
L 421.471265 130.63874 
L 421.471265 130.63874 
L 408.579482 130.63874 
z
" style="fill:#808080;opacity:0.75;"/>
   </g>
   <g id="patch_80">
    <path clip-path="url(#p783da03c65)" d="M 421.471265 130.63874 
L 434.363048 130.63874 
L 434.363048 130.617402 
L 421.471265 130.617402 
z
" style="fill:#808080;opacity:0.75;"/>
   </g>
   <g id="patch_81">
    <path clip-path="url(#p783da03c65)" d="M 434.363048 130.63874 
L 447.254831 130.63874 
L 447.254831 130.63874 
L 434.363048 130.63874 
z
" style="fill:#808080;opacity:0.75;"/>
   </g>
   <g id="patch_82">
    <path clip-path="url(#p783da03c65)" d="M 447.254831 130.63874 
L 460.146614 130.63874 
L 460.146614 130.63874 
L 447.254831 130.63874 
z
" style="fill:#808080;opacity:0.75;"/>
   </g>
   <g id="patch_83">
    <path clip-path="url(#p783da03c65)" d="M 460.146614 130.63874 
L 473.038397 130.63874 
L 473.038397 130.63874 
L 460.146614 130.63874 
z
" style="fill:#808080;opacity:0.75;"/>
   </g>
   <g id="patch_84">
    <path clip-path="url(#p783da03c65)" d="M 473.038397 130.63874 
L 485.93018 130.63874 
L 485.93018 130.63874 
L 473.038397 130.63874 
z
" style="fill:#808080;opacity:0.75;"/>
   </g>
   <g id="patch_85">
    <path clip-path="url(#p783da03c65)" d="M 485.93018 130.63874 
L 498.821963 130.63874 
L 498.821963 130.63874 
L 485.93018 130.63874 
z
" style="fill:#808080;opacity:0.75;"/>
   </g>
   <g id="patch_86">
    <path clip-path="url(#p783da03c65)" d="M 498.821963 130.63874 
L 511.713747 130.63874 
L 511.713747 130.63874 
L 498.821963 130.63874 
z
" style="fill:#808080;opacity:0.75;"/>
   </g>
   <g id="patch_87">
    <path clip-path="url(#p783da03c65)" d="M 511.713747 130.63874 
L 524.60553 130.63874 
L 524.60553 130.63874 
L 511.713747 130.63874 
z
" style="fill:#808080;opacity:0.75;"/>
   </g>
   <g id="patch_88">
    <path clip-path="url(#p783da03c65)" d="M 524.60553 130.63874 
L 537.497313 130.63874 
L 537.497313 130.63874 
L 524.60553 130.63874 
z
" style="fill:#808080;opacity:0.75;"/>
   </g>
   <g id="patch_89">
    <path clip-path="url(#p783da03c65)" d="M 537.497313 130.63874 
L 550.389096 130.63874 
L 550.389096 130.63874 
L 537.497313 130.63874 
z
" style="fill:#808080;opacity:0.75;"/>
   </g>
   <g id="patch_90">
    <path clip-path="url(#p783da03c65)" d="M 550.389096 130.63874 
L 563.280879 130.63874 
L 563.280879 130.63874 
L 550.389096 130.63874 
z
" style="fill:#808080;opacity:0.75;"/>
   </g>
   <g id="patch_91">
    <path clip-path="url(#p783da03c65)" d="M 563.280879 130.63874 
L 576.172662 130.63874 
L 576.172662 130.63874 
L 563.280879 130.63874 
z
" style="fill:#808080;opacity:0.75;"/>
   </g>
   <g id="patch_92">
    <path clip-path="url(#p783da03c65)" d="M 576.172662 130.63874 
L 589.064445 130.63874 
L 589.064445 130.63874 
L 576.172662 130.63874 
z
" style="fill:#808080;opacity:0.75;"/>
   </g>
   <g id="patch_93">
    <path clip-path="url(#p783da03c65)" d="M 589.064445 130.63874 
L 601.956228 130.63874 
L 601.956228 130.63874 
L 589.064445 130.63874 
z
" style="fill:#808080;opacity:0.75;"/>
   </g>
   <g id="patch_94">
    <path clip-path="url(#p783da03c65)" d="M 601.956228 130.63874 
L 614.848011 130.63874 
L 614.848011 130.63874 
L 601.956228 130.63874 
z
" style="fill:#808080;opacity:0.75;"/>
   </g>
   <g id="patch_95">
    <path clip-path="url(#p783da03c65)" d="M 614.848011 130.63874 
L 627.739794 130.63874 
L 627.739794 130.63874 
L 614.848011 130.63874 
z
" style="fill:#808080;opacity:0.75;"/>
   </g>
   <g id="patch_96">
    <path clip-path="url(#p783da03c65)" d="M 627.739794 130.63874 
L 640.631577 130.63874 
L 640.631577 130.63874 
L 627.739794 130.63874 
z
" style="fill:#808080;opacity:0.75;"/>
   </g>
   <g id="patch_97">
    <path clip-path="url(#p783da03c65)" d="M 640.631577 130.63874 
L 653.52336 130.63874 
L 653.52336 130.63874 
L 640.631577 130.63874 
z
" style="fill:#808080;opacity:0.75;"/>
   </g>
   <g id="patch_98">
    <path clip-path="url(#p783da03c65)" d="M 653.52336 130.63874 
L 666.415143 130.63874 
L 666.415143 130.63874 
L 653.52336 130.63874 
z
" style="fill:#808080;opacity:0.75;"/>
   </g>
   <g id="patch_99">
    <path clip-path="url(#p783da03c65)" d="M 666.415143 130.63874 
L 679.306926 130.63874 
L 679.306926 130.63874 
L 666.415143 130.63874 
z
" style="fill:#808080;opacity:0.75;"/>
   </g>
   <g id="patch_100">
    <path clip-path="url(#p783da03c65)" d="M 679.306926 130.63874 
L 692.198709 130.63874 
L 692.198709 130.63874 
L 679.306926 130.63874 
z
" style="fill:#808080;opacity:0.75;"/>
   </g>
   <g id="patch_101">
    <path clip-path="url(#p783da03c65)" d="M 692.198709 130.63874 
L 705.090492 130.63874 
L 705.090492 130.63874 
L 692.198709 130.63874 
z
" style="fill:#808080;opacity:0.75;"/>
   </g>
   <g id="patch_102">
    <path clip-path="url(#p783da03c65)" d="M 705.090492 130.63874 
L 717.982275 130.63874 
L 717.982275 130.617402 
L 705.090492 130.617402 
z
" style="fill:#808080;opacity:0.75;"/>
   </g>
   <g id="matplotlib.axis_1">
    <g id="xtick_1">
     <g id="line2d_1">
      <defs>
       <path d="M 0 0 
L 0 3.5 
" id="m19e7858604" style="stroke:#000000;stroke-width:0.8;"/>
      </defs>
      <g>
       <use style="stroke:#000000;stroke-width:0.8;" x="73.393123" xlink:href="#m19e7858604" y="130.63874"/>
      </g>
     </g>
     <g id="text_1">
      <!-- 0 -->
      <g transform="translate(70.529998 144.477334)scale(0.09 -0.09)">
       <defs>
        <path d="M 31.78125 66.40625 
Q 24.171875 66.40625 20.328125 58.90625 
Q 16.5 51.421875 16.5 36.375 
Q 16.5 21.390625 20.328125 13.890625 
Q 24.171875 6.390625 31.78125 6.390625 
Q 39.453125 6.390625 43.28125 13.890625 
Q 47.125 21.390625 47.125 36.375 
Q 47.125 51.421875 43.28125 58.90625 
Q 39.453125 66.40625 31.78125 66.40625 
z
M 31.78125 74.21875 
Q 44.046875 74.21875 50.515625 64.515625 
Q 56.984375 54.828125 56.984375 36.375 
Q 56.984375 17.96875 50.515625 8.265625 
Q 44.046875 -1.421875 31.78125 -1.421875 
Q 19.53125 -1.421875 13.0625 8.265625 
Q 6.59375 17.96875 6.59375 36.375 
Q 6.59375 54.828125 13.0625 64.515625 
Q 19.53125 74.21875 31.78125 74.21875 
z
" id="DejaVuSans-48"/>
       </defs>
       <use xlink:href="#DejaVuSans-48"/>
      </g>
     </g>
    </g>
    <g id="xtick_2">
     <g id="line2d_2">
      <g>
       <use style="stroke:#000000;stroke-width:0.8;" x="108.17937" xlink:href="#m19e7858604" y="130.63874"/>
      </g>
     </g>
     <g id="text_2">
      <!-- 200 -->
      <g transform="translate(99.589995 144.477334)scale(0.09 -0.09)">
       <defs>
        <path d="M 19.1875 8.296875 
L 53.609375 8.296875 
L 53.609375 0 
L 7.328125 0 
L 7.328125 8.296875 
Q 12.9375 14.109375 22.625 23.890625 
Q 32.328125 33.6875 34.8125 36.53125 
Q 39.546875 41.84375 41.421875 45.53125 
Q 43.3125 49.21875 43.3125 52.78125 
Q 43.3125 58.59375 39.234375 62.25 
Q 35.15625 65.921875 28.609375 65.921875 
Q 23.96875 65.921875 18.8125 64.3125 
Q 13.671875 62.703125 7.8125 59.421875 
L 7.8125 69.390625 
Q 13.765625 71.78125 18.9375 73 
Q 24.125 74.21875 28.421875 74.21875 
Q 39.75 74.21875 46.484375 68.546875 
Q 53.21875 62.890625 53.21875 53.421875 
Q 53.21875 48.921875 51.53125 44.890625 
Q 49.859375 40.875 45.40625 35.40625 
Q 44.1875 33.984375 37.640625 27.21875 
Q 31.109375 20.453125 19.1875 8.296875 
z
" id="DejaVuSans-50"/>
       </defs>
       <use xlink:href="#DejaVuSans-50"/>
       <use x="63.623047" xlink:href="#DejaVuSans-48"/>
       <use x="127.246094" xlink:href="#DejaVuSans-48"/>
      </g>
     </g>
    </g>
    <g id="xtick_3">
     <g id="line2d_3">
      <g>
       <use style="stroke:#000000;stroke-width:0.8;" x="142.965617" xlink:href="#m19e7858604" y="130.63874"/>
      </g>
     </g>
     <g id="text_3">
      <!-- 400 -->
      <g transform="translate(134.376242 144.477334)scale(0.09 -0.09)">
       <defs>
        <path d="M 37.796875 64.3125 
L 12.890625 25.390625 
L 37.796875 25.390625 
z
M 35.203125 72.90625 
L 47.609375 72.90625 
L 47.609375 25.390625 
L 58.015625 25.390625 
L 58.015625 17.1875 
L 47.609375 17.1875 
L 47.609375 0 
L 37.796875 0 
L 37.796875 17.1875 
L 4.890625 17.1875 
L 4.890625 26.703125 
z
" id="DejaVuSans-52"/>
       </defs>
       <use xlink:href="#DejaVuSans-52"/>
       <use x="63.623047" xlink:href="#DejaVuSans-48"/>
       <use x="127.246094" xlink:href="#DejaVuSans-48"/>
      </g>
     </g>
    </g>
    <g id="text_4">
     <!-- IF_contacts -->
     <g transform="translate(82.829604 156.937334)scale(0.09 -0.09)">
      <defs>
       <path d="M 9.8125 72.90625 
L 19.671875 72.90625 
L 19.671875 0 
L 9.8125 0 
z
" id="DejaVuSans-73"/>
       <path d="M 9.8125 72.90625 
L 51.703125 72.90625 
L 51.703125 64.59375 
L 19.671875 64.59375 
L 19.671875 43.109375 
L 48.578125 43.109375 
L 48.578125 34.8125 
L 19.671875 34.8125 
L 19.671875 0 
L 9.8125 0 
z
" id="DejaVuSans-70"/>
       <path d="M 50.984375 -16.609375 
L 50.984375 -23.578125 
L -0.984375 -23.578125 
L -0.984375 -16.609375 
z
" id="DejaVuSans-95"/>
       <path d="M 48.78125 52.59375 
L 48.78125 44.1875 
Q 44.96875 46.296875 41.140625 47.34375 
Q 37.3125 48.390625 33.40625 48.390625 
Q 24.65625 48.390625 19.8125 42.84375 
Q 14.984375 37.3125 14.984375 27.296875 
Q 14.984375 17.28125 19.8125 11.734375 
Q 24.65625 6.203125 33.40625 6.203125 
Q 37.3125 6.203125 41.140625 7.25 
Q 44.96875 8.296875 48.78125 10.40625 
L 48.78125 2.09375 
Q 45.015625 0.34375 40.984375 -0.53125 
Q 36.96875 -1.421875 32.421875 -1.421875 
Q 20.0625 -1.421875 12.78125 6.34375 
Q 5.515625 14.109375 5.515625 27.296875 
Q 5.515625 40.671875 12.859375 48.328125 
Q 20.21875 56 33.015625 56 
Q 37.15625 56 41.109375 55.140625 
Q 45.0625 54.296875 48.78125 52.59375 
z
" id="DejaVuSans-99"/>
       <path d="M 30.609375 48.390625 
Q 23.390625 48.390625 19.1875 42.75 
Q 14.984375 37.109375 14.984375 27.296875 
Q 14.984375 17.484375 19.15625 11.84375 
Q 23.34375 6.203125 30.609375 6.203125 
Q 37.796875 6.203125 41.984375 11.859375 
Q 46.1875 17.53125 46.1875 27.296875 
Q 46.1875 37.015625 41.984375 42.703125 
Q 37.796875 48.390625 30.609375 48.390625 
z
M 30.609375 56 
Q 42.328125 56 49.015625 48.375 
Q 55.71875 40.765625 55.71875 27.296875 
Q 55.71875 13.875 49.015625 6.21875 
Q 42.328125 -1.421875 30.609375 -1.421875 
Q 18.84375 -1.421875 12.171875 6.21875 
Q 5.515625 13.875 5.515625 27.296875 
Q 5.515625 40.765625 12.171875 48.375 
Q 18.84375 56 30.609375 56 
z
" id="DejaVuSans-111"/>
       <path d="M 54.890625 33.015625 
L 54.890625 0 
L 45.90625 0 
L 45.90625 32.71875 
Q 45.90625 40.484375 42.875 44.328125 
Q 39.84375 48.1875 33.796875 48.1875 
Q 26.515625 48.1875 22.3125 43.546875 
Q 18.109375 38.921875 18.109375 30.90625 
L 18.109375 0 
L 9.078125 0 
L 9.078125 54.6875 
L 18.109375 54.6875 
L 18.109375 46.1875 
Q 21.34375 51.125 25.703125 53.5625 
Q 30.078125 56 35.796875 56 
Q 45.21875 56 50.046875 50.171875 
Q 54.890625 44.34375 54.890625 33.015625 
z
" id="DejaVuSans-110"/>
       <path d="M 18.3125 70.21875 
L 18.3125 54.6875 
L 36.8125 54.6875 
L 36.8125 47.703125 
L 18.3125 47.703125 
L 18.3125 18.015625 
Q 18.3125 11.328125 20.140625 9.421875 
Q 21.96875 7.515625 27.59375 7.515625 
L 36.8125 7.515625 
L 36.8125 0 
L 27.59375 0 
Q 17.1875 0 13.234375 3.875 
Q 9.28125 7.765625 9.28125 18.015625 
L 9.28125 47.703125 
L 2.6875 47.703125 
L 2.6875 54.6875 
L 9.28125 54.6875 
L 9.28125 70.21875 
z
" id="DejaVuSans-116"/>
       <path d="M 34.28125 27.484375 
Q 23.390625 27.484375 19.1875 25 
Q 14.984375 22.515625 14.984375 16.5 
Q 14.984375 11.71875 18.140625 8.90625 
Q 21.296875 6.109375 26.703125 6.109375 
Q 34.1875 6.109375 38.703125 11.40625 
Q 43.21875 16.703125 43.21875 25.484375 
L 43.21875 27.484375 
z
M 52.203125 31.203125 
L 52.203125 0 
L 43.21875 0 
L 43.21875 8.296875 
Q 40.140625 3.328125 35.546875 0.953125 
Q 30.953125 -1.421875 24.3125 -1.421875 
Q 15.921875 -1.421875 10.953125 3.296875 
Q 6 8.015625 6 15.921875 
Q 6 25.140625 12.171875 29.828125 
Q 18.359375 34.515625 30.609375 34.515625 
L 43.21875 34.515625 
L 43.21875 35.40625 
Q 43.21875 41.609375 39.140625 45 
Q 35.0625 48.390625 27.6875 48.390625 
Q 23 48.390625 18.546875 47.265625 
Q 14.109375 46.140625 10.015625 43.890625 
L 10.015625 52.203125 
Q 14.9375 54.109375 19.578125 55.046875 
Q 24.21875 56 28.609375 56 
Q 40.484375 56 46.34375 49.84375 
Q 52.203125 43.703125 52.203125 31.203125 
z
" id="DejaVuSans-97"/>
       <path d="M 44.28125 53.078125 
L 44.28125 44.578125 
Q 40.484375 46.53125 36.375 47.5 
Q 32.28125 48.484375 27.875 48.484375 
Q 21.1875 48.484375 17.84375 46.4375 
Q 14.5 44.390625 14.5 40.28125 
Q 14.5 37.15625 16.890625 35.375 
Q 19.28125 33.59375 26.515625 31.984375 
L 29.59375 31.296875 
Q 39.15625 29.25 43.1875 25.515625 
Q 47.21875 21.78125 47.21875 15.09375 
Q 47.21875 7.46875 41.1875 3.015625 
Q 35.15625 -1.421875 24.609375 -1.421875 
Q 20.21875 -1.421875 15.453125 -0.5625 
Q 10.6875 0.296875 5.421875 2 
L 5.421875 11.28125 
Q 10.40625 8.6875 15.234375 7.390625 
Q 20.0625 6.109375 24.8125 6.109375 
Q 31.15625 6.109375 34.5625 8.28125 
Q 37.984375 10.453125 37.984375 14.40625 
Q 37.984375 18.0625 35.515625 20.015625 
Q 33.0625 21.96875 24.703125 23.78125 
L 21.578125 24.515625 
Q 13.234375 26.265625 9.515625 29.90625 
Q 5.8125 33.546875 5.8125 39.890625 
Q 5.8125 47.609375 11.28125 51.796875 
Q 16.75 56 26.8125 56 
Q 31.78125 56 36.171875 55.265625 
Q 40.578125 54.546875 44.28125 53.078125 
z
" id="DejaVuSans-115"/>
      </defs>
      <use xlink:href="#DejaVuSans-73"/>
      <use x="29.492188" xlink:href="#DejaVuSans-70"/>
      <use x="87.011719" xlink:href="#DejaVuSans-95"/>
      <use x="137.011719" xlink:href="#DejaVuSans-99"/>
      <use x="191.992188" xlink:href="#DejaVuSans-111"/>
      <use x="253.173828" xlink:href="#DejaVuSans-110"/>
      <use x="316.552734" xlink:href="#DejaVuSans-116"/>
      <use x="355.761719" xlink:href="#DejaVuSans-97"/>
      <use x="417.041016" xlink:href="#DejaVuSans-99"/>
      <use x="472.021484" xlink:href="#DejaVuSans-116"/>
      <use x="511.230469" xlink:href="#DejaVuSans-115"/>
     </g>
    </g>
   </g>
   <g id="matplotlib.axis_2">
    <g id="ytick_1">
     <g id="line2d_4">
      <defs>
       <path d="M 0 0 
L -3.5 0 
" id="mffb1cb5af3" style="stroke:#000000;stroke-width:0.8;"/>
      </defs>
      <g>
       <use style="stroke:#000000;stroke-width:0.8;" x="56" xlink:href="#mffb1cb5af3" y="130.63874"/>
      </g>
     </g>
     <g id="text_5">
      <!-- 0.0000 -->
      <g transform="translate(17.508438 134.058037)scale(0.09 -0.09)">
       <defs>
        <path d="M 10.6875 12.40625 
L 21 12.40625 
L 21 0 
L 10.6875 0 
z
" id="DejaVuSans-46"/>
       </defs>
       <use xlink:href="#DejaVuSans-48"/>
       <use x="63.623047" xlink:href="#DejaVuSans-46"/>
       <use x="95.410156" xlink:href="#DejaVuSans-48"/>
       <use x="159.033203" xlink:href="#DejaVuSans-48"/>
       <use x="222.65625" xlink:href="#DejaVuSans-48"/>
       <use x="286.279297" xlink:href="#DejaVuSans-48"/>
      </g>
     </g>
    </g>
    <g id="ytick_2">
     <g id="line2d_5">
      <g>
       <use style="stroke:#000000;stroke-width:0.8;" x="56" xlink:href="#mffb1cb5af3" y="108.022347"/>
      </g>
     </g>
     <g id="text_6">
      <!-- 0.0025 -->
      <g transform="translate(17.508438 111.441644)scale(0.09 -0.09)">
       <defs>
        <path d="M 10.796875 72.90625 
L 49.515625 72.90625 
L 49.515625 64.59375 
L 19.828125 64.59375 
L 19.828125 46.734375 
Q 21.96875 47.46875 24.109375 47.828125 
Q 26.265625 48.1875 28.421875 48.1875 
Q 40.625 48.1875 47.75 41.5 
Q 54.890625 34.8125 54.890625 23.390625 
Q 54.890625 11.625 47.5625 5.09375 
Q 40.234375 -1.421875 26.90625 -1.421875 
Q 22.3125 -1.421875 17.546875 -0.640625 
Q 12.796875 0.140625 7.71875 1.703125 
L 7.71875 11.625 
Q 12.109375 9.234375 16.796875 8.0625 
Q 21.484375 6.890625 26.703125 6.890625 
Q 35.15625 6.890625 40.078125 11.328125 
Q 45.015625 15.765625 45.015625 23.390625 
Q 45.015625 31 40.078125 35.4375 
Q 35.15625 39.890625 26.703125 39.890625 
Q 22.75 39.890625 18.8125 39.015625 
Q 14.890625 38.140625 10.796875 36.28125 
z
" id="DejaVuSans-53"/>
       </defs>
       <use xlink:href="#DejaVuSans-48"/>
       <use x="63.623047" xlink:href="#DejaVuSans-46"/>
       <use x="95.410156" xlink:href="#DejaVuSans-48"/>
       <use x="159.033203" xlink:href="#DejaVuSans-48"/>
       <use x="222.65625" xlink:href="#DejaVuSans-50"/>
       <use x="286.279297" xlink:href="#DejaVuSans-53"/>
      </g>
     </g>
    </g>
    <g id="ytick_3">
     <g id="line2d_6">
      <g>
       <use style="stroke:#000000;stroke-width:0.8;" x="56" xlink:href="#mffb1cb5af3" y="85.405954"/>
      </g>
     </g>
     <g id="text_7">
      <!-- 0.0050 -->
      <g transform="translate(17.508438 88.825251)scale(0.09 -0.09)">
       <use xlink:href="#DejaVuSans-48"/>
       <use x="63.623047" xlink:href="#DejaVuSans-46"/>
       <use x="95.410156" xlink:href="#DejaVuSans-48"/>
       <use x="159.033203" xlink:href="#DejaVuSans-48"/>
       <use x="222.65625" xlink:href="#DejaVuSans-53"/>
       <use x="286.279297" xlink:href="#DejaVuSans-48"/>
      </g>
     </g>
    </g>
    <g id="ytick_4">
     <g id="line2d_7">
      <g>
       <use style="stroke:#000000;stroke-width:0.8;" x="56" xlink:href="#mffb1cb5af3" y="62.789561"/>
      </g>
     </g>
     <g id="text_8">
      <!-- 0.0075 -->
      <g transform="translate(17.508438 66.208858)scale(0.09 -0.09)">
       <defs>
        <path d="M 8.203125 72.90625 
L 55.078125 72.90625 
L 55.078125 68.703125 
L 28.609375 0 
L 18.3125 0 
L 43.21875 64.59375 
L 8.203125 64.59375 
z
" id="DejaVuSans-55"/>
       </defs>
       <use xlink:href="#DejaVuSans-48"/>
       <use x="63.623047" xlink:href="#DejaVuSans-46"/>
       <use x="95.410156" xlink:href="#DejaVuSans-48"/>
       <use x="159.033203" xlink:href="#DejaVuSans-48"/>
       <use x="222.65625" xlink:href="#DejaVuSans-55"/>
       <use x="286.279297" xlink:href="#DejaVuSans-53"/>
      </g>
     </g>
    </g>
    <g id="ytick_5">
     <g id="line2d_8">
      <g>
       <use style="stroke:#000000;stroke-width:0.8;" x="56" xlink:href="#mffb1cb5af3" y="40.173168"/>
      </g>
     </g>
     <g id="text_9">
      <!-- 0.0100 -->
      <g transform="translate(17.508438 43.592465)scale(0.09 -0.09)">
       <defs>
        <path d="M 12.40625 8.296875 
L 28.515625 8.296875 
L 28.515625 63.921875 
L 10.984375 60.40625 
L 10.984375 69.390625 
L 28.421875 72.90625 
L 38.28125 72.90625 
L 38.28125 8.296875 
L 54.390625 8.296875 
L 54.390625 0 
L 12.40625 0 
z
" id="DejaVuSans-49"/>
       </defs>
       <use xlink:href="#DejaVuSans-48"/>
       <use x="63.623047" xlink:href="#DejaVuSans-46"/>
       <use x="95.410156" xlink:href="#DejaVuSans-48"/>
       <use x="159.033203" xlink:href="#DejaVuSans-49"/>
       <use x="222.65625" xlink:href="#DejaVuSans-48"/>
       <use x="286.279297" xlink:href="#DejaVuSans-48"/>
      </g>
     </g>
    </g>
    <g id="ytick_6">
     <g id="line2d_9">
      <g>
       <use style="stroke:#000000;stroke-width:0.8;" x="56" xlink:href="#mffb1cb5af3" y="17.556775"/>
      </g>
     </g>
     <g id="text_10">
      <!-- 0.0125 -->
      <g transform="translate(17.508438 20.976071)scale(0.09 -0.09)">
       <use xlink:href="#DejaVuSans-48"/>
       <use x="63.623047" xlink:href="#DejaVuSans-46"/>
       <use x="95.410156" xlink:href="#DejaVuSans-48"/>
       <use x="159.033203" xlink:href="#DejaVuSans-49"/>
       <use x="222.65625" xlink:href="#DejaVuSans-50"/>
       <use x="286.279297" xlink:href="#DejaVuSans-53"/>
      </g>
     </g>
    </g>
    <g id="text_11">
     <!-- Density -->
     <g transform="translate(11.636719 87.287104)rotate(-90)scale(0.09 -0.09)">
      <defs>
       <path d="M 19.671875 64.796875 
L 19.671875 8.109375 
L 31.59375 8.109375 
Q 46.6875 8.109375 53.6875 14.9375 
Q 60.6875 21.78125 60.6875 36.53125 
Q 60.6875 51.171875 53.6875 57.984375 
Q 46.6875 64.796875 31.59375 64.796875 
z
M 9.8125 72.90625 
L 30.078125 72.90625 
Q 51.265625 72.90625 61.171875 64.09375 
Q 71.09375 55.28125 71.09375 36.53125 
Q 71.09375 17.671875 61.125 8.828125 
Q 51.171875 0 30.078125 0 
L 9.8125 0 
z
" id="DejaVuSans-68"/>
       <path d="M 56.203125 29.59375 
L 56.203125 25.203125 
L 14.890625 25.203125 
Q 15.484375 15.921875 20.484375 11.0625 
Q 25.484375 6.203125 34.421875 6.203125 
Q 39.59375 6.203125 44.453125 7.46875 
Q 49.3125 8.734375 54.109375 11.28125 
L 54.109375 2.78125 
Q 49.265625 0.734375 44.1875 -0.34375 
Q 39.109375 -1.421875 33.890625 -1.421875 
Q 20.796875 -1.421875 13.15625 6.1875 
Q 5.515625 13.8125 5.515625 26.8125 
Q 5.515625 40.234375 12.765625 48.109375 
Q 20.015625 56 32.328125 56 
Q 43.359375 56 49.78125 48.890625 
Q 56.203125 41.796875 56.203125 29.59375 
z
M 47.21875 32.234375 
Q 47.125 39.59375 43.09375 43.984375 
Q 39.0625 48.390625 32.421875 48.390625 
Q 24.90625 48.390625 20.390625 44.140625 
Q 15.875 39.890625 15.1875 32.171875 
z
" id="DejaVuSans-101"/>
       <path d="M 9.421875 54.6875 
L 18.40625 54.6875 
L 18.40625 0 
L 9.421875 0 
z
M 9.421875 75.984375 
L 18.40625 75.984375 
L 18.40625 64.59375 
L 9.421875 64.59375 
z
" id="DejaVuSans-105"/>
       <path d="M 32.171875 -5.078125 
Q 28.375 -14.84375 24.75 -17.8125 
Q 21.140625 -20.796875 15.09375 -20.796875 
L 7.90625 -20.796875 
L 7.90625 -13.28125 
L 13.1875 -13.28125 
Q 16.890625 -13.28125 18.9375 -11.515625 
Q 21 -9.765625 23.484375 -3.21875 
L 25.09375 0.875 
L 2.984375 54.6875 
L 12.5 54.6875 
L 29.59375 11.921875 
L 46.6875 54.6875 
L 56.203125 54.6875 
z
" id="DejaVuSans-121"/>
      </defs>
      <use xlink:href="#DejaVuSans-68"/>
      <use x="77.001953" xlink:href="#DejaVuSans-101"/>
      <use x="138.525391" xlink:href="#DejaVuSans-110"/>
      <use x="201.904297" xlink:href="#DejaVuSans-115"/>
      <use x="254.003906" xlink:href="#DejaVuSans-105"/>
      <use x="281.787109" xlink:href="#DejaVuSans-116"/>
      <use x="320.996094" xlink:href="#DejaVuSans-121"/>
     </g>
    </g>
   </g>
   <g id="patch_103">
    <path d="M 56 130.63874 
L 56 9.72 
" style="fill:none;stroke:#000000;stroke-linecap:square;stroke-linejoin:miter;stroke-width:0.8;"/>
   </g>
   <g id="patch_104">
    <path d="M 56 130.63874 
L 160.35874 130.63874 
" style="fill:none;stroke:#000000;stroke-linecap:square;stroke-linejoin:miter;stroke-width:0.8;"/>
   </g>
   <g id="legend_1">
    <g id="patch_105">
     <path d="M 108.303584 43.340625 
L 154.05874 43.340625 
Q 155.85874 43.340625 155.85874 41.540625 
L 155.85874 16.02 
Q 155.85874 14.22 154.05874 14.22 
L 108.303584 14.22 
Q 106.503584 14.22 106.503584 16.02 
L 106.503584 41.540625 
Q 106.503584 43.340625 108.303584 43.340625 
z
" style="fill:#ffffff;opacity:0.8;stroke:#cccccc;stroke-linejoin:miter;"/>
    </g>
    <g id="patch_106">
     <path d="M 110.103584 24.658594 
L 128.103584 24.658594 
L 128.103584 18.358594 
L 110.103584 18.358594 
z
" style="fill:#006400;opacity:0.75;"/>
    </g>
    <g id="text_12">
     <!-- pos -->
     <g transform="translate(135.303584 24.658594)scale(0.09 -0.09)">
      <defs>
       <path d="M 18.109375 8.203125 
L 18.109375 -20.796875 
L 9.078125 -20.796875 
L 9.078125 54.6875 
L 18.109375 54.6875 
L 18.109375 46.390625 
Q 20.953125 51.265625 25.265625 53.625 
Q 29.59375 56 35.59375 56 
Q 45.5625 56 51.78125 48.09375 
Q 58.015625 40.1875 58.015625 27.296875 
Q 58.015625 14.40625 51.78125 6.484375 
Q 45.5625 -1.421875 35.59375 -1.421875 
Q 29.59375 -1.421875 25.265625 0.953125 
Q 20.953125 3.328125 18.109375 8.203125 
z
M 48.6875 27.296875 
Q 48.6875 37.203125 44.609375 42.84375 
Q 40.53125 48.484375 33.40625 48.484375 
Q 26.265625 48.484375 22.1875 42.84375 
Q 18.109375 37.203125 18.109375 27.296875 
Q 18.109375 17.390625 22.1875 11.75 
Q 26.265625 6.109375 33.40625 6.109375 
Q 40.53125 6.109375 44.609375 11.75 
Q 48.6875 17.390625 48.6875 27.296875 
z
" id="DejaVuSans-112"/>
      </defs>
      <use xlink:href="#DejaVuSans-112"/>
      <use x="63.476562" xlink:href="#DejaVuSans-111"/>
      <use x="124.658203" xlink:href="#DejaVuSans-115"/>
     </g>
    </g>
    <g id="patch_107">
     <path d="M 110.103584 37.868906 
L 128.103584 37.868906 
L 128.103584 31.568906 
L 110.103584 31.568906 
z
" style="fill:#808080;opacity:0.75;"/>
    </g>
    <g id="text_13">
     <!-- neg -->
     <g transform="translate(135.303584 37.868906)scale(0.09 -0.09)">
      <defs>
       <path d="M 45.40625 27.984375 
Q 45.40625 37.75 41.375 43.109375 
Q 37.359375 48.484375 30.078125 48.484375 
Q 22.859375 48.484375 18.828125 43.109375 
Q 14.796875 37.75 14.796875 27.984375 
Q 14.796875 18.265625 18.828125 12.890625 
Q 22.859375 7.515625 30.078125 7.515625 
Q 37.359375 7.515625 41.375 12.890625 
Q 45.40625 18.265625 45.40625 27.984375 
z
M 54.390625 6.78125 
Q 54.390625 -7.171875 48.1875 -13.984375 
Q 42 -20.796875 29.203125 -20.796875 
Q 24.46875 -20.796875 20.265625 -20.09375 
Q 16.0625 -19.390625 12.109375 -17.921875 
L 12.109375 -9.1875 
Q 16.0625 -11.328125 19.921875 -12.34375 
Q 23.78125 -13.375 27.78125 -13.375 
Q 36.625 -13.375 41.015625 -8.765625 
Q 45.40625 -4.15625 45.40625 5.171875 
L 45.40625 9.625 
Q 42.625 4.78125 38.28125 2.390625 
Q 33.9375 0 27.875 0 
Q 17.828125 0 11.671875 7.65625 
Q 5.515625 15.328125 5.515625 27.984375 
Q 5.515625 40.671875 11.671875 48.328125 
Q 17.828125 56 27.875 56 
Q 33.9375 56 38.28125 53.609375 
Q 42.625 51.21875 45.40625 46.390625 
L 45.40625 54.6875 
L 54.390625 54.6875 
z
" id="DejaVuSans-103"/>
      </defs>
      <use xlink:href="#DejaVuSans-110"/>
      <use x="63.378906" xlink:href="#DejaVuSans-101"/>
      <use x="124.902344" xlink:href="#DejaVuSans-103"/>
     </g>
    </g>
   </g>
  </g>
 </g>
 <defs>
  <clipPath id="p783da03c65">
   <rect height="120.91874" width="104.35874" x="56" y="9.72"/>
  </clipPath>
 </defs>
</svg>
