<?xml version="1.0" encoding="utf-8" standalone="no"?>
<!DOCTYPE svg PUBLIC "-//W3C//DTD SVG 1.1//EN"
  "http://www.w3.org/Graphics/SVG/1.1/DTD/svg11.dtd">
<!-- Created with matplotlib (https://matplotlib.org/) -->
<svg height="170.07874pt" version="1.1" viewBox="0 0 170.07874 170.07874" width="170.07874pt" xmlns="http://www.w3.org/2000/svg" xmlns:xlink="http://www.w3.org/1999/xlink">
 <metadata>
  <rdf:RDF xmlns:cc="http://creativecommons.org/ns#" xmlns:dc="http://purl.org/dc/elements/1.1/" xmlns:rdf="http://www.w3.org/1999/02/22-rdf-syntax-ns#">
   <cc:Work>
    <dc:type rdf:resource="http://purl.org/dc/dcmitype/StillImage"/>
    <dc:date>2022-02-08T16:42:11.244326</dc:date>
    <dc:format>image/svg+xml</dc:format>
    <dc:creator>
     <cc:Agent>
      <dc:title>Matplotlib v3.3.2, https://matplotlib.org/</dc:title>
     </cc:Agent>
    </dc:creator>
   </cc:Work>
  </rdf:RDF>
 </metadata>
 <defs>
  <style type="text/css">*{stroke-linecap:butt;stroke-linejoin:round;}</style>
 </defs>
 <g id="figure_1">
  <g id="patch_1">
   <path d="M 0 170.07874 
L 170.07874 170.07874 
L 170.07874 0 
L 0 0 
z
" style="fill:#ffffff;"/>
  </g>
  <g id="axes_1">
   <g id="patch_2">
    <path d="M 41.51 130.63874 
L 150.32374 130.63874 
L 150.32374 9.72 
L 41.51 9.72 
z
" style="fill:#ffffff;"/>
   </g>
   <g id="patch_3">
    <path clip-path="url(#p6fadf34ce1)" d="M 43.548048 130.63874 
L 47.473018 130.63874 
L 47.473018 102.552152 
L 43.548048 102.552152 
z
" style="opacity:0.75;"/>
   </g>
   <g id="patch_4">
    <path clip-path="url(#p6fadf34ce1)" d="M 47.473018 130.63874 
L 51.397988 130.63874 
L 51.397988 123.785999 
L 47.473018 123.785999 
z
" style="opacity:0.75;"/>
   </g>
   <g id="patch_5">
    <path clip-path="url(#p6fadf34ce1)" d="M 51.397988 130.63874 
L 55.322958 130.63874 
L 55.322958 124.558139 
L 51.397988 124.558139 
z
" style="opacity:0.75;"/>
   </g>
   <g id="patch_6">
    <path clip-path="url(#p6fadf34ce1)" d="M 55.322958 130.63874 
L 59.247928 130.63874 
L 59.247928 125.909383 
L 55.322958 125.909383 
z
" style="opacity:0.75;"/>
   </g>
   <g id="patch_7">
    <path clip-path="url(#p6fadf34ce1)" d="M 59.247928 130.63874 
L 63.172898 130.63874 
L 63.172898 127.453663 
L 59.247928 127.453663 
z
" style="opacity:0.75;"/>
   </g>
   <g id="patch_8">
    <path clip-path="url(#p6fadf34ce1)" d="M 63.172898 130.63874 
L 67.097868 130.63874 
L 67.097868 126.681523 
L 63.172898 126.681523 
z
" style="opacity:0.75;"/>
   </g>
   <g id="patch_9">
    <path clip-path="url(#p6fadf34ce1)" d="M 67.097868 130.63874 
L 71.022838 130.63874 
L 71.022838 127.260628 
L 67.097868 127.260628 
z
" style="opacity:0.75;"/>
   </g>
   <g id="patch_10">
    <path clip-path="url(#p6fadf34ce1)" d="M 71.022838 130.63874 
L 74.947808 130.63874 
L 74.947808 127.453663 
L 71.022838 127.453663 
z
" style="opacity:0.75;"/>
   </g>
   <g id="patch_11">
    <path clip-path="url(#p6fadf34ce1)" d="M 74.947808 130.63874 
L 78.872777 130.63874 
L 78.872777 126.971076 
L 74.947808 126.971076 
z
" style="opacity:0.75;"/>
   </g>
   <g id="patch_12">
    <path clip-path="url(#p6fadf34ce1)" d="M 78.872777 130.63874 
L 82.797747 130.63874 
L 82.797747 127.839733 
L 78.872777 127.839733 
z
" style="opacity:0.75;"/>
   </g>
   <g id="patch_13">
    <path clip-path="url(#p6fadf34ce1)" d="M 82.797747 130.63874 
L 86.722717 130.63874 
L 86.722717 128.032768 
L 82.797747 128.032768 
z
" style="opacity:0.75;"/>
   </g>
   <g id="patch_14">
    <path clip-path="url(#p6fadf34ce1)" d="M 86.722717 130.63874 
L 90.647687 130.63874 
L 90.647687 126.585006 
L 86.722717 126.585006 
z
" style="opacity:0.75;"/>
   </g>
   <g id="patch_15">
    <path clip-path="url(#p6fadf34ce1)" d="M 90.647687 130.63874 
L 94.572657 130.63874 
L 94.572657 126.391971 
L 90.647687 126.391971 
z
" style="opacity:0.75;"/>
   </g>
   <g id="patch_16">
    <path clip-path="url(#p6fadf34ce1)" d="M 94.572657 130.63874 
L 98.497627 130.63874 
L 98.497627 125.716348 
L 94.572657 125.716348 
z
" style="opacity:0.75;"/>
   </g>
   <g id="patch_17">
    <path clip-path="url(#p6fadf34ce1)" d="M 98.497627 130.63874 
L 102.422597 130.63874 
L 102.422597 124.847691 
L 98.497627 124.847691 
z
" style="opacity:0.75;"/>
   </g>
   <g id="patch_18">
    <path clip-path="url(#p6fadf34ce1)" d="M 102.422597 130.63874 
L 106.347567 130.63874 
L 106.347567 123.206894 
L 102.422597 123.206894 
z
" style="opacity:0.75;"/>
   </g>
   <g id="patch_19">
    <path clip-path="url(#p6fadf34ce1)" d="M 106.347567 130.63874 
L 110.272537 130.63874 
L 110.272537 121.469579 
L 106.347567 121.469579 
z
" style="opacity:0.75;"/>
   </g>
   <g id="patch_20">
    <path clip-path="url(#p6fadf34ce1)" d="M 110.272537 130.63874 
L 114.197507 130.63874 
L 114.197507 120.214852 
L 110.272537 120.214852 
z
" style="opacity:0.75;"/>
   </g>
   <g id="patch_21">
    <path clip-path="url(#p6fadf34ce1)" d="M 114.197507 130.63874 
L 118.122477 130.63874 
L 118.122477 115.775047 
L 114.197507 115.775047 
z
" style="opacity:0.75;"/>
   </g>
   <g id="patch_22">
    <path clip-path="url(#p6fadf34ce1)" d="M 118.122477 130.63874 
L 122.047447 130.63874 
L 122.047447 114.90639 
L 118.122477 114.90639 
z
" style="opacity:0.75;"/>
   </g>
   <g id="patch_23">
    <path clip-path="url(#p6fadf34ce1)" d="M 43.548048 130.63874 
L 47.482695 130.63874 
L 47.482695 15.478035 
L 43.548048 15.478035 
z
" style="fill:#808080;opacity:0.75;"/>
   </g>
   <g id="patch_24">
    <path clip-path="url(#p6fadf34ce1)" d="M 47.482695 130.63874 
L 51.417342 130.63874 
L 51.417342 120.0315 
L 47.482695 120.0315 
z
" style="fill:#808080;opacity:0.75;"/>
   </g>
   <g id="patch_25">
    <path clip-path="url(#p6fadf34ce1)" d="M 51.417342 130.63874 
L 55.351989 130.63874 
L 55.351989 124.892097 
L 51.417342 124.892097 
z
" style="fill:#808080;opacity:0.75;"/>
   </g>
   <g id="patch_26">
    <path clip-path="url(#p6fadf34ce1)" d="M 55.351989 130.63874 
L 59.286635 130.63874 
L 59.286635 127.651498 
L 55.351989 127.651498 
z
" style="fill:#808080;opacity:0.75;"/>
   </g>
   <g id="patch_27">
    <path clip-path="url(#p6fadf34ce1)" d="M 59.286635 130.63874 
L 63.221282 130.63874 
L 63.221282 128.410967 
L 59.286635 128.410967 
z
" style="fill:#808080;opacity:0.75;"/>
   </g>
   <g id="patch_28">
    <path clip-path="url(#p6fadf34ce1)" d="M 63.221282 130.63874 
L 67.155929 130.63874 
L 67.155929 128.891963 
L 63.221282 128.891963 
z
" style="fill:#808080;opacity:0.75;"/>
   </g>
   <g id="patch_29">
    <path clip-path="url(#p6fadf34ce1)" d="M 67.155929 130.63874 
L 71.090576 130.63874 
L 71.090576 129.37296 
L 67.155929 129.37296 
z
" style="fill:#808080;opacity:0.75;"/>
   </g>
   <g id="patch_30">
    <path clip-path="url(#p6fadf34ce1)" d="M 71.090576 130.63874 
L 75.025223 130.63874 
L 75.025223 129.727378 
L 71.090576 129.727378 
z
" style="fill:#808080;opacity:0.75;"/>
   </g>
   <g id="patch_31">
    <path clip-path="url(#p6fadf34ce1)" d="M 75.025223 130.63874 
L 78.95987 130.63874 
L 78.95987 129.803325 
L 75.025223 129.803325 
z
" style="fill:#808080;opacity:0.75;"/>
   </g>
   <g id="patch_32">
    <path clip-path="url(#p6fadf34ce1)" d="M 78.95987 130.63874 
L 82.894517 130.63874 
L 82.894517 130.334953 
L 78.95987 130.334953 
z
" style="fill:#808080;opacity:0.75;"/>
   </g>
   <g id="patch_33">
    <path clip-path="url(#p6fadf34ce1)" d="M 82.894517 130.63874 
L 86.829164 130.63874 
L 86.829164 130.031166 
L 82.894517 130.031166 
z
" style="fill:#808080;opacity:0.75;"/>
   </g>
   <g id="patch_34">
    <path clip-path="url(#p6fadf34ce1)" d="M 86.829164 130.63874 
L 90.763811 130.63874 
L 90.763811 130.309637 
L 86.829164 130.309637 
z
" style="fill:#808080;opacity:0.75;"/>
   </g>
   <g id="patch_35">
    <path clip-path="url(#p6fadf34ce1)" d="M 90.763811 130.63874 
L 94.698458 130.63874 
L 94.698458 130.4109 
L 90.763811 130.4109 
z
" style="fill:#808080;opacity:0.75;"/>
   </g>
   <g id="patch_36">
    <path clip-path="url(#p6fadf34ce1)" d="M 94.698458 130.63874 
L 98.633104 130.63874 
L 98.633104 130.461531 
L 94.698458 130.461531 
z
" style="fill:#808080;opacity:0.75;"/>
   </g>
   <g id="patch_37">
    <path clip-path="url(#p6fadf34ce1)" d="M 98.633104 130.63874 
L 102.567751 130.63874 
L 102.567751 130.360268 
L 98.633104 130.360268 
z
" style="fill:#808080;opacity:0.75;"/>
   </g>
   <g id="patch_38">
    <path clip-path="url(#p6fadf34ce1)" d="M 102.567751 130.63874 
L 106.502398 130.63874 
L 106.502398 130.334953 
L 102.567751 130.334953 
z
" style="fill:#808080;opacity:0.75;"/>
   </g>
   <g id="patch_39">
    <path clip-path="url(#p6fadf34ce1)" d="M 106.502398 130.63874 
L 110.437045 130.63874 
L 110.437045 130.259006 
L 106.502398 130.259006 
z
" style="fill:#808080;opacity:0.75;"/>
   </g>
   <g id="patch_40">
    <path clip-path="url(#p6fadf34ce1)" d="M 110.437045 130.63874 
L 114.371692 130.63874 
L 114.371692 130.385584 
L 110.437045 130.385584 
z
" style="fill:#808080;opacity:0.75;"/>
   </g>
   <g id="patch_41">
    <path clip-path="url(#p6fadf34ce1)" d="M 114.371692 130.63874 
L 118.306339 130.63874 
L 118.306339 130.562793 
L 114.371692 130.562793 
z
" style="fill:#808080;opacity:0.75;"/>
   </g>
   <g id="patch_42">
    <path clip-path="url(#p6fadf34ce1)" d="M 118.306339 130.63874 
L 122.240986 130.63874 
L 122.240986 130.259006 
L 118.306339 130.259006 
z
" style="fill:#808080;opacity:0.75;"/>
   </g>
   <g id="matplotlib.axis_1">
    <g id="xtick_1">
     <g id="line2d_1">
      <defs>
       <path d="M 0 0 
L 0 3.5 
" id="m84a830ec84" style="stroke:#000000;stroke-width:0.8;"/>
      </defs>
      <g>
       <use style="stroke:#000000;stroke-width:0.8;" x="41.51" xlink:href="#m84a830ec84" y="130.63874"/>
      </g>
     </g>
     <g id="text_1">
      <!-- 0.00 -->
      <g transform="translate(31.490469 144.477334)scale(0.09 -0.09)">
       <defs>
        <path d="M 31.78125 66.40625 
Q 24.171875 66.40625 20.328125 58.90625 
Q 16.5 51.421875 16.5 36.375 
Q 16.5 21.390625 20.328125 13.890625 
Q 24.171875 6.390625 31.78125 6.390625 
Q 39.453125 6.390625 43.28125 13.890625 
Q 47.125 21.390625 47.125 36.375 
Q 47.125 51.421875 43.28125 58.90625 
Q 39.453125 66.40625 31.78125 66.40625 
z
M 31.78125 74.21875 
Q 44.046875 74.21875 50.515625 64.515625 
Q 56.984375 54.828125 56.984375 36.375 
Q 56.984375 17.96875 50.515625 8.265625 
Q 44.046875 -1.421875 31.78125 -1.421875 
Q 19.53125 -1.421875 13.0625 8.265625 
Q 6.59375 17.96875 6.59375 36.375 
Q 6.59375 54.828125 13.0625 64.515625 
Q 19.53125 74.21875 31.78125 74.21875 
z
" id="DejaVuSans-48"/>
        <path d="M 10.6875 12.40625 
L 21 12.40625 
L 21 0 
L 10.6875 0 
z
" id="DejaVuSans-46"/>
       </defs>
       <use xlink:href="#DejaVuSans-48"/>
       <use x="63.623047" xlink:href="#DejaVuSans-46"/>
       <use x="95.410156" xlink:href="#DejaVuSans-48"/>
       <use x="159.033203" xlink:href="#DejaVuSans-48"/>
      </g>
     </g>
    </g>
    <g id="xtick_2">
     <g id="line2d_2">
      <g>
       <use style="stroke:#000000;stroke-width:0.8;" x="68.713435" xlink:href="#m84a830ec84" y="130.63874"/>
      </g>
     </g>
     <g id="text_2">
      <!-- 0.25 -->
      <g transform="translate(58.693904 144.477334)scale(0.09 -0.09)">
       <defs>
        <path d="M 19.1875 8.296875 
L 53.609375 8.296875 
L 53.609375 0 
L 7.328125 0 
L 7.328125 8.296875 
Q 12.9375 14.109375 22.625 23.890625 
Q 32.328125 33.6875 34.8125 36.53125 
Q 39.546875 41.84375 41.421875 45.53125 
Q 43.3125 49.21875 43.3125 52.78125 
Q 43.3125 58.59375 39.234375 62.25 
Q 35.15625 65.921875 28.609375 65.921875 
Q 23.96875 65.921875 18.8125 64.3125 
Q 13.671875 62.703125 7.8125 59.421875 
L 7.8125 69.390625 
Q 13.765625 71.78125 18.9375 73 
Q 24.125 74.21875 28.421875 74.21875 
Q 39.75 74.21875 46.484375 68.546875 
Q 53.21875 62.890625 53.21875 53.421875 
Q 53.21875 48.921875 51.53125 44.890625 
Q 49.859375 40.875 45.40625 35.40625 
Q 44.1875 33.984375 37.640625 27.21875 
Q 31.109375 20.453125 19.1875 8.296875 
z
" id="DejaVuSans-50"/>
        <path d="M 10.796875 72.90625 
L 49.515625 72.90625 
L 49.515625 64.59375 
L 19.828125 64.59375 
L 19.828125 46.734375 
Q 21.96875 47.46875 24.109375 47.828125 
Q 26.265625 48.1875 28.421875 48.1875 
Q 40.625 48.1875 47.75 41.5 
Q 54.890625 34.8125 54.890625 23.390625 
Q 54.890625 11.625 47.5625 5.09375 
Q 40.234375 -1.421875 26.90625 -1.421875 
Q 22.3125 -1.421875 17.546875 -0.640625 
Q 12.796875 0.140625 7.71875 1.703125 
L 7.71875 11.625 
Q 12.109375 9.234375 16.796875 8.0625 
Q 21.484375 6.890625 26.703125 6.890625 
Q 35.15625 6.890625 40.078125 11.328125 
Q 45.015625 15.765625 45.015625 23.390625 
Q 45.015625 31 40.078125 35.4375 
Q 35.15625 39.890625 26.703125 39.890625 
Q 22.75 39.890625 18.8125 39.015625 
Q 14.890625 38.140625 10.796875 36.28125 
z
" id="DejaVuSans-53"/>
       </defs>
       <use xlink:href="#DejaVuSans-48"/>
       <use x="63.623047" xlink:href="#DejaVuSans-46"/>
       <use x="95.410156" xlink:href="#DejaVuSans-50"/>
       <use x="159.033203" xlink:href="#DejaVuSans-53"/>
      </g>
     </g>
    </g>
    <g id="xtick_3">
     <g id="line2d_3">
      <g>
       <use style="stroke:#000000;stroke-width:0.8;" x="95.91687" xlink:href="#m84a830ec84" y="130.63874"/>
      </g>
     </g>
     <g id="text_3">
      <!-- 0.50 -->
      <g transform="translate(85.897339 144.477334)scale(0.09 -0.09)">
       <use xlink:href="#DejaVuSans-48"/>
       <use x="63.623047" xlink:href="#DejaVuSans-46"/>
       <use x="95.410156" xlink:href="#DejaVuSans-53"/>
       <use x="159.033203" xlink:href="#DejaVuSans-48"/>
      </g>
     </g>
    </g>
    <g id="xtick_4">
     <g id="line2d_4">
      <g>
       <use style="stroke:#000000;stroke-width:0.8;" x="123.120305" xlink:href="#m84a830ec84" y="130.63874"/>
      </g>
     </g>
     <g id="text_4">
      <!-- 0.75 -->
      <g transform="translate(113.100774 144.477334)scale(0.09 -0.09)">
       <defs>
        <path d="M 8.203125 72.90625 
L 55.078125 72.90625 
L 55.078125 68.703125 
L 28.609375 0 
L 18.3125 0 
L 43.21875 64.59375 
L 8.203125 64.59375 
z
" id="DejaVuSans-55"/>
       </defs>
       <use xlink:href="#DejaVuSans-48"/>
       <use x="63.623047" xlink:href="#DejaVuSans-46"/>
       <use x="95.410156" xlink:href="#DejaVuSans-55"/>
       <use x="159.033203" xlink:href="#DejaVuSans-53"/>
      </g>
     </g>
    </g>
    <g id="xtick_5">
     <g id="line2d_5">
      <g>
       <use style="stroke:#000000;stroke-width:0.8;" x="150.32374" xlink:href="#m84a830ec84" y="130.63874"/>
      </g>
     </g>
     <g id="text_5">
      <!-- 1.00 -->
      <g transform="translate(140.304209 144.477334)scale(0.09 -0.09)">
       <defs>
        <path d="M 12.40625 8.296875 
L 28.515625 8.296875 
L 28.515625 63.921875 
L 10.984375 60.40625 
L 10.984375 69.390625 
L 28.421875 72.90625 
L 38.28125 72.90625 
L 38.28125 8.296875 
L 54.390625 8.296875 
L 54.390625 0 
L 12.40625 0 
z
" id="DejaVuSans-49"/>
       </defs>
       <use xlink:href="#DejaVuSans-49"/>
       <use x="63.623047" xlink:href="#DejaVuSans-46"/>
       <use x="95.410156" xlink:href="#DejaVuSans-48"/>
       <use x="159.033203" xlink:href="#DejaVuSans-48"/>
      </g>
     </g>
    </g>
    <g id="text_6">
     <!-- pDockQ -->
     <g transform="translate(78.219214 157.187646)scale(0.09 -0.09)">
      <defs>
       <path d="M 18.109375 8.203125 
L 18.109375 -20.796875 
L 9.078125 -20.796875 
L 9.078125 54.6875 
L 18.109375 54.6875 
L 18.109375 46.390625 
Q 20.953125 51.265625 25.265625 53.625 
Q 29.59375 56 35.59375 56 
Q 45.5625 56 51.78125 48.09375 
Q 58.015625 40.1875 58.015625 27.296875 
Q 58.015625 14.40625 51.78125 6.484375 
Q 45.5625 -1.421875 35.59375 -1.421875 
Q 29.59375 -1.421875 25.265625 0.953125 
Q 20.953125 3.328125 18.109375 8.203125 
z
M 48.6875 27.296875 
Q 48.6875 37.203125 44.609375 42.84375 
Q 40.53125 48.484375 33.40625 48.484375 
Q 26.265625 48.484375 22.1875 42.84375 
Q 18.109375 37.203125 18.109375 27.296875 
Q 18.109375 17.390625 22.1875 11.75 
Q 26.265625 6.109375 33.40625 6.109375 
Q 40.53125 6.109375 44.609375 11.75 
Q 48.6875 17.390625 48.6875 27.296875 
z
" id="DejaVuSans-112"/>
       <path d="M 19.671875 64.796875 
L 19.671875 8.109375 
L 31.59375 8.109375 
Q 46.6875 8.109375 53.6875 14.9375 
Q 60.6875 21.78125 60.6875 36.53125 
Q 60.6875 51.171875 53.6875 57.984375 
Q 46.6875 64.796875 31.59375 64.796875 
z
M 9.8125 72.90625 
L 30.078125 72.90625 
Q 51.265625 72.90625 61.171875 64.09375 
Q 71.09375 55.28125 71.09375 36.53125 
Q 71.09375 17.671875 61.125 8.828125 
Q 51.171875 0 30.078125 0 
L 9.8125 0 
z
" id="DejaVuSans-68"/>
       <path d="M 30.609375 48.390625 
Q 23.390625 48.390625 19.1875 42.75 
Q 14.984375 37.109375 14.984375 27.296875 
Q 14.984375 17.484375 19.15625 11.84375 
Q 23.34375 6.203125 30.609375 6.203125 
Q 37.796875 6.203125 41.984375 11.859375 
Q 46.1875 17.53125 46.1875 27.296875 
Q 46.1875 37.015625 41.984375 42.703125 
Q 37.796875 48.390625 30.609375 48.390625 
z
M 30.609375 56 
Q 42.328125 56 49.015625 48.375 
Q 55.71875 40.765625 55.71875 27.296875 
Q 55.71875 13.875 49.015625 6.21875 
Q 42.328125 -1.421875 30.609375 -1.421875 
Q 18.84375 -1.421875 12.171875 6.21875 
Q 5.515625 13.875 5.515625 27.296875 
Q 5.515625 40.765625 12.171875 48.375 
Q 18.84375 56 30.609375 56 
z
" id="DejaVuSans-111"/>
       <path d="M 48.78125 52.59375 
L 48.78125 44.1875 
Q 44.96875 46.296875 41.140625 47.34375 
Q 37.3125 48.390625 33.40625 48.390625 
Q 24.65625 48.390625 19.8125 42.84375 
Q 14.984375 37.3125 14.984375 27.296875 
Q 14.984375 17.28125 19.8125 11.734375 
Q 24.65625 6.203125 33.40625 6.203125 
Q 37.3125 6.203125 41.140625 7.25 
Q 44.96875 8.296875 48.78125 10.40625 
L 48.78125 2.09375 
Q 45.015625 0.34375 40.984375 -0.53125 
Q 36.96875 -1.421875 32.421875 -1.421875 
Q 20.0625 -1.421875 12.78125 6.34375 
Q 5.515625 14.109375 5.515625 27.296875 
Q 5.515625 40.671875 12.859375 48.328125 
Q 20.21875 56 33.015625 56 
Q 37.15625 56 41.109375 55.140625 
Q 45.0625 54.296875 48.78125 52.59375 
z
" id="DejaVuSans-99"/>
       <path d="M 9.078125 75.984375 
L 18.109375 75.984375 
L 18.109375 31.109375 
L 44.921875 54.6875 
L 56.390625 54.6875 
L 27.390625 29.109375 
L 57.625 0 
L 45.90625 0 
L 18.109375 26.703125 
L 18.109375 0 
L 9.078125 0 
z
" id="DejaVuSans-107"/>
       <path d="M 39.40625 66.21875 
Q 28.65625 66.21875 22.328125 58.203125 
Q 16.015625 50.203125 16.015625 36.375 
Q 16.015625 22.609375 22.328125 14.59375 
Q 28.65625 6.59375 39.40625 6.59375 
Q 50.140625 6.59375 56.421875 14.59375 
Q 62.703125 22.609375 62.703125 36.375 
Q 62.703125 50.203125 56.421875 58.203125 
Q 50.140625 66.21875 39.40625 66.21875 
z
M 53.21875 1.3125 
L 66.21875 -12.890625 
L 54.296875 -12.890625 
L 43.5 -1.21875 
Q 41.890625 -1.3125 41.03125 -1.359375 
Q 40.1875 -1.421875 39.40625 -1.421875 
Q 24.03125 -1.421875 14.8125 8.859375 
Q 5.609375 19.140625 5.609375 36.375 
Q 5.609375 53.65625 14.8125 63.9375 
Q 24.03125 74.21875 39.40625 74.21875 
Q 54.734375 74.21875 63.90625 63.9375 
Q 73.09375 53.65625 73.09375 36.375 
Q 73.09375 23.6875 67.984375 14.640625 
Q 62.890625 5.609375 53.21875 1.3125 
z
" id="DejaVuSans-81"/>
      </defs>
      <use xlink:href="#DejaVuSans-112"/>
      <use x="63.476562" xlink:href="#DejaVuSans-68"/>
      <use x="140.478516" xlink:href="#DejaVuSans-111"/>
      <use x="201.660156" xlink:href="#DejaVuSans-99"/>
      <use x="256.640625" xlink:href="#DejaVuSans-107"/>
      <use x="314.550781" xlink:href="#DejaVuSans-81"/>
     </g>
    </g>
   </g>
   <g id="matplotlib.axis_2">
    <g id="ytick_1">
     <g id="line2d_6">
      <defs>
       <path d="M 0 0 
L -3.5 0 
" id="md654bf1590" style="stroke:#000000;stroke-width:0.8;"/>
      </defs>
      <g>
       <use style="stroke:#000000;stroke-width:0.8;" x="41.51" xlink:href="#md654bf1590" y="130.63874"/>
      </g>
     </g>
     <g id="text_7">
      <!-- 0 -->
      <g transform="translate(28.78375 134.058037)scale(0.09 -0.09)">
       <use xlink:href="#DejaVuSans-48"/>
      </g>
     </g>
    </g>
    <g id="ytick_2">
     <g id="line2d_7">
      <g>
       <use style="stroke:#000000;stroke-width:0.8;" x="41.51" xlink:href="#md654bf1590" y="104.458331"/>
      </g>
     </g>
     <g id="text_8">
      <!-- 5 -->
      <g transform="translate(28.78375 107.877627)scale(0.09 -0.09)">
       <use xlink:href="#DejaVuSans-53"/>
      </g>
     </g>
    </g>
    <g id="ytick_3">
     <g id="line2d_8">
      <g>
       <use style="stroke:#000000;stroke-width:0.8;" x="41.51" xlink:href="#md654bf1590" y="78.277921"/>
      </g>
     </g>
     <g id="text_9">
      <!-- 10 -->
      <g transform="translate(23.0575 81.697218)scale(0.09 -0.09)">
       <use xlink:href="#DejaVuSans-49"/>
       <use x="63.623047" xlink:href="#DejaVuSans-48"/>
      </g>
     </g>
    </g>
    <g id="ytick_4">
     <g id="line2d_9">
      <g>
       <use style="stroke:#000000;stroke-width:0.8;" x="41.51" xlink:href="#md654bf1590" y="52.097511"/>
      </g>
     </g>
     <g id="text_10">
      <!-- 15 -->
      <g transform="translate(23.0575 55.516808)scale(0.09 -0.09)">
       <use xlink:href="#DejaVuSans-49"/>
       <use x="63.623047" xlink:href="#DejaVuSans-53"/>
      </g>
     </g>
    </g>
    <g id="ytick_5">
     <g id="line2d_10">
      <g>
       <use style="stroke:#000000;stroke-width:0.8;" x="41.51" xlink:href="#md654bf1590" y="25.917102"/>
      </g>
     </g>
     <g id="text_11">
      <!-- 20 -->
      <g transform="translate(23.0575 29.336399)scale(0.09 -0.09)">
       <use xlink:href="#DejaVuSans-50"/>
       <use x="63.623047" xlink:href="#DejaVuSans-48"/>
      </g>
     </g>
    </g>
    <g id="text_12">
     <!-- Density -->
     <g transform="translate(17.185781 87.287104)rotate(-90)scale(0.09 -0.09)">
      <defs>
       <path d="M 56.203125 29.59375 
L 56.203125 25.203125 
L 14.890625 25.203125 
Q 15.484375 15.921875 20.484375 11.0625 
Q 25.484375 6.203125 34.421875 6.203125 
Q 39.59375 6.203125 44.453125 7.46875 
Q 49.3125 8.734375 54.109375 11.28125 
L 54.109375 2.78125 
Q 49.265625 0.734375 44.1875 -0.34375 
Q 39.109375 -1.421875 33.890625 -1.421875 
Q 20.796875 -1.421875 13.15625 6.1875 
Q 5.515625 13.8125 5.515625 26.8125 
Q 5.515625 40.234375 12.765625 48.109375 
Q 20.015625 56 32.328125 56 
Q 43.359375 56 49.78125 48.890625 
Q 56.203125 41.796875 56.203125 29.59375 
z
M 47.21875 32.234375 
Q 47.125 39.59375 43.09375 43.984375 
Q 39.0625 48.390625 32.421875 48.390625 
Q 24.90625 48.390625 20.390625 44.140625 
Q 15.875 39.890625 15.1875 32.171875 
z
" id="DejaVuSans-101"/>
       <path d="M 54.890625 33.015625 
L 54.890625 0 
L 45.90625 0 
L 45.90625 32.71875 
Q 45.90625 40.484375 42.875 44.328125 
Q 39.84375 48.1875 33.796875 48.1875 
Q 26.515625 48.1875 22.3125 43.546875 
Q 18.109375 38.921875 18.109375 30.90625 
L 18.109375 0 
L 9.078125 0 
L 9.078125 54.6875 
L 18.109375 54.6875 
L 18.109375 46.1875 
Q 21.34375 51.125 25.703125 53.5625 
Q 30.078125 56 35.796875 56 
Q 45.21875 56 50.046875 50.171875 
Q 54.890625 44.34375 54.890625 33.015625 
z
" id="DejaVuSans-110"/>
       <path d="M 44.28125 53.078125 
L 44.28125 44.578125 
Q 40.484375 46.53125 36.375 47.5 
Q 32.28125 48.484375 27.875 48.484375 
Q 21.1875 48.484375 17.84375 46.4375 
Q 14.5 44.390625 14.5 40.28125 
Q 14.5 37.15625 16.890625 35.375 
Q 19.28125 33.59375 26.515625 31.984375 
L 29.59375 31.296875 
Q 39.15625 29.25 43.1875 25.515625 
Q 47.21875 21.78125 47.21875 15.09375 
Q 47.21875 7.46875 41.1875 3.015625 
Q 35.15625 -1.421875 24.609375 -1.421875 
Q 20.21875 -1.421875 15.453125 -0.5625 
Q 10.6875 0.296875 5.421875 2 
L 5.421875 11.28125 
Q 10.40625 8.6875 15.234375 7.390625 
Q 20.0625 6.109375 24.8125 6.109375 
Q 31.15625 6.109375 34.5625 8.28125 
Q 37.984375 10.453125 37.984375 14.40625 
Q 37.984375 18.0625 35.515625 20.015625 
Q 33.0625 21.96875 24.703125 23.78125 
L 21.578125 24.515625 
Q 13.234375 26.265625 9.515625 29.90625 
Q 5.8125 33.546875 5.8125 39.890625 
Q 5.8125 47.609375 11.28125 51.796875 
Q 16.75 56 26.8125 56 
Q 31.78125 56 36.171875 55.265625 
Q 40.578125 54.546875 44.28125 53.078125 
z
" id="DejaVuSans-115"/>
       <path d="M 9.421875 54.6875 
L 18.40625 54.6875 
L 18.40625 0 
L 9.421875 0 
z
M 9.421875 75.984375 
L 18.40625 75.984375 
L 18.40625 64.59375 
L 9.421875 64.59375 
z
" id="DejaVuSans-105"/>
       <path d="M 18.3125 70.21875 
L 18.3125 54.6875 
L 36.8125 54.6875 
L 36.8125 47.703125 
L 18.3125 47.703125 
L 18.3125 18.015625 
Q 18.3125 11.328125 20.140625 9.421875 
Q 21.96875 7.515625 27.59375 7.515625 
L 36.8125 7.515625 
L 36.8125 0 
L 27.59375 0 
Q 17.1875 0 13.234375 3.875 
Q 9.28125 7.765625 9.28125 18.015625 
L 9.28125 47.703125 
L 2.6875 47.703125 
L 2.6875 54.6875 
L 9.28125 54.6875 
L 9.28125 70.21875 
z
" id="DejaVuSans-116"/>
       <path d="M 32.171875 -5.078125 
Q 28.375 -14.84375 24.75 -17.8125 
Q 21.140625 -20.796875 15.09375 -20.796875 
L 7.90625 -20.796875 
L 7.90625 -13.28125 
L 13.1875 -13.28125 
Q 16.890625 -13.28125 18.9375 -11.515625 
Q 21 -9.765625 23.484375 -3.21875 
L 25.09375 0.875 
L 2.984375 54.6875 
L 12.5 54.6875 
L 29.59375 11.921875 
L 46.6875 54.6875 
L 56.203125 54.6875 
z
" id="DejaVuSans-121"/>
      </defs>
      <use xlink:href="#DejaVuSans-68"/>
      <use x="77.001953" xlink:href="#DejaVuSans-101"/>
      <use x="138.525391" xlink:href="#DejaVuSans-110"/>
      <use x="201.904297" xlink:href="#DejaVuSans-115"/>
      <use x="254.003906" xlink:href="#DejaVuSans-105"/>
      <use x="281.787109" xlink:href="#DejaVuSans-116"/>
      <use x="320.996094" xlink:href="#DejaVuSans-121"/>
     </g>
    </g>
   </g>
   <g id="patch_43">
    <path d="M 41.51 130.63874 
L 41.51 9.72 
" style="fill:none;stroke:#000000;stroke-linecap:square;stroke-linejoin:miter;stroke-width:0.8;"/>
   </g>
   <g id="patch_44">
    <path d="M 41.51 130.63874 
L 150.32374 130.63874 
" style="fill:none;stroke:#000000;stroke-linecap:square;stroke-linejoin:miter;stroke-width:0.8;"/>
   </g>
   <g id="legend_1">
    <g id="patch_45">
     <path d="M 98.268584 43.340625 
L 144.02374 43.340625 
Q 145.82374 43.340625 145.82374 41.540625 
L 145.82374 16.02 
Q 145.82374 14.22 144.02374 14.22 
L 98.268584 14.22 
Q 96.468584 14.22 96.468584 16.02 
L 96.468584 41.540625 
Q 96.468584 43.340625 98.268584 43.340625 
z
" style="fill:#ffffff;opacity:0.8;stroke:#cccccc;stroke-linejoin:miter;"/>
    </g>
    <g id="patch_46">
     <path d="M 100.068584 24.658594 
L 118.068584 24.658594 
L 118.068584 18.358594 
L 100.068584 18.358594 
z
" style="opacity:0.75;"/>
    </g>
    <g id="text_13">
     <!-- pos -->
     <g transform="translate(125.268584 24.658594)scale(0.09 -0.09)">
      <use xlink:href="#DejaVuSans-112"/>
      <use x="63.476562" xlink:href="#DejaVuSans-111"/>
      <use x="124.658203" xlink:href="#DejaVuSans-115"/>
     </g>
    </g>
    <g id="patch_47">
     <path d="M 100.068584 37.868906 
L 118.068584 37.868906 
L 118.068584 31.568906 
L 100.068584 31.568906 
z
" style="fill:#808080;opacity:0.75;"/>
    </g>
    <g id="text_14">
     <!-- neg -->
     <g transform="translate(125.268584 37.868906)scale(0.09 -0.09)">
      <defs>
       <path d="M 45.40625 27.984375 
Q 45.40625 37.75 41.375 43.109375 
Q 37.359375 48.484375 30.078125 48.484375 
Q 22.859375 48.484375 18.828125 43.109375 
Q 14.796875 37.75 14.796875 27.984375 
Q 14.796875 18.265625 18.828125 12.890625 
Q 22.859375 7.515625 30.078125 7.515625 
Q 37.359375 7.515625 41.375 12.890625 
Q 45.40625 18.265625 45.40625 27.984375 
z
M 54.390625 6.78125 
Q 54.390625 -7.171875 48.1875 -13.984375 
Q 42 -20.796875 29.203125 -20.796875 
Q 24.46875 -20.796875 20.265625 -20.09375 
Q 16.0625 -19.390625 12.109375 -17.921875 
L 12.109375 -9.1875 
Q 16.0625 -11.328125 19.921875 -12.34375 
Q 23.78125 -13.375 27.78125 -13.375 
Q 36.625 -13.375 41.015625 -8.765625 
Q 45.40625 -4.15625 45.40625 5.171875 
L 45.40625 9.625 
Q 42.625 4.78125 38.28125 2.390625 
Q 33.9375 0 27.875 0 
Q 17.828125 0 11.671875 7.65625 
Q 5.515625 15.328125 5.515625 27.984375 
Q 5.515625 40.671875 11.671875 48.328125 
Q 17.828125 56 27.875 56 
Q 33.9375 56 38.28125 53.609375 
Q 42.625 51.21875 45.40625 46.390625 
L 45.40625 54.6875 
L 54.390625 54.6875 
z
" id="DejaVuSans-103"/>
      </defs>
      <use xlink:href="#DejaVuSans-110"/>
      <use x="63.378906" xlink:href="#DejaVuSans-101"/>
      <use x="124.902344" xlink:href="#DejaVuSans-103"/>
     </g>
    </g>
   </g>
  </g>
 </g>
 <defs>
  <clipPath id="p6fadf34ce1">
   <rect height="120.91874" width="108.81374" x="41.51" y="9.72"/>
  </clipPath>
 </defs>
</svg>
